<?xml version="1.0" encoding="UTF-8" standalone="no"?>
<svg
   width="800"
   height="533"
   shape-rendering="geometricPrecision"
   image-rendering="optimizeQuality"
   fill-rule="evenodd"
   version="1.1"
   id="svg150"
   sodipodi:docname="Flag_of_New_Brunswick.svg"
   inkscape:version="1.2.2 (732a01da63, 2022-12-09)"
   xmlns:inkscape="http://www.inkscape.org/namespaces/inkscape"
   xmlns:sodipodi="http://sodipodi.sourceforge.net/DTD/sodipodi-0.dtd"
   xmlns="http://www.w3.org/2000/svg"
   xmlns:svg="http://www.w3.org/2000/svg">
  <defs
     id="defs154" />
  <sodipodi:namedview
     id="namedview152"
     pagecolor="#ffffff"
     bordercolor="#000000"
     borderopacity="0.25"
     inkscape:showpageshadow="2"
     inkscape:pageopacity="0.0"
     inkscape:pagecheckerboard="0"
     inkscape:deskcolor="#d1d1d1"
     showgrid="false"
     inkscape:zoom="1"
     inkscape:cx="549.5"
     inkscape:cy="319"
     inkscape:window-width="2560"
     inkscape:window-height="1334"
     inkscape:window-x="-11"
     inkscape:window-y="-11"
     inkscape:window-maximized="1"
     inkscape:current-layer="svg150" />
  <style
     id="style2"><![CDATA[.K{stroke-width:.9}.L{stroke:#f4c600}.M{fill:#f4c600}.N{fill:#d32927}.O{stroke:#d32927}.P{stroke:#1f1a17}.Q{fill:#1f1a17}]]></style>
  <g
     class="K"
     id="g44"
     transform="matrix(0.41698623,0,0,0.44384934,-0.31019833,-0.30965522)">
    <path
       d="M 0.054,0 H 1920 V 1200 H 0.054 Z"
       class="L M"
       id="path4" />
    <path
       d="M 0.03,0 H 1919.98 V 399.84 H 0.03 Z"
       class="N O"
       id="path6" />
    <g
       class="L M"
       id="g12">
      <path
         d="m 168.944,33.947 c 0.132,2.836 -1.878,7.05 -1.878,7.05 -12.03,2.17 -5.64,-14.1 -12.403,-19.162 7.14,-0.722 13.95,4.976 14.281,12.112 z m -29.691,0.905 c 6.764,15.184 -3.758,36.514 12.778,45.913 4.134,1.085 7.141,-2.168 9.021,-5.061 -2.256,-9.038 -10.902,-14.461 -10.149,-25.308 7.14,-5.422 22.55,5.062 26.308,-7.952 1.128,-2.171 3.384,-1.447 5.263,-1.447 15.785,16.27 -10.899,32.538 1.128,47.722 27.811,17.715 52.243,50.975 90.201,50.252 44.725,12.654 96.592,14.463 144.322,15.548 -1.504,6.506 -16.161,3.974 -10.899,14.822 4.512,5.062 10.899,10.122 18.043,11.206 -4.136,3.978 -6.017,11.21 -11.653,12.294 13.154,3.615 16.537,19.522 28.563,24.223 2.633,2.89 4.135,6.868 7.518,8.675 16.912,-11.206 18.041,-35.069 27.061,-51.337 l 4.509,1.807 c -7.518,22.776 -23.303,49.168 -14.659,77.367 31.195,-11.569 27.814,-46.998 40.591,-69.413 1.128,0 3.008,-0.723 3.759,0.724 -3.007,18.438 -12.402,34.344 -12.778,53.867 3.007,3.617 9.019,4.701 12.778,1.808 3.758,-2.17 10.898,-5.06 14.283,0 1.502,0.723 2.255,3.255 4.509,2.531 1.502,-16.993 25.557,-5.424 27.059,-19.885 -1.127,-1.446 -3.383,-0.723 -4.509,-2.891 v -1.447 c 11.276,-1.447 27.813,-5.784 36.08,4.338 1.505,4.339 -3.758,3.978 -6.39,5.062 -3.381,1.447 -6.013,-2.531 -9.018,0 0.376,3.253 9.018,8.316 1.878,12.292 -7.141,1.446 -13.905,-3.254 -19.919,0 2.255,8.678 13.905,10.486 21.046,15.546 3.007,5.785 -6.014,10.486 -10.147,13.016 -7.894,0.363 -15.034,-4.338 -22.551,-2.53 1.504,6.868 9.397,9.762 15.41,11.931 v 1.806 c -15.034,2.531 -28.939,-3.617 -39.839,-13.737 h -3.383 c -1.129,7.952 -2.256,18.437 0.751,26.03 -9.396,1.085 -13.905,-7.955 -18.793,-14.099 -6.389,-7.955 -4.885,-20.61 -16.161,-24.948 -3.758,3.979 -0.751,9.763 0.751,13.739 -6.764,6.87 0.377,24.224 -14.281,23.5 -7.892,-8.678 -13.155,-18.798 -24.431,-22.776 -1.879,-12.293 1.505,-25.669 -10.147,-32.901 -2.632,7.232 -0.752,18.438 -9.771,20.969 -3.383,-18.438 -34.578,-37.598 -9.772,-55.676 0,-2.531 0,-5.422 -3.006,-6.868 -1.504,1.446 -4.135,0.722 -6.014,0.722 0,-10.483 5.261,-30.007 -8.27,-35.429 -42.844,-3.253 -86.066,-6.146 -126.281,-15.547 l -8.268,1.808 c 37.207,23.139 84.563,6.87 121.773,29.285 6.012,3.254 7.891,12.292 5.636,19.161 -3.383,6.146 -3.758,14.461 -10.899,18.074 l -14.283,-5.783 c -2.629,4.698 5.263,7.952 3.383,13.74 -7.514,1.806 -7.514,-9.041 -12.4,-13.017 -4.136,-2.893 -7.894,-5.785 -12.781,-6.146 -3.758,5.062 2.255,10.485 2.633,15.547 -12.027,0.722 -11.652,-16.993 -24.431,-18.078 -2.63,6.509 4.509,11.209 5.639,17.354 -10.899,1.084 -12.779,-25.306 -26.31,-13.739 -2.629,3.978 9.398,10.847 0,9.4 -7.141,-6.507 -9.77,-21.332 -22.551,-16.631 0.754,2.894 2.258,5.062 1.882,7.954 -7.893,-1.807 -9.398,-24.945 -20.672,-14.822 0.376,2.531 3.383,5.424 0.751,7.952 -9.396,-5.06 -10.524,-18.797 -20.672,-22.775 -3.383,2.893 -1.128,8.675 -1.879,11.569 -4.508,1.084 -6.764,-7.591 -10.898,-1.807 30.066,30.367 73.287,50.615 121.772,50.251 3.006,1.085 4.886,3.979 4.509,6.869 -4.135,5.785 -10.524,2.172 -16.16,1.808 l -0.754,5.061 c -7.891,-4.697 -14.281,-12.653 -24.43,-11.929 -5.261,3.615 3.008,10.485 -3.756,11.929 -7.143,-5.422 -6.015,-19.883 -18.794,-18.076 -7.891,3.615 9.396,25.306 -8.269,14.823 -4.134,-7.591 -4.885,-19.524 -16.161,-23.498 -7.892,3.252 -3.383,11.928 -4.509,17.352 -7.141,-2.53 -4.509,-11.569 -7.141,-17.352 -2.255,-1.809 -2.255,-6.146 -6.391,-6.146 -6.387,1.084 -2.254,8.314 -3.381,12.291 -10.146,-3.254 -1.504,-19.884 -14.657,-22.776 -3.383,-0.724 -7.141,1.084 -7.141,4.338 -0.374,4.701 3.007,7.593 1.88,12.294 -6.767,-2.531 -9.021,-10.847 -9.021,-18.079 -2.255,-3.974 -4.511,-8.675 -10.147,-10.483 -5.639,3.615 -3.384,11.93 -2.631,17.354 1.878,0.723 0.751,2.167 1.128,3.252 -10.524,-3.252 -7.141,-16.629 -9.021,-26.028 -3.006,-2.531 -4.134,-7.593 -9.019,-6.869 -5.64,6.869 -4.512,18.076 -4.512,25.306 -13.153,-6.868 -4.511,-26.03 -14.656,-34.707 -1.504,-2.531 -4.135,-2.893 -7.14,-2.531 -6.391,4.338 -3.009,13.737 -2.631,19.885 -4.887,0 -8.646,-6.148 -10.149,-10.485 -9.019,-21.332 14.659,-35.069 3.759,-54.592 -2.256,-11.209 -15.785,-18.438 -27.06,-19.885 -10.899,1.084 -22.552,12.654 -32.323,3.255 1.502,-8.676 12.027,-15.908 3.383,-26.03 0,-3.255 4.134,-5.063 7.142,-5.063 13.154,-0.36 24.053,7.593 30.817,18.078 2.256,2.531 6.767,3.615 9.772,1.808 7.518,-11.209 -8.268,-15.185 -13.531,-21.692 -7.141,-3.978 -16.16,-5.424 -20.672,-13.739 0.754,-13.739 17.666,-15.184 19.168,-28.924 2.63,-8.676 15.41,-2.53 14.283,5.425 z m -27.811,-1.808 -1.128,6.869 c -15.035,7.954 -18.417,-6.869 -32.511,-6.418 -6.373,0.206 7.046,-7.682 14.47,-7.319 7.515,-0.363 15.785,1.084 19.169,6.868 z m 405.906,-6.868 c 4.509,9.037 -6.013,21.33 5.261,26.751 11.653,-11.206 25.935,-16.629 41.343,-19.16 l 10.9,-6.869 c -5.262,9.4 -13.529,17.715 -15.41,28.561 7.141,3.615 10.148,-7.592 16.537,-8.676 13.908,-1.447 25.182,-8.315 36.834,-15.546 -0.377,14.822 -16.539,24.222 -23.303,35.791 l 2.63,2.531 28.941,-7.954 c -19.544,15.906 1.504,45.553 -21.8,58.929 6.764,3.617 12.404,7.232 16.163,14.101 0.75,7.591 0,14.823 -6.39,19.885 -9.774,6.506 -24.054,10.844 -36.08,5.06 0,16.268 18.79,22.415 25.557,34.707 -15.034,12.293 -29.693,-3.253 -43.598,-6.868 -1.88,6.868 3.383,13.015 5.637,19.161 -4.133,1.085 -15.785,-6.868 -18.04,3.615 -1.878,3.977 6.765,7.955 0,10.123 -9.02,-0.722 -16.537,1.446 -24.431,2.891 3.007,-15.544 2.256,-37.598 22.553,-44.467 -1.881,-11.931 13.904,-9.038 17.285,-15.547 l -23.676,-6.146 c -3.007,5.424 0.377,16.631 -9.019,19.884 -9.396,3.253 -18.043,-0.722 -24.431,-7.591 -3.007,-3.615 1.879,-6.507 3.007,-9.762 6.765,2.531 14.657,0.361 18.039,-5.785 l 1.505,-1.806 c -2.256,-3.978 -6.014,-0.363 -9.772,-2.531 -3.382,-3.254 -10.147,-3.254 -11.65,-7.232 5.637,-0.359 10.147,4.339 15.409,2.893 -1.127,-7.591 -9.396,-9.038 -15.409,-10.483 -3.758,-0.363 -6.39,3.253 -8.268,6.146 l -5.263,-2.894 c -6.764,13.739 21.8,25.308 -2.632,30.37 -9.019,1.447 -12.778,-8.316 -16.537,-13.737 -3.382,-10.124 12.404,-11.21 10.9,-19.163 -10.524,-0.722 -18.793,-8.676 -27.813,-10.483 3.758,9.762 16.161,18.8 6.39,29.647 10.147,13.013 4.509,29.644 -3.007,42.66 -1.878,2.168 -4.887,2.891 -7.892,2.531 0,-6.146 -9.398,1.083 -7.141,-6.146 -3.008,-2.531 -8.27,-1.084 -6.391,-6.869 3.761,-0.723 8.269,-5.785 7.892,-10.485 0.754,-4.338 -0.751,-7.954 -4.509,-10.485 -3.383,-0.363 -9.019,1.447 -10.522,-1.807 -1.128,-5.062 6.764,-0.724 9.02,-4.339 5.639,-3.976 0,-11.208 2.63,-16.27 l 14.282,-9.759 c -3.006,-1.447 -4.886,-7.956 -9.019,-4.339 -7.142,4.7 -6.767,17.354 -16.913,17.354 -9.772,0.723 -18.794,-3.255 -24.431,-8.678 12.405,-1.446 25.935,-5.061 32.322,-17.354 0.754,-6.145 -4.132,-7.592 -6.387,-13.015 -4.511,-9.4 -3.382,-23.499 3.007,-31.815 6.763,-4.338 9.77,-11.569 18.039,-12.291 -0.751,3.614 0.377,9.399 4.512,11.206 10.898,-0.36 6.764,-14.1 11.65,-20.608 6.013,-2.891 6.764,-9.399 7.891,-14.823 l 5.64,19.885 c 6.012,-16.991 28.938,-18.438 37.958,-32.898 z m 528.432,28.56 c 22.551,3.254 49.61,7.591 63.894,-13.739 l 7.518,-9.761 c 1.501,0.36 3.381,2.169 3.381,3.615 -2.257,13.737 -15.411,26.391 -25.935,31.091 -14.281,6.869 -39.087,-1.446 -55.998,3.615 3.758,4.701 12.778,0.723 15.409,6.869 -40.215,3.977 -69.906,-22.416 -112.753,-16.631 -16.16,0.723 -32.699,1.446 -46.98,6.146 0.752,3.615 4.508,3.254 7.14,4.338 36.458,1.808 71.411,-0.723 104.485,8.678 v 1.083 c 27.811,7.593 63.893,13.74 92.08,2.531 v 3.254 C 1041.646,116.195 993.538,68.11 933.78,80.04 c -0.377,0.723 -1.88,1.085 -1.504,2.531 10.898,1.807 24.054,7.955 27.059,19.885 1.505,7.952 0.754,17.354 -3.005,24.222 -4.887,-6.146 -1.129,-15.907 -7.142,-21.691 -9.021,-12.293 -22.551,-17.354 -37.961,-17.354 l -1.504,1.808 c 10.902,2.53 23.302,7.954 28.565,18.076 3.006,7.593 6.014,18.076 1.127,25.308 -3.758,-9.762 -6.013,-23.138 -19.167,-28.561 -22.175,-17.353 -54.497,-11.93 -81.182,-19.161 -21.423,-7.954 -19.919,-38.322 -45.1,-36.515 -32.323,0.361 -64.645,1.084 -90.954,15.546 29.692,-5.422 63.516,-11.93 96.592,-6.868 2.631,1.084 4.885,4.338 2.631,6.868 -28.189,-2.169 -60.887,-4.338 -84.941,8.678 -3.758,3.977 -3.758,9.399 0,13.015 21.422,17.715 49.051,12.554 81.182,14.101 28.187,1.355 67.651,-7.593 98.47,3.253 -51.489,9.039 -111.624,11.932 -166.121,5.422 -12.404,-2.891 -24.054,-7.954 -36.082,-12.291 -3.007,2.53 1.505,4.337 3.007,6.145 21.047,16.991 47.639,15.093 77.424,18.076 48.692,4.876 93.586,-3.615 139.812,-7.592 l 3.759,1.808 c -52.244,17.714 -143.759,15.455 -175.143,10.123 -33.709,-5.728 -67.274,-6.507 -77.422,-39.769 -1.128,-12.653 6.767,-23.138 18.041,-29.646 48.107,-24.946 102.509,-21.511 166.872,-24.222 67.605,-2.849 130.136,2.711 194.686,23.499 z"
         id="path8" />
      <path
         d="m 1344.2,59.797 c 4.885,-6.146 -4.511,-11.568 -5.263,-18.077 19.544,7.592 30.443,32.9 54.873,26.754 5.263,-2.17 3.007,-6.508 1.127,-9.4 -4.508,-5.424 -14.281,-10.485 -15.408,-18.077 l 28.939,13.015 c 6.387,-2.169 -1.128,-6.507 0,-10.483 3.383,0 4.885,3.977 9.019,2.53 4.135,-3.976 0,-8.676 0,-13.015 9.396,3.977 13.908,16.268 24.43,19.883 5.263,-2.89 -3.007,-7.952 0,-11.929 10.524,2.893 22.551,16.63 29.692,26.753 12.778,1.447 27.437,8.315 39.462,0.724 3.758,-8.678 -7.139,-11.569 -7.139,-19.885 6.765,5.061 13.155,7.592 19.167,12.293 1.502,-7.232 -6.39,-13.016 -5.639,-20.969 7.894,-1.085 13.154,13.013 19.168,6.145 l -1.878,-4.338 c 9.019,2.893 13.53,13.016 20.67,18.077 2.256,2.893 5.637,1.085 6.389,-1.446 -1.128,-5.425 -5.261,-11.207 -3.757,-15.907 13.905,4.7 19.543,18.076 32.697,24.584 42.848,1.447 87.573,0.723 123.276,18.8 10.525,5.424 16.162,15.907 19.92,25.308 10.524,-13.737 31.945,-13.737 48.859,-10.485 23.678,5.424 43.975,29.646 70.283,18.438 -4.135,11.932 -15.034,27.477 -29.693,28.561 -26.308,0.361 -46.227,-14.099 -69.529,-20.969 -28.939,1.447 -22.926,41.939 -54.122,42.661 -45.476,7.591 -93.208,0 -139.813,0 -88.322,-4.701 -174.012,-15.184 -261.583,-20.969 -10.147,1.807 -21.05,1.085 -29.692,6.148 75.92,0.722 143.196,27.475 219.115,31.091 69.156,6.869 147.705,40.853 213.854,4.338 10.524,-4.338 17.288,-11.57 28.938,-13.739 11.652,13.739 25.558,29.284 43.224,32.9 0.374,6.508 -8.27,10.122 -7.141,15.546 6.013,-0.723 11.274,-6.145 14.281,-10.122 2.63,5.421 -2.254,11.206 -4.511,15.546 5.262,1.084 11.652,-1.808 15.411,-4.339 0.751,11.569 -9.771,18.8 -19.168,24.224 -1.504,1.084 -3.758,1.446 -5.262,3.613 10.899,2.531 20.295,-3.976 29.691,-7.954 -1.502,20.248 -30.067,23.863 -45.853,33.985 2.257,6.145 11.653,4.7 16.162,2.53 4.509,-5.783 12.778,-7.952 18.791,-4.338 2.255,2.531 6.39,4.338 6.39,7.593 -13.532,3.615 -25.181,10.846 -40.591,10.485 0,1.447 1.505,2.891 2.63,2.531 l 26.309,2.891 c -7.517,5.784 -18.039,13.377 -30.82,10.122 -1.878,-1.444 -4.133,-1.806 -7.141,-1.444 -1.127,10.845 13.531,11.929 20.673,17.352 -4.136,5.062 -13.155,4.702 -19.545,3.255 -6.013,0.363 -12.777,-4.7 -17.287,1.085 l 10.899,8.675 c -8.27,-1.084 -15.787,0.724 -21.8,5.062 l 10.147,10.483 c -12.027,3.979 -22.926,-3.614 -35.327,-3.614 -5.64,-3.615 -12.027,-11.207 -18.795,-6.869 2.631,4.337 7.518,7.952 11.652,12.291 -19.919,5.787 -27.81,-23.138 -48.859,-24.582 -5.263,5.422 5.263,6.507 4.509,12.292 1.88,3.976 4.135,8.678 1.88,13.015 -8.644,7.955 -9.772,-6.508 -19.922,-0.724 -3.005,3.617 -4.131,7.956 -9.77,8.679 -5.637,-1.085 -9.774,-1.447 -11.652,-6.146 -4.509,-8.676 12.778,-18.077 -1.127,-20.969 -15.41,6.508 -3.006,17.353 -12.403,26.03 -3.383,3.617 -8.646,1.085 -12.027,-0.723 -0.376,-2.531 -2.256,-4.338 -1.502,-6.87 6.764,-0.359 13.152,-2.529 16.91,-7.954 -1.127,-1.083 -1.127,-2.531 -2.629,-3.614 -7.14,2.893 -14.658,9.761 -22.551,5.424 -6.014,-4.341 -7.892,-10.122 -10.9,-15.547 4.136,-7.591 13.908,-3.976 19.922,-4.337 3.005,2.168 6.39,3.974 10.899,3.252 l 4.508,-4.337 c -7.14,-8.316 -18.416,-13.737 -29.691,-11.206 -8.643,4.698 -14.281,18.438 -25.555,13.737 -2.256,-2.893 -3.009,-6.146 -2.631,-10.124 5.261,-4.338 11.649,4.338 17.288,-1.084 l 4.509,-5.06 c -3.758,-2.894 -9.771,1.806 -14.658,-1.084 -4.135,-4.341 -8.268,-13.017 -5.259,-18.801 11.272,-6.869 21.422,4.7 32.322,5.784 7.891,5.061 19.167,9.039 28.186,3.615 -0.751,-6.146 -7.518,-8.315 -12.778,-9.399 3.383,-4.338 11.65,-1.807 12.778,-7.954 -3.759,-9.039 -12.402,2.891 -17.287,-3.615 12.4,0 8.268,-19.885 22.55,-13.739 10.146,7.954 16.537,27.839 33.449,26.754 11.653,-1.084 22.175,-6.509 29.691,-15.547 0.754,-5.062 -0.374,-9.761 -2.629,-13.739 -48.108,-32.537 -119.141,-16.991 -169.505,0 -41.342,7.591 -90.202,15.184 -131.92,3.254 l 3.006,-1.447 c 64.645,-1.084 127.786,-6.145 185.665,-22.775 8.269,-1.447 17.29,-0.363 24.431,-4.338 -5.263,-14.463 -21.422,-25.308 -35.329,-31.094 -7.893,5.786 -16.913,-7.591 -25.932,-1.807 3.381,5.062 16.16,7.593 12.403,16.631 -7.517,-9.399 -19.169,-16.631 -31.571,-18.438 l -1.88,1.807 c 5.262,5.784 12.403,9.4 16.539,15.547 -6.014,0.723 -10.148,-7.593 -17.29,-6.146 l -1.88,1.807 c 5.639,3.977 12.403,10.483 14.659,17.353 -2.631,0.724 -7.141,-5.784 -10.899,-3.253 3.384,2.53 4.512,8.678 2.63,13.016 -18.791,7.952 -43.597,3.977 -61.26,-3.617 l -20.673,-16.629 c -3.758,3.977 -0.751,9.398 0.754,13.013 1.878,1.809 3.756,4.338 1.878,6.148 l -3.758,1.808 c -18.791,-1.085 -28.189,-14.102 -43.972,-22.416 -2.631,7.955 11.65,15.184 5.261,21.692 -14.282,-3.978 -27.437,-9.763 -38.713,-20.245 -4.885,7.23 9.022,11.568 10.9,18.438 -10.147,-1.809 -21.046,-6.148 -30.067,-13.016 -1.879,4.701 3.008,9.038 6.39,13.016 1.878,3.977 12.027,2.531 7.141,7.591 -10.149,0.363 -17.663,-6.145 -25.935,-11.206 l -3.756,5.422 -10.899,-12.293 c -3.385,3.254 0,10.486 -6.013,11.209 l -10.149,-18.077 -5.261,11.206 c -7.143,-5.424 -12.78,-14.099 -16.162,-22.415 -3.381,1.809 -4.135,5.062 -3.758,8.678 l 2.63,2.531 c -1.879,1.807 -4.509,5.06 -7.141,2.529 -4.134,-8.315 -10.898,-16.268 -8.269,-26.029 -3.006,0.363 -6.765,5.785 -9.019,9.4 -6.765,-9.762 -12.027,-25.309 -27.813,-24.222 -3.758,-0.363 -6.765,0.36 -9.019,3.613 26.308,33.625 62.011,67.246 105.609,71.946 l 52.244,5.062 c -49.612,6.507 -96.968,-1.807 -131.545,-34.708 -16.537,-32.176 -49.611,-57.123 -85.691,-62.183 -16.537,0 -33.826,-1.084 -48.109,4.337 33.827,1.808 68.779,3.617 92.081,27.477 2.257,13.739 -18.416,15.907 -16.16,29.646 3.381,9.039 6.39,20.968 16.16,24.223 4.135,0.36 8.644,3.254 12.78,1.084 0.373,-1.084 2.254,-4.339 2.631,-2.893 6.387,6.869 10.146,15.909 7.141,25.308 -3.383,3.978 -4.512,10.486 -2.631,15.546 4.509,2.17 2.631,6.869 3.758,10.486 -11.653,3.977 -22.175,2.168 -31.571,-6.148 -3.008,2.17 -2.255,6.869 -1.128,9.763 3.758,2.891 9.02,5.421 10.899,9.399 l -19.919,-6.146 c -3.383,5.422 -4.511,11.57 -6.389,17.353 -8.268,-1.446 -16.913,-9.037 -25.934,-8.678 -3.007,7.232 11.276,9.041 3.381,14.825 -10.522,2.891 -17.287,-11.209 -25.932,-5.062 1.878,3.615 3.759,8.678 1.878,13.016 -9.019,6.146 -31.194,-26.031 -24.428,1.447 -7.141,3.976 -7.894,-6.146 -13.531,-7.593 -5.263,1.447 -5.263,7.593 -3.758,11.209 -9.021,-0.725 -17.663,-13.016 -25.935,-6.146 -1.127,5.421 1.128,9.038 5.263,12.292 -13.155,3.255 -18.791,-9.761 -30.818,-11.207 -3.007,4.337 5.636,6.146 3.757,11.207 -9.396,2.53 -21.046,-16.993 -24.428,0 3.005,1.084 5.636,3.977 4.509,7.592 -6.765,1.807 -14.283,-1.084 -18.793,-5.062 -4.51,-3.978 -6.765,-11.206 -13.529,-12.291 -3.383,3.254 3.005,5.06 0.751,8.675 -6.014,2.893 -11.652,-9.038 -14.283,0 -1.127,5.424 5.263,7.955 4.511,13.017 -16.537,-3.979 -37.959,-10.124 -41.718,-29.285 l -5.263,-5.424 c -7.14,4.339 -0.751,15.548 -5.261,21.692 -2.63,1.808 -6.013,0.725 -9.02,1.085 -4.886,-6.507 -8.269,-15.907 -18.041,-15.546 -4.885,1.084 -9.396,5.422 -14.659,2.529 -10.522,-11.928 22.553,-18.437 4.511,-27.835 -10.522,1.444 -8.643,19.883 -21.423,13.013 -4.509,-9.038 -12.4,-13.376 -21.046,-17.354 0.376,-3.976 7.141,-7.954 12.027,-8.676 16.537,-7.592 45.853,26.03 43.221,-6.868 -10.899,-11.569 -27.813,-3.254 -40.59,-6.869 0,-9.762 2.629,-20.969 7.892,-28.923 19.918,1.446 32.698,15.183 46.23,29.646 7.14,-3.254 4.131,-13.016 3.38,-19.161 l -7.892,-8.678 c 2.63,-4.701 10.148,-1.446 14.283,-4.338 10.146,-0.724 17.663,-14.461 28.187,-6.868 -2.256,7.952 -4.134,16.629 -1.878,25.306 7.891,12.654 21.422,22.776 36.08,26.03 30.066,-1.447 62.014,-1.085 84.563,-18.438 -28.564,-3.254 -65.395,-5.062 -79.303,-34.708 -3.383,-14.1 5.639,-18.8 12.778,-28.56 10.525,-8.315 21.8,-15.184 34.953,-17.354 l 3.007,-2.531 -3.007,-1.808 c -113.127,-9.398 -198.067,52.785 -298.419,76.286 -27.436,5.421 -55.998,15.543 -85.69,7.952 0.751,-5.062 -2.254,-8.316 3.757,-10.485 125.531,-1.447 222.876,-73.754 347.277,-81.707 3.759,-1.084 9.021,-0.722 11.653,-3.253 -26.686,-2.893 -55.625,0.724 -79.304,6.868 0.377,-1.444 -1.128,-2.531 -1.879,-3.615 l -3.758,3.615 -1.878,-4.337 -5.263,4.337 c -0.374,-1.084 0.751,-2.891 -0.751,-3.615 l -4.508,3.615 -3.009,-2.531 c -1.127,1.087 -1.127,2.531 -2.63,3.256 0.75,-1.447 -0.75,-2.17 -1.879,-3.256 l -5.262,5.062 -1.878,-5.062 -7.141,6.146 c 0,-1.806 -0.754,-5.421 -2.631,-3.615 -4.512,2.531 -1.88,10.486 -9.021,8.678 0.377,-2.168 2.631,-3.977 1.88,-6.868 -5.64,1.083 -7.14,7.591 -12.027,11.206 1.502,-2.53 1.502,-6.869 0,-9.4 -6.013,2.894 -5.639,11.57 -12.403,13.739 l -1.127,-7.954 c -4.886,4.337 -6.014,11.209 -12.404,14.1 0.752,-2.891 2.631,-9.038 -1.128,-13.015 -7.141,5.421 -6.764,13.376 -15.032,17.353 0,-4.7 3.757,-9.761 0,-14.101 -7.894,3.979 -4.886,14.825 -13.531,18.441 0.751,-6.509 -1.128,-12.655 -6.391,-15.546 -0.75,7.952 -1.127,19.16 -10.148,20.606 1.505,-6.506 -1.127,-13.376 -5.259,-16.268 -3.759,6.869 -3.009,16.268 -10.9,20.607 1.879,-5.784 1.128,-12.653 -2.63,-17.353 -6.014,8.315 -4.886,22.054 -18.041,25.309 2.631,-5.062 6.39,-14.461 3.759,-22.778 l -3.008,-2.531 c -4.884,8.678 -6.389,21.331 -18.038,24.222 3.381,-6.145 5.259,-15.544 1.878,-22.414 -4.509,7.591 -7.894,19.522 -18.04,23.5 -1.504,-7.232 3.383,-15.547 -0.754,-22.778 -5.259,9.4 -10.898,19.162 -19.918,26.031 4.511,-7.593 3.383,-19.524 0.751,-27.478 -4.886,6.146 -7.515,15.184 -14.282,21.693 -2.255,3.615 -2.255,7.591 -7.141,8.675 l 0.751,-27.113 h -1.879 c -6.39,7.592 -8.644,17.714 -15.032,24.223 h -3.007 c 3.007,-7.593 9.771,-18.079 1.88,-26.031 -7.143,2.531 -4.512,11.569 -9.022,16.63 -2.254,3.617 -6.763,7.955 -9.771,9.402 0.751,-7.232 2.63,-15.909 -1.879,-23.139 -5.639,7.955 -6.765,14.46 -9.771,23.139 -3.384,-6.148 -13.154,-8.316 -19.168,-7.593 1.878,-4.339 8.269,-5.785 11.652,-9.761 3.758,-5.785 8.268,-12.293 5.636,-19.884 -6.014,-4.701 -13.154,2.168 -19.168,-2.532 -1.127,-3.253 5.639,-3.976 8.269,-6.146 l -0.751,-0.723 c 6.39,-3.254 10.147,-8.678 15.032,-13.015 -6.764,-4.338 -16.911,-6.508 -20.669,-13.016 141.314,4.339 281.127,-10.485 422.069,-14.099 66.149,-5.425 131.92,-12.293 196.939,-20.609 l 1.505,-1.807 c -20.295,-3.253 -43.222,-1.446 -63.143,1.807 -175.14,19.162 -355.919,27.839 -539.329,26.031 -2.631,-0.723 -5.356,1.537 -7.894,-1.808 -0.374,-4.698 7.894,-5.422 12.403,-6.145 200.699,4.7 396.136,-8.678 587.438,-28.561 71.411,-5.061 151.843,-9.039 223.628,0 68.027,3.615 133.422,13.739 202.954,14.823 18.04,-1.084 35.705,-3.615 51.49,-11.208 5.263,-4.701 8.268,-12.292 4.509,-18.439 -9.772,-10.845 -23.678,-11.206 -37.208,-13.013 l -69.53,-3.255 -271.356,-1.806 -311.948,8.675 c -9.772,1.447 -21.048,4.338 -30.821,0.723 54.875,-18.438 119.141,-0.36 178.525,-8.676 64.27,-2.531 127.035,-9.038 193.183,-7.591 l 275.115,0.723 c 28.939,3.976 64.644,-1.085 81.181,26.752 3.758,-3.615 0.752,-9.037 -1.128,-13.015 -22.174,-23.499 -54.872,-22.415 -86.443,-24.223 l -351.035,1.084 c -43.972,6.508 -89.825,1.085 -134.176,7.593 -3.757,-1.446 -15.784,0.361 -10.147,-7.593 21.423,-17.714 52.617,-13.375 81.182,-14.099 0,-3.977 -3.007,-10.123 -7.142,-11.93 0,-1.084 0.376,-2.17 -0.751,-2.893 9.021,-0.723 15.41,4.338 21.422,7.955 4.136,-1.808 1.505,-4.339 1.128,-6.87 -3.006,-2.531 -7.891,-4.7 -10.147,-8.676 7.141,-3.615 11.65,2.893 17.288,4.338 2.256,-2.893 0,-6.507 -1.878,-8.676 10.148,-2.531 18.79,10.122 27.06,14.823 0.376,-2.893 -0.376,-6.87 -2.631,-9.762 4.511,-4.338 9.397,0.723 13.53,2.531 12.027,8.315 20.297,24.584 36.834,21.692 4.133,0.361 6.764,-3.254 10.146,-5.062 -2.254,-3.253 -7.141,-6.868 -6.387,-12.292 6.764,-0.723 11.274,4.338 17.29,6.146 0,-7.231 -6.39,-13.739 -13.531,-19.161 l 10.522,-0.724 v -8.676 c 13.531,7.592 22.926,19.161 36.082,26.753 z"
         id="path10" />
    </g>
    <path
       d="m 138.5,52.926 c -1.501,1.809 -5.636,3.979 -8.268,1.809 0.377,-6.146 -0.377,-11.931 -2.632,-17.354 6.768,2.531 9.772,8.676 10.899,15.545 z m 867.44,0 c 4.509,0.364 9.019,-0.722 12.778,1.085 -6.013,5.785 -18.417,2.894 -27.059,2.531 C 947.684,39.551 893.564,46.057 844.705,40.996 900.703,37.019 955.579,38.466 1005.94,52.925 Z M 498.181,65.943 c -2.632,-9.038 3.758,-17.714 11.65,-24.223 -0.751,9.4 -2.632,19.162 -11.65,24.223 z m 45.1,1.807 -5.261,-0.723 c -3.008,-7.592 4.131,-15.184 10.899,-18.438 l 5.259,-2.531 C 550.797,51.48 546.663,60.519 543.28,67.75 Z M 183.602,54.736 c -1.505,3.615 -0.751,11.207 -7.518,9.399 h -3.383 c -1.88,-4.338 4.134,-3.253 4.509,-6.868 1.505,-3.617 -3.381,-6.87 0.751,-9.4 3.385,1.446 4.889,3.254 5.64,6.869 z"
       class="N O"
       id="path14" />
    <path
       d="m 1124.33,47.867 c 3.758,12.292 -13.155,18.438 -19.919,24.946 h -5.263 c 4.136,-10.846 20.296,-13.739 25.182,-24.946 z"
       class="L M"
       id="path16" />
    <path
       d="m 879.658,80.765 c -9.396,7.593 -23.865,2.894 -32.322,0 -14.562,-7.5 -29.597,-26.029 -22.55,-31.091 7.988,-1.266 8.379,12.363 15.409,18.801 15.598,14.279 30.067,14.099 39.463,12.291 z M 597.403,50.397 c -10.525,9.4 -21.047,19.162 -28.941,30.368 -5.637,1.447 -4.511,-5.784 -3.383,-8.675 7.143,-11.57 20.67,-16.269 32.323,-21.693 z M 472.247,70.282 c -1.129,1.084 -2.256,2.531 -3.758,1.808 -3.383,-5.062 -1.88,-12.654 0.751,-17.354 2.632,4.7 5.263,10.122 3.007,15.546 z m -21.046,23.5 c -6.39,0 -9.774,-5.785 -10.524,-11.209 v -4.338 c 3.757,5.785 15.033,5.785 10.524,15.547 z m 146.202,11.207 c -1.88,1.807 -4.885,3.977 -7.143,1.807 -6.387,-9.039 10.526,-16.63 12.781,-26.032 3.005,9.039 -1.504,17.715 -5.637,24.224 z m -87.572,2.53 c 2.255,-7.231 3.383,-14.823 3.007,-23.139 5.637,14.463 1.879,32.901 -7.518,43.385 2.632,-10.485 -14.656,-8.678 -21.422,-14.1 -5.262,-4.7 -13.908,-6.146 -15.41,-13.737 7.142,6.868 14.283,-2.894 22.551,1.806 -1.88,-6.869 -10.899,-13.015 -18.793,-14.099 l -7.517,1.084 c 0.751,-3.615 5.637,-4.339 8.268,-6.146 17.666,-0.723 23.679,16.991 36.833,24.946 z"
       class="N O"
       id="path18" />
    <path
       d="m 998.802,95.589 -27.063,6.145 -15.408,-16.63 c 15.784,-0.361 30.066,2.893 42.47,10.485 z"
       class="L M"
       id="path20" />
    <path
       d="m 112.945,88.72 c 3.006,3.615 -0.377,8.315 -3.385,10.123 -4.509,2.531 -9.019,0 -10.899,-3.254 v -3.615 c 5.263,5.424 9.772,-1.807 14.284,-3.254 z"
       class="N O"
       id="path22" />
    <path
       d="m 82.501,93.782 c -1.128,9.761 -14.282,2.167 -19.921,6.868 1.505,-4.701 3.478,-9.309 13.531,-11.206 3.006,-0.363 6.39,1.084 6.39,4.338 z"
       class="L M"
       id="path24" />
    <path
       d="m 530.878,114.75 c 13.906,-0.723 38.712,-6.508 49.612,6.869 -7.894,-1.085 -20.297,-5.785 -25.558,0.724 6.014,1.807 12.027,5.061 16.537,7.952 -10.899,3.255 -25.181,8.676 -35.329,0 -3.383,-1.084 -5.262,-6.508 -9.771,-4.338 -4.512,1.808 -1.88,8.678 -8.27,7.593 6.39,-14.463 10.526,-32.539 25.182,-41.577 -4.134,7.591 -11.275,14.1 -12.403,22.776 z m -84.186,-11.569 c 0.75,2.531 -0.754,4.338 -1.505,6.145 -3.759,-2.168 -10.149,-7.952 -10.149,-13.013 4.136,1.806 9.397,3.252 11.654,6.868 z m -255.198,6.145 c -3.007,6.87 -7.892,16.269 -18.041,16.631 1.88,-8.315 8.644,-18.438 17.29,-19.884 z"
       class="N O"
       id="path26" />
    <path
       d="m 493.4,105.233 c -4.058,2.168 -1.352,6.941 -2.255,10.413 -1.804,-1.303 -4.509,-4.339 -3.157,-7.376 1.804,-1.302 2.706,-4.338 5.412,-3.037 z m -356.778,14.579 c 5.637,8.676 1.505,20.245 -3.758,27.837 h -1.878 c -3.761,-9.399 -1.881,-22.776 -15.034,-26.03 -2.633,-1.807 -8.269,-1.807 -7.518,-5.422 9.771,-2.17 20.295,-3.977 28.188,3.615 z"
       class="L M"
       id="path28" />
    <path
       d="m 1793.7,122.343 c 1.88,-1.809 -1.502,-3.977 -1.878,-6.146 13.905,1.806 27.436,15.907 43.972,13.015 -4.509,7.231 -13.531,10.846 -22.551,7.955 -25.557,-2.531 -45.852,-27.84 -73.664,-14.823 2.255,-3.977 6.39,-6.87 11.65,-8.678 15.785,-1.084 28.563,4.701 42.47,8.678 z m -67.65,6.868 c -0.376,9.399 -5.637,16.993 -12.778,23.499 -14.281,11.93 -33.826,11.569 -52.241,13.016 l -105.612,-5.062 -189.423,-15.546 c -0.751,-1.808 -2.255,-0.723 -3.759,-1.084 25.558,-5.424 49.612,3.254 75.169,2.531 78.55,1.446 152.591,15.546 232.645,11.568 16.537,-3.254 36.456,-2.168 45.1,-20.967 1.127,-6.146 5.262,-14.463 0,-19.885 5.262,1.807 9.021,7.231 10.899,11.93 z M 209.533,122.343 c 2.631,7.952 -5.261,11.568 -10.899,14.099 l -7.891,1.446 c 5.636,-4.7 10.147,-14.823 16.912,-18.076 z"
       class="N O"
       id="path30" />
    <path
       d="m 547.746,120.898 c -2.444,2.35 -5.375,8.46 -2.444,12.69 -2.441,-1.41 -4.396,-5.64 -3.418,-9.4 1.952,-0.939 2.93,-4.23 5.862,-3.289 z"
       class="L M"
       id="path32" />
    <path
       d="m 228.702,136.442 c 1.505,9.039 -9.77,10.123 -15.409,13.737 -4.511,-8.313 7.141,-13.013 10.899,-18.076 1.88,1.084 3.758,1.447 4.509,4.338 z m 376.97,0.724 c -5.637,5.784 -13.908,7.23 -21.8,5.06 l -0.752,-0.723 c 5.262,-2.893 14.283,-9.399 22.552,-4.337 z"
       class="N O"
       id="path34" />
    <path
       d="m 118.583,140.781 c -0.847,9.308 -8.646,15.183 -17.29,15.545 8.644,-3.976 1.505,-29.646 17.29,-15.544 z"
       class="L M"
       id="path36" />
    <path
       d="m 458.718,145.841 c 0.751,4.701 -5.639,5.062 -8.268,6.869 h -2.632 c -1.505,-4.338 4.885,-7.954 7.141,-11.929 2.632,0.36 4.509,2.168 3.758,5.06 z m 138.685,2.531 c -4.134,8.676 -15.034,5.422 -23.302,6.148 3.758,-7.232 14.659,-5.785 23.302,-6.148 z m 877.587,44.47 c -13.905,8.675 -32.322,1.444 -48.482,2.529 -60.51,-3.976 -110.499,-34.345 -173.264,-30.367 19.544,-9.399 42.097,-0.724 63.142,-1.084 51.49,12.654 103.356,25.308 158.604,28.923 z M 574.101,178.018 v 1.807 c -5.263,-1.083 -8.646,-5.061 -10.9,-9.761 7.141,-3.977 9.396,2.893 10.9,7.954 z m -13.531,-6.869 c -1.504,4.7 2.63,8.676 0,13.016 l -9.02,-10.485 c 1.502,-2.168 5.261,-3.253 9.02,-2.531 z"
       class="N O"
       id="path38" />
    <path
       d="m 498.181,180.548 c -4.886,16.632 -15.222,40.221 -23.868,55.407 0,0 3.289,-30.279 15.507,-58.297 2.628,-1.084 7.609,1.084 8.361,2.89 z"
       class="L M"
       id="path40" />
    <path
       d="m 1740.33,200.433 c 7.519,13.376 -2.254,26.031 -5.259,38.322 -3.758,1.085 -7.517,4.701 -10.899,3.254 9.019,-10.122 12.777,-26.029 7.141,-39.045 l -4.509,-3.253 c -19.17,6.145 -39.84,12.653 -61.265,11.206 21.048,-4.7 39.465,-14.46 59.385,-21.691 8.643,-0.724 11.275,5.784 15.408,11.206 z m -602.47,-0.722 c 7.141,2.529 15.034,4.7 19.92,11.206 0.374,6.869 -7.517,7.954 -12.027,10.485 -10.148,1.084 -18.04,-9.399 -27.811,-4.337 -1.505,6.144 6.763,3.253 8.268,6.868 l 5.262,5.062 -32.324,-7.593 v 2.531 c 9.398,5.422 21.425,10.123 27.063,19.161 -8.268,-2.17 -16.162,-10.122 -24.431,-6.146 l 19.922,14.824 c -12.78,6.868 -26.311,18.8 -42.471,16.269 -7.141,-1.446 -16.535,-2.531 -19.167,-9.4 3.005,-2.168 6.39,2.168 9.019,0.723 -8.646,-11.929 -24.431,-14.823 -37.585,-19.885 7.143,-5.421 16.913,2.531 25.935,2.531 -3.758,-6.506 -16.162,-7.952 -22.55,-13.013 8.268,-3.617 14.281,4.698 21.796,1.807 -10.898,-7.593 -26.684,-7.232 -38.709,-13.737 v -2.531 c 24.053,-28.2 66.899,-16.632 96.215,-7.955 7.892,-2.168 16.913,-1.808 23.678,-6.868 z m 451.76,43.383 c -10.899,5.785 -9.019,-10.122 -16.159,-14.099 7.891,0.723 13.154,7.592 16.159,14.099 z"
       class="N O"
       id="path42" />
  </g>
  <path
     d="m 667.08461,105.9825 c 0,0.96404 0.15679,1.92675 -0.7831,2.40788 -2.66496,-1.12338 -2.97811,-4.49353 -4.85872,-6.57918 2.19376,0.48113 4.85872,1.60408 5.64182,4.1713 z"
     class="N"
     id="path46"
     style="stroke-width:0.430208" />
  <g
     class="K"
     id="g56"
     transform="matrix(0.41698623,0,0,0.44384934,-0.31019833,-0.30965522)">
    <path
       d="m 1614.05,238.755 c 0,2.17 0.377,5.785 -2.63,6.148 -6.765,-2.531 -6.765,-10.485 -11.652,-14.823 5.636,1.084 10.147,3.977 14.282,8.675 z"
       class="N O"
       id="path48" />
    <path
       d="m 889.807,249.241 c 1.502,3.253 -2.631,3.615 -4.509,4.337 -12.778,1.809 -9.397,-13.376 -19.922,-14.823 9.772,-2.893 20.295,2.895 24.431,10.486 z m -507.762,-9.763 c -24.429,12.294 -49.985,24.586 -72.161,40.132 -0.378,0.723 0.75,1.807 1.502,1.446 30.819,-14.823 60.511,-27.115 95.839,-31.814 6.765,5.062 5.639,14.461 4.512,21.691 l -9.022,8.678 c 6.014,2.891 13.156,5.785 20.673,3.254 5.262,-1.447 8.269,-8.676 15.409,-6.148 3.758,4.701 6.014,10.847 7.894,14.825 -3.759,0.723 -7.143,-5.424 -10.525,-0.724 l 4.511,6.868 c -6.391,0.725 -13.908,-5.06 -19.921,-1.806 0.376,5.784 6.767,7.952 10.9,10.483 -7.892,9.039 -24.805,1.446 -36.082,0 -3.758,2.893 0.75,6.87 2.63,9.402 -8.644,2.53 -18.039,-3.978 -25.181,-1.447 0.376,5.421 7.518,5.421 9.774,8.675 -10.9,0 -24.054,0 -34.202,-3.613 -3.758,1.444 -0.754,4.698 0.751,6.145 1.502,2.53 4.134,2.168 6.389,3.253 v 1.808 c -13.905,2.531 -24.803,-6.508 -37.959,-0.724 0,4.339 5.262,3.255 7.14,6.146 19.922,1.084 36.458,9.4 52.619,18.801 -17.29,0.722 -34.202,-5.425 -48.108,-15.547 -3.759,1.084 -10.522,-2.53 -11.652,3.615 l 10.147,13.015 c -13.529,3.979 -20.295,-21.331 -33.449,-12.291 -0.754,6.144 4.134,9.4 7.892,12.291 -22.551,7.232 -28.187,-31.814 -49.611,-16.63 7.517,4.339 10.899,8.315 16.538,14.824 1.879,3.976 -5.262,5.422 -8.268,3.613 -7.141,-3.613 -7.894,-14.46 -17.29,-14.822 -3.758,2.893 0.751,11.931 -7.141,10.483 -7.14,-5.062 -13.154,-10.122 -16.912,-19.16 -2.255,-0.724 -4.509,0.722 -4.509,2.531 -2.255,5.422 3.758,7.592 1.502,13.013 -6.012,3.979 -7.142,-4.337 -11.652,-5.06 3.008,-8.678 -1.127,-16.993 -3.381,-24.585 -5.639,-4.7 -8.646,-9.399 -15.409,-11.206 -8.644,8.675 6.387,16.63 9.019,25.306 0.377,7.592 -1.878,14.461 -7.141,19.885 h -3.006 c 3.006,-4.702 5.259,-10.847 5.637,-17.354 -2.631,-2.171 -5.263,-5.061 -9.02,-6.146 -3.761,4.701 3.757,8.316 0,13.016 -5.639,-0.363 -12.403,-8.679 -20.671,-4.339 -3.758,3.255 -8.27,4.339 -12.78,6.146 2.63,-3.615 5.636,-9.038 1.878,-13.016 -3.006,-5.062 -8.269,-1.444 -11.652,0 -7.514,6.869 -17.663,9.762 -23.676,18.078 -14.657,1.084 -4.135,-19.522 -18.791,-20.609 -0.754,-2.891 -4.886,-3.976 -4.512,-6.869 0,-4.698 3.758,-6.144 7.141,-8.675 15.785,-3.615 28.189,6.146 42.47,1.447 1.505,-1.085 0.377,-3.256 0.751,-5.062 -2.629,-6.148 -7.892,0.722 -11.65,-2.531 -13.529,-3.617 -27.813,-5.424 -41.342,-1.085 -6.012,-11.206 6.013,-20.245 7.142,-31.091 h 10.899 c 12.778,8.315 25.932,16.991 41.342,19.885 l 3.758,-3.254 c -4.509,-15.909 -24.807,-6.508 -30.068,-20.247 -1.502,-12.654 15.41,-11.207 15.41,-23.138 2.631,-2.894 6.765,-3.254 10.149,-1.807 6.763,5.06 7.514,12.654 11.65,19.161 21.798,24.584 61.261,9.399 89.074,19.884 51.489,2.891 86.445,-33.261 130.793,-47.001 h 3.006 z m -258.953,9.763 c -0.378,2.531 1.127,6.507 -2.632,6.868 -8.269,-1.447 -9.772,-10.122 -14.659,-14.823 6.767,0.723 13.531,2.17 17.29,7.955 z"
       class="L M"
       id="path50" />
    <path
       d="m 1672.68,252.494 c 7.894,6.869 10.9,16.994 8.27,27.116 -4.512,8.316 -9.397,20.245 -22.551,18.801 h -3.007 c 6.014,-3.978 12.404,-8.678 13.532,-15.547 1.878,-8.316 -1.88,-14.823 -7.143,-20.608 -8.642,-9.399 -20.295,-13.015 -31.569,-14.822 13.904,-2.894 31.194,-2.894 42.468,5.06 z m 70.28,23.5 c 0.754,7.954 -9.771,8.315 -7.14,17.354 -11.275,3.978 -6.39,19.885 -21.8,19.885 5.637,6.868 -6.014,9.399 -10.522,10.483 -9.021,-0.724 -19.545,2.17 -25.558,-6.146 4.509,-1.806 11.65,-2.531 14.659,-7.591 l -1.878,-1.808 c 4.509,-4.701 13.904,-1.447 18.79,-6.146 -1.127,-2.17 -3.383,-1.808 -5.263,-1.808 3.758,-6.868 14.659,-3.976 17.29,-11.93 l -5.637,-2.891 c 3.757,-6.509 15.41,-4.701 11.652,-14.463 l -5.263,-3.615 c 7.141,-5.061 13.154,-11.929 17.289,-19.16 12.027,8.315 -6.39,20.244 3.381,27.837 z M 152.783,261.171 c 0.752,2.531 3.758,6.508 0,8.676 -1.879,0.363 -3.758,3.255 -5.261,1.084 -4.886,-3.253 -1.881,-9.761 -8.269,-11.569 -0.754,-10.122 12.402,-2.891 13.53,1.808 z m 895.627,19.884 c -24.054,1.808 -48.482,-8.676 -65.772,-24.223 23.679,4.339 42.847,18.8 65.772,24.223 z m -132.669,-14.46 c -1.505,5.424 0.374,12.653 -6.015,15.544 -2.255,-1.807 -4.133,-7.592 -4.511,-10.483 0.754,-3.977 1.129,-9.4 5.263,-11.209 4.134,-0.359 4.509,3.255 5.263,6.148 z"
       class="N O"
       id="path52" />
    <path
       d="m 616.571,271.656 c 0.751,13.015 -14.659,16.993 -22.552,24.223 -6.389,0.722 -10.522,-5.785 -16.537,-3.254 -1.127,3.976 3.383,13.376 -4.508,14.46 -11.277,1.809 -23.304,-10.122 -31.572,-0.723 -6.013,1.085 -12.777,-1.084 -14.282,-6.868 0.751,-4.338 1.128,-9.4 5.263,-11.209 18.415,2.531 42.469,7.955 54.12,-8.676 2.629,-6.146 3.383,-13.737 10.147,-17.354 8.644,-1.808 13.906,3.977 19.92,9.4 z m 960.649,-1.808 c 1.128,1.808 -2.256,5.425 -3.758,7.954 -4.136,-0.723 -7.894,-6.507 -11.653,-9.761 3.758,-3.615 10.902,-0.361 15.411,1.807 z"
       class="L M"
       id="path54" />
  </g>
  <g
     class="N"
     id="g62"
     transform="matrix(0.41698623,0,0,0.44384934,-0.31019833,-0.30965522)">
    <path
       d="m 1186.35,285.394 c -3.383,8.675 -13.155,14.46 -21.424,14.822 9.397,-9.038 18.415,-19.884 19.919,-32.9 4.512,3.615 2.255,12.654 1.505,18.078 z"
       id="path58" />
    <path
       d="m 858.986,280.332 v 1.807 c -4.884,-8.676 -27.436,3.615 -16.911,-12.292 6.764,1.084 13.154,4.339 16.911,10.485 z"
       class="K O"
       id="path60" />
  </g>
  <path
     d="m 342.51712,122.99214 c 0.1572,5.93737 -7.52243,0.96315 -9.87341,4.9751 -0.15719,-3.20991 3.91801,-5.61602 6.89571,-6.90052 1.72424,-0.64092 2.19418,0.80292 2.9777,1.92542 z m -309.209471,4.9751 c 0.157204,1.28317 -0.157204,2.7279 -1.567035,3.04881 -2.507755,-0.64225 -5.640989,-1.92542 -8.149162,-0.32091 1.723405,-2.88857 8.305533,-9.62842 9.716197,-2.7279 z"
     class="L M K"
     id="path64" />
  <path
     d="m 479.80358,131.01605 v 1.12338 c -12.69473,11.87386 -29.93419,15.24401 -47.48681,16.68785 l -5.9554,-1.28317 c 1.72425,-1.92586 0,-5.61603 2.66454,-6.90053 5.48505,1.76564 14.10499,3.69105 18.02257,-1.44384 4.07437,-1.12338 10.65692,2.56723 12.38074,-3.20992 3.60443,-2.56722 7.36648,1.92542 10.9709,-0.64181 l 0.31316,-4.33241 c 3.44807,1.12338 6.58213,-2.24676 9.0903,0 z m -381.76966,5.77714 -0.47036,2.72701 c -1.411081,-2.88813 -6.111767,-5.7767 -2.978116,-9.30708 2.978116,0.80293 3.134486,3.69105 3.448476,6.58007 z m 7.52243,-2.72878 -0.47078,4.6542 c -2.35055,-1.92542 -4.38836,-3.37015 -4.07437,-7.22143 2.03698,-3.20947 4.38837,0.64225 4.54515,2.56723 z m 7.05166,0.48113 -0.31316,3.85083 c -2.50734,-1.60362 -3.29086,-4.33241 -4.54474,-6.89919 2.19461,-3.0488 4.23158,0.96226 4.8579,3.04836 z"
     class="N O K"
     id="path66" />
  <path
     d="m 209.30461,133.7435 c 5.79903,0.80204 12.06717,2.56723 13.63503,8.8255 0.15679,1.60541 -1.56744,1.44429 -2.35054,1.92498 -6.26897,1.12382 -10.9705,-5.29424 -16.92631,-1.92498 0.31441,3.69105 6.1126,2.08654 4.85872,5.7767 -4.23116,0.80293 -8.61952,-4.01107 -12.69431,-1.12294 0.94031,1.92587 2.1946,3.85173 4.54473,4.17219 -9.08946,4.9751 -12.69472,-8.98573 -20.68669,-4.97422 0.15679,4.17174 7.20886,4.17174 5.17189,8.82594 -7.83559,6.25783 -11.59764,-8.18369 -18.80734,-3.85172 -0.15678,2.4061 2.82175,2.72789 3.44807,4.65376 -5.32826,-0.32091 -9.55983,-5.29601 -15.51523,-5.29601 18.02298,-3.20904 34.63529,-9.3062 49.367,-20.54002 2.9777,-1.28317 4.07479,3.0488 5.9554,3.53082 z"
     class="K L M"
     id="path68" />
  <path
     d="m 43.494622,130.69514 c 1.253878,3.04836 -1.88019,2.72746 -3.760798,3.8504 h -2.351802 c -0.783101,-1.12294 0,-2.24632 0.783934,-3.04836 1.723821,1.92542 3.604429,-0.64225 5.328249,-0.80204 z m 346.352108,12.35544 c -1.88019,3.20992 -5.0151,3.20992 -8.30554,3.0488 2.97728,-3.20903 6.7385,-7.38077 7.52243,-12.03497 2.50776,2.56766 1.72383,5.93692 0.78311,8.98572 z"
     class="N O K"
     id="path70" />
  <path
     d="m 634.80153,138.71861 c -0.31356,3.52949 -5.48544,1.12338 -7.52201,3.52949 h -0.78393 c -0.62757,-3.04836 3.44764,-4.97378 5.64182,-6.25828 1.72383,-0.48113 2.1946,1.76563 2.66454,2.72879 z"
     class="K L M"
     id="path72" />
  <path
     d="m 404.89159,139.84199 c 0,3.04836 -1.0971,5.29468 -3.29127,6.57874 h -1.56621 c 0.46995,-3.0488 2.19294,-5.61603 1.56621,-9.14641 2.3518,-1.92586 2.3518,1.44429 3.29127,2.56767 z m -7.05207,2.40611 c 0,3.3697 -3.13491,6.09715 -5.64225,7.70256 h -2.66412 c 1.09626,-2.40655 3.13449,-4.01151 4.54473,-6.57918 l 1.41067,-6.09716 c 2.50733,0.15979 1.56745,3.20903 2.35055,4.97378 z m -45.13543,1.92631 c -0.78309,0.80159 -1.88019,1.60451 -2.66453,0.80159 -2.50777,-2.24633 1.72423,-3.69017 0.78392,-6.25739 2.19377,0.80159 1.72341,3.36926 1.88019,5.4558 z"
     class="N O K"
     id="path74" />
  <path
     d="m 342.8307,146.9023 c 0.78352,3.04836 -7.05207,6.09716 -7.05207,6.09716 0.15594,-3.20992 0.65967,-4.98975 2.57905,-7.95866 1.25387,-1.76519 5.25654,-0.54682 4.47302,1.8615 z"
     class="K L M"
     id="path76" />
  <path
     d="m 53.994753,146.9023 c -0.627147,2.40611 -3.604429,3.8504 -5.954981,4.49265 -0.47036,-0.96316 -1.724654,-1.60541 -1.25346,-3.04925 2.506505,-0.16023 4.543899,-2.72745 7.208441,-1.4434 z m 318.612927,5.29557 c -0.47036,1.76475 0.94072,4.49309 -1.09626,4.97422 -2.3518,-1.92542 -3.60526,-5.4558 -3.13532,-8.34481 3.13532,-2.0861 3.44806,1.60451 4.23158,3.37015 z"
     class="N O K"
     id="path78" />
  <path
     d="m 39.263046,151.39495 v 1.28405 c -2.507338,0.96316 -5.171463,2.08521 -7.052488,3.85039 -0.469944,-3.20903 2.194182,-5.29423 4.54515,-7.38076 1.567034,-0.16024 2.194182,0.96315 2.507338,2.24632 z"
     class="K L M"
     id="path80" />
  <path
     d="m 672.72643,159.57864 v 0.3209 c -1.40982,-0.96182 -3.7608,-2.40744 -3.44764,-4.65287 0.62632,-0.32179 0.93989,-1.44517 1.88019,-1.12338 -0.62756,1.76474 1.09668,3.69105 1.56703,5.45579 z"
     class="K N O"
     id="path82" />
  <path
     d="m 71.234215,155.24667 c 0.156787,4.33241 -2.664542,7.70212 -5.171881,10.42957 h -1.09709 c 5.799028,-2.56767 -2.664543,-13.79972 6.268971,-10.42957 z m 576.260375,2.40611 c -1.88019,2.08654 -5.48503,2.08654 -8.30511,3.0488 -0.47078,-1.28273 0.46995,-3.0488 1.25304,-4.17219 1.41109,-1.12338 3.29128,-2.88768 5.17188,-1.60451 0.62757,0.96315 1.0971,1.92675 1.88019,2.7279 z m -282.88012,1.12338 c 0.78394,2.7279 -1.72382,4.81355 -3.76121,5.7767 l -2.97812,0.80292 c 0.62714,-2.08653 0.85649,-6.6746 3.44847,-8.18369 1.56704,-0.3209 2.82092,0.48069 3.29086,1.60407 z m 315.94713,4.17263 c 0.31316,1.76474 -0.1572,3.04924 -1.09708,4.33241 0.15595,-2.40611 -5.17188,-4.33241 -1.09709,-6.57918 1.41065,0 1.56703,1.44429 2.19459,2.24677 z"
     class="L M K"
     id="path84" />
  <path
     d="M -0.30477751,489.12747 H 800.0782 v 41.76179 H -0.30477751 Z"
     stroke="#ffffff"
     fill="#ffffff"
     class="K"
     id="path86" />
  <path
     d="m 304.51925,290.56702 c -0.47703,-2.88059 0.63131,-6.79622 -0.1989,-8.05187 L 293.9695,256.45364 c -6.36988,1.48379 -7.56455,-6.99151 -2.22337,-9.34791 l 56.12759,-11.33014 35.51306,-20.85027 c -0.79645,-1.86372 -2.42895,-5.93204 -2.23005,-5.93204 3.18495,-2.01375 6.66845,-3.4962 10.94798,-3.70792 l 1.59288,4.97866 c 0,0 2.1896,-0.42344 2.28926,-0.3178 -0.0996,0.10608 -0.71805,-5.6391 -0.69679,-6.25029 3.68282,-1.27162 9.63489,-0.95338 13.13799,-0.10607 0,0 -0.59754,6.25028 -0.69637,6.25028 0.60671,0.2024 2.08952,0.42343 2.08952,0.42343 0.0996,0 1.27473,-4.87302 1.2939,-4.97866 3.68242,0 8.85888,1.8007 11.94374,3.6014 l -1.2939,3.07232 c 0,0 15.9247,5.19082 15.7258,5.40254 l 80.54547,-17.04027 c 2.16292,-0.43985 3.40178,0.3036 3.95471,2.52639 0.89527,3.60184 -3.78249,6.03858 -10.84874,7.30976 -7.56455,25.53154 -18.83026,52.01737 -31.25228,76.59552 11.34661,13.13662 70.4665,44.2833 70.4665,44.2833 h 58.72209 c 2.98646,0 7.21219,3.53393 7.21219,7.60181 1.75176,0.67775 3.82168,0.33954 4.9367,2.54237 0.47787,4.57742 -4.45883,3.56011 -6.52916,6.10248 -2.38934,4.74564 -6.52917,9.15306 -9.55524,13.39049 v 2.88236 c 3.02607,0.84775 7.6446,-0.5091 8.75879,3.22057 0,1.35551 -0.15971,2.71236 -1.43318,3.55967 -1.11502,0.16911 -2.86595,-0.50865 -3.02566,1.3564 0.95532,3.22058 -1.75176,4.91519 -3.18494,7.28846 -4.34582,0.78827 -3.02565,4.91607 -3.02565,4.91607 0.47787,4.91563 1.3477,10.61999 0.0734,15.36562 l -5.32908,0.0586 -0.0459,-18.49298 c -0.19891,0 -2.58824,0.16999 -4.18029,0 l -0.0734,18.49298 -7.16591,7.62755 c -1.59246,12.37452 4.29913,29.66378 -8.12205,35.42761 -3.02482,1.18597 -5.54008,1.16955 -8.75838,-1.52595 -2.3885,-2.37326 -3.50352,-6.27159 -1.91105,-9.49217 1.43276,-3.22145 5.09599,-4.40742 8.44022,-4.74652 -0.47829,-2.71236 -3.66323,-1.69461 -5.41498,-2.54237 l 0.47827,-3.56011 c 6.68805,-12.03409 14.52489,-26.12054 17.55096,-39.68058 h -3.58358 c -2.38808,10.50991 -7.20594,20.82807 -12.93867,29.98114 1.75177,-8.30531 2.7075,-19.97988 1.59248,-29.98114 0.19931,0 -3.58234,0 -3.38344,0 2.98563,38.3508 -14.33223,63.56455 -37.13887,76.9719 0,0 -4.66399,1.74213 -14.0195,1.74213 h -60.21489 l -4.67775,-13.13618 h 68.67471 c 13.33689,0 42.9967,-24.36688 33.44187,-65.57785 0.19891,0 -2.0303,0 -2.98561,0 8.16126,38.3508 -18.51294,61.86994 -33.44188,61.86994 h -62.90238 c -2.28925,-1.80115 0.99535,-3.81444 0.39781,-7.94579 h 60.71277 c 10.35086,0 32.24764,-18.32832 23.68858,-53.92415 0.11342,0.11096 -3.78248,0 -3.58358,0 8.36057,26.0615 -8.36016,51.2757 -23.28994,50.21623 h -58.32385 c -2.58699,-4.1318 -7.26474,-6.25029 -13.29061,-5.28003 -2.70624,0.8473 -5.7982,2.22901 -6.91322,5.28003 h -9.55524 c -2.58781,-3.814 -7.73634,-6.80599 -13.78848,-5.28003 -2.5482,0.8473 -5.59929,2.22901 -6.71431,5.28003 0.0338,0.005 -6.94657,-0.063 -10.45051,0.10608 -2.48815,-4.02616 -7.83643,-6.91207 -13.72844,-5.38611 -2.70791,0.8473 -5.759,2.22901 -6.87402,5.28003 -2.65161,-0.12827 -6.7681,-0.10608 -6.7681,-0.10608 -0.69303,-0.40479 -1.8093,-2.65644 -2.44229,-3.14024 -3.92759,-3.00441 -10.95757,-3.39899 -14.17295,-1.18685 -2.59406,1.78383 -3.48975,3.47933 -3.34464,4.40742 -27.81423,-0.71592 -59.39844,3.89833 -73.09393,-24.06995 -4.29955,-9.15306 -5.28113,-20.18759 -4.14068,-31.69661 0.0538,0.0675 -3.62861,-0.0386 -3.62861,-0.0386 -1.89104,22.67138 3.46974,41.22828 20.50947,51.3982 17.03972,10.16992 36.71939,7.50549 59.4122,8.14064 -0.19891,4.66131 2.88638,6.9924 4.27994,8.05098 -0.002,0.0617 -25.97949,0.12961 -25.97699,0 -16.1703,-0.50066 -35.26244,-2.07455 -46.63324,-7.71676 -19.74638,-12.20364 -28.02731,-35.25717 -26.27597,-59.83489 -0.0454,-0.0386 -2.41394,0.13093 -3.52895,-0.0386 -1.43318,25.0877 5.60012,49.19493 26.46028,62.75542 11.7023,6.81926 31.38363,8.106 48.68397,8.43755 -0.0996,-0.008 31.95532,-0.0173 31.94866,0 1.27472,4.06875 3.2846,13.13618 3.48392,13.13618 -0.19932,-0.1052 -40.70787,-0.1052 -40.70787,-0.1052 -23.02056,-0.0972 -46.66034,-2.9809 -62.99578,-21.12987 -15.28797,-16.95061 -22.30084,-40.74005 -21.33885,-63.05501 0.0329,-0.0386 -3.87422,0.0519 -3.7483,-0.0386 -0.79644,32.20615 12.02881,64.11138 40.05612,79.02783 20.35769,9.22141 34.2917,7.73762 53.50726,8.47532 l 36.02302,-0.10166 2.88638,11.33548 c -47.87377,10.48816 -83.90346,6.25071 -110.41128,-26.65895 -17.30618,-21.48496 -31.37155,-46.27528 -42.35954,-72.37895 -2.7075,-0.33865 -5.77902,0.51265 -7.32562,-2.88102 -0.14511,-4.55124 -5.20149,-6.33107 -5.52006,-10.05985 6.36988,0 2.28925,-6.56853 1.39398,-8.58183 -3.50352,-6.4407 -9.25626,-11.44154 -15.82546,-13.56048 -1.79137,-0.21172 -1.39316,-4.02616 0,-3.91964 6.96743,-1.05946 10.35085,-9.74648 16.92005,-8.89918 h 60.91251 z"
     class="K P Q"
     id="path88" />
  <path
     d="m 404.84489,212.38251 c 2.54779,-0.16866 7.06667,1.16555 7.06667,1.27118 l 1.09542,-4.23787 4.87623,1.37771 -3.1249,7.86146 c -7.48406,-2.54326 -17.91539,-2.45804 -25.24017,0.0839 l -3.2846,-7.73363 c 1.09417,-0.63604 3.2846,-1.37771 4.37877,-1.58943 -0.0988,0.0435 1.55286,4.06921 1.59289,4.13179 2.23005,-0.67776 6.46954,-1.20771 6.5692,-1.16554 l -0.29856,-5.2969 c 1.49281,-0.42432 5.17521,-0.42432 6.46913,0 0,1.8007 -0.0996,5.2969 -0.0996,5.2969 z m 101.81678,-1.37726 c -7.46489,25.31982 -17.76945,50.16873 -29.8729,73.22138 0,0 -11.23319,-10.61022 -15.01443,-15.90712 7.96236,-20.34117 19.97907,-37.85857 37.02464,-55.51357 -0.19891,0 5.63306,-1.46159 7.86269,-1.80069 z m -88.48031,10.59379 2.4894,-6.99151 13.13507,3.60183 z m 69.77013,-6.35637 c -10.35126,3.73012 -24.53797,14.23426 -36.00343,7.45446 -0.22517,-0.25078 36.00343,-7.56009 36.00343,-7.45446 z m -81.71345,8.68791 v -2.01285 c 2.78714,0 5.872,0.31779 6.66844,0.84775 -1.2939,0.42343 -6.66844,1.16554 -6.66844,1.16554 z m 35.36126,1.30891 c -8.7588,8.47531 -21.97642,12.88317 -33.283,7.628 0.0138,-0.0382 33.25631,-7.66572 33.283,-7.628 z m -42.83992,9.32262 c -3.3438,8.1362 -13.22387,11.72161 -19.90566,12.20408 -5.73147,0.41366 -10.19198,-2.03372 -13.69508,-5.76294 11.30574,-1.86506 22.29458,-4.74564 33.60074,-6.44114 z m -64.97229,20.34073 c -5.73272,0.84774 -11.62474,-1.01775 -16.08398,-3.72923 l 34.39802,-7.62755 c -3.34465,7.28889 -11.307,9.83215 -18.31362,11.35678 z m -28.8692,22.95144 c -2.86636,-7.62755 -5.68728,-14.81524 -8.87263,-22.1037 l 13.05249,-3.11005 c -1.99069,6.14465 -3.38384,16.40024 -4.17986,25.2142 z m 169.96109,10.44112 c -7.33187,11.38251 -12.58006,22.54443 -20.70212,32.88435 -1.43318,-16.4424 1.2276,-34.42673 6.00502,-48.41109 0,0 9.35551,11.01811 14.69668,15.52674 z M 338.40563,388.64308 c 4.61771,5.76294 9.78751,12.50545 15.67952,17.08198 h -40.60779 c -11.84366,0.42343 -15.9247,-11.54762 -15.20123,-30.47247 3.65572,-0.25078 10.22493,0.91521 10.6686,-4.40787 v -3.72923 c 1.91146,0.33955 4.5097,-0.92365 4.43298,-3.13135 -0.10008,-2.86017 -1.24804,-3.13979 -2.84094,-3.818 l -3.50267,-0.3391 v -18.30612 c 1.43317,0.16866 3.75538,-0.94984 3.55647,-3.28004 -0.14386,-1.68441 -0.8494,-2.82244 -2.76045,-3.16154 -3.50352,1.18685 -4.90292,-7.22099 -9.48101,-8.06829 0.19848,0.21215 -31.45119,0 -31.45119,0 l 37.42868,-31.08766 c 3.82252,34.40986 16.2437,65.09051 34.07945,92.71969 z m -40.85339,-56.97117 c 1.49281,0.63559 2.31511,2.89833 2.31511,2.89833 H 195.0833 l 5.72647,-3.10961 z"
     class="L M K"
     id="path90" />
  <path
     d="m 478.22321,403.38997 c -17.35831,-14.23913 -32.80473,-30.68064 -50.80019,-43.22383 7.64419,-8.6444 17.4317,-19.17118 22.80623,-27.22261 4.453,19.47789 11.91038,50.44482 27.99396,70.44688 z"
     stroke="#ffffff"
     fill="#ffffff"
     class="K"
     id="path92" />
  <path
     d="m 608.8775,335.4859 c 2.19001,0.42432 2.15666,2.30491 2.4744,3.15267 H 504.33863 c 0,0 0.32567,-2.99865 1.82515,-3.36438 6.86109,-0.16379 102.71372,0.21171 102.71372,0.21171 z m -308.69157,5.69503 c 1.91146,0.17 1.24846,3.41587 1.11502,3.56012 H 199.70141 c 0,0 -1.18048,-2.15666 -3.50267,-3.56012 3.11863,0.13227 103.98719,0 103.98719,0 z m 309.25868,4.06833 c -1.11502,1.18685 -1.75177,3.22101 -3.18494,3.56011 h -101.9177 c -0.31899,-1.3564 0.15971,-3.05057 1.11419,-3.56011 z m -215.34921,38.33438 -10.35043,-8.05187 c -0.10008,-1.37771 0.1989,-14.93775 0.1989,-14.72604 3.38342,-1.4829 7.1659,-2.43629 10.19782,-2.16554 z m 19.15551,-23.7566 c 0.15303,0.0257 1.11961,8.58671 1.24846,8.50105 0,0 -7.75261,6.77847 -10.45092,9.42869 v -19.49342 c 2.84134,-0.37594 6.96742,0.52996 9.20246,1.56368 z m 3.33797,6.59383 -0.99534,-5.93204 c 0,0 3.88172,0.8473 5.07639,2.01241 z m -39.21463,4.13179 c 0,-0.63603 0.66884,-6.05144 0.59754,-6.03901 1.29391,-1.05947 1.68588,-1.71015 3.48351,-2.54193 l -0.19891,11.44155 -3.88172,-2.86016 z m 53.87129,-0.89479 -6.05172,0.67819 -0.94156,-6.03457 c 2.58782,1.16599 4.87665,3.28449 6.99369,5.35593 z m -13.69383,2.0346 c -0.0629,-0.0311 -0.21392,-0.992 -0.16554,-1.03417 0.92821,-1.30136 3.68865,-3.60938 4.5785,-4.76739 l 0.84232,4.95381 -5.25486,0.84775 z m -114.12705,-4.95425 c 0.79644,0.84776 0.89569,2.75498 -0.21308,3.25875 h -95.06952 c -1.06123,-0.0803 -1.36021,-3.04703 0,-3.22058 3.71576,0.0684 95.2826,-0.0382 95.2826,-0.0382 z m 70.8643,6.03857 c 0.17348,-0.10075 0.10634,0.77985 0.10634,1.28805 -0.006,-0.0164 -4.68443,-0.33466 -4.61812,-0.33821 l 0.53082,-2.75053 c 0,0 2.36306,1.16999 3.98096,1.80069 z m 228.42131,-2.11894 c 1.19425,0 -0.1989,3.28449 -1.49281,3.39057 -0.89569,0.1052 -93.84984,0.0164 -93.84984,0.0164 -2.39475,-0.4403 -1.3994,-3.40699 -0.006,-3.30046 3.38468,-0.10653 89.77546,-0.21172 95.34932,-0.10653 z M 472.17273,405.76323 H 441.9158 l -7.64378,-34.07076 z m -38.53786,-25.59546 -6.21144,0.84776 -1.7776,-8.34349 c -0.14428,0.11052 5.96498,-0.94895 5.97166,-0.84775 z m -14.45691,17.50542 c -3.18494,-1.37726 -10.9484,-4.55567 -15.12868,-7.73363 0.0925,0.007 0,-7.09804 0,-7.09804 l 11.11393,-9.96264 c 1.75176,7.96621 2.90056,16.65855 4.01475,24.79387 z m 6.01711,-16.31856 c 0.15303,0.11007 -5.81821,1.16954 -5.73315,1.18596 a 658.734,701.17103 0 0 0 -1.59206,-8.4753 l 5.58804,-1.07589 1.73759,8.36523 z m -63.14798,22.14542 c -0.79603,0.3391 -1.53285,0.95294 -2.48858,0.95294 -1.29349,-11.7589 2.25631,-21.40375 7.51117,-29.54039 z m -79.05893,-28.24746 c -2.85302,39.15949 21.13037,43.50345 34.27085,43.50345 h 191.09562 c 7.75678,0.0262 22.09568,-13.77265 15.7258,-37.92693 -0.1989,0 2.46898,0 3.58358,0 7.36482,26.69754 -9.35592,41.95308 -17.27198,41.20741 H 315.79288 c -39.34014,0.21616 -36.7861,-37.46088 -36.30865,-46.78349 h 3.50435 z m 9.87257,0 c -0.48412,30.15468 7.37941,35.98153 26.7872,35.55765 l 181.18844,-0.13138 c 11.49964,0.13138 17.07309,-16.71314 12.89279,-29.84975 h 3.18494 c 5.97167,16.52673 -3.38384,33.0539 -14.13291,33.0539 H 314.07365 c -25.08088,0.42344 -24.18519,-24.36644 -24.18519,-38.66904 z m 80.26027,8.13531 -4.93629,-0.33866 1.32727,-6.77624 4.57809,0.31824 z m 7.93607,-5.10161 c 0.0142,0.0262 -0.1326,4.08431 -0.29189,5.94936 -0.1055,-0.0169 -4.88332,-0.4403 -4.9367,-0.33866 l 0.75058,-7.19968 2.78672,0.21172 c 0,0 1.60373,1.22103 1.69171,1.37726 z m 2.09619,15.78063 c -0.10591,-1.37283 0.19307,-14.50989 0.19307,-14.50989 l 9.75373,7.20413 c 0,0 -8.36017,7.09803 -9.9468,7.30576 z m 52.71249,-4.57654 -6.52918,0.84776 -1.20091,-6.96666 c 1.91146,-0.50865 4.16068,-0.3391 6.07173,-0.84775 z m -8.62745,1.29693 -6.34403,1.245 -1.11502,-6.94979 c -0.1055,-0.12206 5.90077,-1.51486 5.96624,-1.39413 l 1.49281,7.09848 z m -54.44214,-4.87346 -0.78977,6.45845 -5.28113,-0.41988 c -0.1447,0.13271 1.19424,-6.56809 1.14045,-6.53036 -0.0459,-0.0377 4.82495,0.37017 4.93045,0.49179 z m 7.9686,0.69462 c -0.20557,0.0471 -0.15887,4.40742 -0.31857,6.61114 0.0142,0.005 -5.85825,-0.52508 -5.73231,-0.50865 l 0.79644,-6.44115 c 1.75093,0.17 5.14894,0.28007 5.25444,0.33866 z m 2.18377,19.11659 c 0.0133,-0.0373 0.0433,-6.82063 0.1989,-6.9924 3.32796,-2.05325 7.02121,-4.84639 10.94797,-8.15706 l 0.0463,15.18763 z m 48.47214,-4.97999 -1.49282,-8.2627 c -0.1059,-0.0155 5.98543,-0.9272 6.17057,-0.95339 l 1.69213,8.15751 -6.36988,1.05903 z"
     class="L M K"
     id="path94" />
  <path
     d="m 217.69688,398.13568 c -0.86275,1.86816 -7.63627,5.49708 -10.71571,4.62314 0.0996,2.43673 1.59204,4.11093 2.3885,5.29689 9.55523,8.6453 24.56965,13.30128 26.95857,28.21817 2.22962,7.79754 -7.98528,31.67797 -7.76095,31.71569 -2.41435,-0.24942 -6.76811,-1.2716 -6.967,-1.48379 4.57892,-9.95818 11.70188,-26.84178 6.76518,-34.63932 -8.12081,-13.05228 -31.05296,-15.7642 -27.54903,-35.42673 4.93629,1.52551 10.16571,-0.22858 13.82851,-4.80511 l 3.05193,6.50062 z"
     class="K P Q"
     id="path96" />
  <path
     d="m 429.13141,401.27547 c -0.0859,-0.0581 -7.26557,-2.43673 -7.26557,-2.54237 0.10634,-0.13715 -0.59712,-4.44914 -0.49787,-4.44914 -0.006,0.0897 6.18473,-1.18109 6.27063,-1.166 z m -57.44402,-6.53036 -0.4837,5.04746 -6.07091,2.43674 1.29392,-7.83972 c 0.0542,-0.0155 5.07638,0.21172 5.26069,0.35597 z m 48.18693,10.97995 h -15.82504 v -11.9715 c 1.79179,1.69462 15.32758,7.52191 15.32758,7.52191 z m -39.61286,-9.74649 c -1.29433,0.74123 -4.08104,2.22502 -6.37071,2.96625 l 0.3978,-3.814 c 0.12426,0 4.36793,0.28762 5.9725,0.52951 -0.0846,0.10919 0,0.10653 0,0.31824 z m 58.81925,8.89874 c -1.43319,-0.50776 -6.36947,-2.43673 -6.17057,-2.33021 0.0338,0.13227 5.36662,-0.89835 5.2753,-0.74212 0.0917,-0.15623 0.78935,3.18374 0.89527,3.07233 z"
     class="L M K"
     id="path98" />
  <path
     d="m 225.29437,412.08143 c -3.4835,0.10608 -8.99773,-3.45315 -10.74949,-6.67416 1.69213,0.31779 5.47419,-2.64845 5.47419,-2.64845 z"
     class="K P Q"
     id="path100" />
  <path
     d="m 379.96248,400.11037 -0.31274,5.65286 -6.45536,-0.0382 c -0.0996,0 0.19891,-2.96625 0.39781,-2.96625 0.39863,-0.52995 4.37919,-1.48378 6.36988,-2.64844 z m 51.45819,5.61469 h -8.85804 l -0.49746,-3.4962 c 0,-0.10608 5.57343,2.22413 9.3555,3.4962 z m -66.48678,0 5.67267,-2.0133 -0.1989,2.0133 z"
     class="L M K"
     id="path102" />
  <path
     d="m 584.48381,466.68198 -9.15702,1.57658 c -1.91105,-11.18678 -17.79656,-15.20273 -17.15982,-27.40682 l 5.41415,-6.94979 c -1.59289,16.10332 21.06197,17.69449 20.90269,32.78003 z M 379.36494,442.6986 c 0,0 -11.07599,-0.0497 -11.04805,0 -0.0988,-0.84775 -0.48787,-1.3311 -0.4516,-2.6955 l 1.84558,-5.25029 c -0.0859,0.19618 5.33493,0.0612 5.2753,0 -0.29898,3.07233 0.89527,6.35681 4.37877,7.94579 z m 26.27639,-7.94579 c 0.0996,2.33065 0.0996,4.55567 3.78206,7.94579 h -13.93401 c -1.59288,-2.22502 1.89062,-3.4962 1.19425,-7.94579 -0.0454,-0.14381 8.85763,0 8.9577,0 z m -107.29264,44.60108 c -24.88241,-1.05946 -47.15281,-6.51305 -64.66998,-10.32661 3.38468,-6.56851 7.90481,-23.09125 8.86054,-29.87193 13.80766,25.15515 37.29691,35.96112 55.80944,40.19854 z m 273.39619,-10.45263 c -15.12868,3.72921 -42.297,8.83394 -53.2454,9.4695 15.32759,-6.14462 27.87721,-22.19643 36.636,-33.55276 2.3885,11.65323 15.33592,15.43928 16.60982,24.08326 z m -183.52149,-9.36078 h -17.81573 l -4.27952,-13.13352 h 18.21354 z m 30.2582,0 h -20.30515 l -4.47885,-13.13352 h 20.9006 z M 536.03,460.68114 c -9.23541,10.84856 -23.69399,17.82322 -34.24374,18.45927 0,0 -27.66912,-1.9072 -37.82148,-5.50862 l -3.58317,-11.01812 h 67.67979 c 2.78672,0 5.42041,-1.08518 7.96819,-1.93253 z m -115.06318,8.7128 -19.40654,-0.20865 -2.18959,-6.56895 h 19.80727 z m 32.24972,2.54324 -21.69579,-2.11717 -2.19336,-7.20367 H 450.331 Z m -63.9978,-9.32084 2.28968,7.62756 c -3.66282,-0.33821 -17.71692,1.5894 -17.71692,1.4838 l -2.48815,-9.11136 z"
     class="P Q K"
     id="path104" />
  <path
     d="m 397.51927,202.84774 c -3.88131,-1.37727 -12.613,-2.93606 -16.52183,-3.4962 -6.66844,-0.95339 -23.48883,-1.90678 -33.77421,4.72034 -2.55363,2.69549 3.41845,7.14508 2.70749,10.5099 -1.87685,5.95823 -4.17237,7.4043 -10.43675,8.71276 -18.79148,1.69551 -31.12677,-13.12062 -48.0068,-16.5103 -4.1465,-0.54638 -7.63001,-0.0169 -7.32561,3.38968 2.58156,5.59871 3.56023,11.83968 1.11502,18.64566 -6.69388,18.62925 -48.49674,4.85705 -76.16545,3.37414 -12.1835,-0.65334 -25.91153,5.27116 -30.37036,7.98352 16.56145,-15.59465 32.98486,-16.3341 61.62264,-12.22139 25.08131,3.60184 36.62641,1.69462 37.26982,-6.42427 -0.44368,-8.40695 -6.01754,-9.46642 -4.1265,-15.71715 1.8485,-6.10826 7.05791,-7.85925 12.93908,-9.00526 14.00741,-2.7279 47.27582,23.94256 52.81549,16.58576 1.91104,-4.06744 -6.80022,-6.6644 -3.34965,-12.13573 6.6872,-8.81396 16.22493,-10.42646 27.76836,-11.54763 10.20532,-0.99067 23.54888,1.94983 33.74043,5.50862 0.28648,-0.61074 0.0996,8.39762 0.0996,7.62799 z"
     class="K N O"
     id="path106" />
  <path
     d="m 394.35059,189.07509 c 0,-3.11449 3.45098,-5.6391 7.70716,-5.6391 4.25618,0 7.70883,2.52461 7.70883,5.6391 0,3.11449 -3.4514,5.64088 -7.70883,5.64088 -4.25743,0 -7.70716,-2.52506 -7.70716,-5.64088 z"
     class="K P Q"
     id="path108" />
  <path
     d="m 387.20804,224.24793 c 1.91104,-0.8473 6.88694,-2.22501 10.37044,-2.11893 l -0.0192,2.96624 c -0.0796,-0.21171 -27.70874,5.08563 -41.24452,8.6453 l 28.0269,-16.27285 z"
     class="K L M"
     id="path110" />
  <g
     class="P Q K"
     id="g116"
     transform="matrix(0.41698623,0,0,0.44384934,-0.31019833,-0.30965522)">
    <path
       d="m 600.469,585.415 c 0,-6.458 7.375,-11.695 16.469,-11.695 9.094,0 16.469,5.237 16.469,11.695 0,6.458 -7.372,11.695 -16.469,11.695 -9.097,0 -16.469,-5.236 -16.469,-11.695 z"
       id="path112" />
    <path
       d="m 609.3,595.44 h 15.037 V 737.458 H 609.3 Z"
       id="path114" />
  </g>
  <path
     d="m 253.75951,292.47424 c -8.9577,-6.25029 -12.85402,1.16865 -20.45692,-1.46693 -8.60493,-2.98266 -13.37651,-1.35551 -18.79107,1.69462 2.38933,-6.10204 0.6309,-22.4752 -1.16089,-25.01845 2.58823,-1.69462 7.62501,-4.316 18.83777,0.61029 5.84573,2.56767 11.85158,-7.28002 21.57111,-0.39858 v 24.5786 z"
     class="K N O"
     id="path118" />
  <path
     d="m 239.12872,327.0106 14.63079,-34.8546 v 6.88632 l -11.64475,27.96828 z m 35.53223,0 -14.63121,-34.8546 v 6.88632 l 11.64518,27.96828 z"
     class="P Q K"
     id="path120" />
  <path
     d="m 501.28671,331.03676 c -3.48392,0.63559 -4.5931,4.38168 -3.95469,7.60181 -2.51527,0.0262 -5.04804,1.38703 -4.70486,3.7341 -0.15846,2.88103 2.38933,3.60139 4.70486,3.55434 v 17.62926 c -2.07117,0 -4.30038,-0.5091 -5.73357,1.52551 -0.63631,1.01686 -0.006,2.16598 -0.16512,3.35195 1.27431,2.20371 3.82794,1.73323 5.89869,1.90233 -0.63841,4.06877 2.54736,7.2889 5.41415,8.98396 2.5482,0.67776 5.41415,2.88236 6.05088,5.76294 0.95615,3.39057 1.30767,7.27247 0.35194,11.0017 -3.98097,10.00125 -9.05694,10.38252 -22.48723,9.67902 -12.54712,-12.85743 -15.65158,-23.15829 -22.13488,-39.83371 -5.53592,-14.23691 -6.89946,-22.02602 -9.91969,-38.07118 8.28093,-12.03408 18.1143,-27.33224 23.28952,-37.29133 19.70718,16.52673 43.87279,29.62117 65.68909,40.46974 h -42.29909 z"
     class="K L M"
     id="path122" />
  <g
     class="P Q K"
     id="g128"
     transform="matrix(0.41698623,0,0,0.44384934,-0.31019833,-0.30965522)">
    <path
       d="m 1314.86,595.201 c 0,-6.461 7.374,-11.695 16.468,-11.695 9.094,0 16.47,5.235 16.47,11.695 0,6.46 -7.374,11.695 -16.47,11.695 -9.096,0 -16.468,-5.236 -16.468,-11.695 z"
       id="path124" />
    <path
       d="m 1323.69,605.226 h 15.04 v 142.018 h -15.04 z"
       id="path126" />
  </g>
  <path
     d="m 551.65031,296.81775 c -8.9577,-6.25073 -12.85443,1.16865 -20.45692,-1.46737 -8.60535,-2.98266 -13.37693,-1.35507 -18.79108,1.69551 2.38933,-6.10205 0.63091,-22.47654 -1.16088,-25.01846 2.58781,-1.69551 7.62459,-4.31644 18.83777,0.60985 5.84531,2.56811 11.85158,-7.27957 21.57111,-0.39769 v 24.5786 z"
     class="K N O"
     id="path130" />
  <path
     d="m 537.01827,331.35411 14.63204,-34.85416 v 6.88588 l -11.64643,27.96828 z m 35.53139,0 -14.62787,-34.85416 v 6.88588 l 11.64225,27.96828 z"
     class="P Q K"
     id="path132" />
  <path
     d="m 221.81087,357.30997 -4.27996,-7.41628 c 1.32811,-0.73634 3.18494,-0.95294 4.30581,-1.08476 l -0.0263,8.50104 z m -1.49323,0.95295 -8.03533,-3.69105 c 0.57086,-1.49977 1.97443,-2.58099 2.95935,-3.30091 -0.18931,0.0848 5.09015,7.04034 5.07556,6.9924 z m -9.62738,1.56412 0.47703,-2.88191 8.15541,2.88191 z m 13.30978,-2.41098 4.27994,-7.41584 c -1.32684,-0.73723 -3.18452,-0.95339 -4.30538,-1.08565 z m 1.49323,0.95338 8.03616,-3.69105 c -0.57128,-1.50021 -1.97485,-2.58143 -2.96061,-3.30091 0.18931,0.0843 -5.08973,7.0399 -5.07555,6.99241 z m 9.62905,1.56324 -0.47787,-2.88191 -8.15583,2.88191 z m 19.23473,-2.72834 -4.27994,-7.41584 c 1.3281,-0.73723 3.18452,-0.95427 4.3058,-1.08565 l -0.0263,8.50149 z m -1.49322,0.95294 -8.03533,-3.69105 c 0.57085,-1.49977 1.97402,-2.58098 2.95935,-3.30046 -0.18931,0.0843 5.08974,7.03989 5.07557,6.99151 z m -9.6278,1.56369 0.47745,-2.88236 8.15542,2.88236 z m 13.31021,-2.411 4.27994,-7.41628 c -1.32685,-0.73634 -3.18452,-0.95294 -4.30538,-1.08476 z m 1.49322,0.95295 8.03616,-3.69105 c -0.57169,-1.49977 -1.97485,-2.58099 -2.9606,-3.30091 0.18931,0.0848 -5.08974,7.04034 -5.07556,6.9924 z m 9.62821,1.56412 -0.47703,-2.88191 -8.15583,2.88191 z m 19.23516,-2.72922 -4.27994,-7.41584 c 1.32768,-0.73634 3.18452,-0.95294 4.30579,-1.08477 l -0.0263,8.50061 z m -1.49323,0.95383 -8.03532,-3.6915 c 0.57085,-1.49976 1.97402,-2.58098 2.95935,-3.30091 -0.18931,0.0843 5.08974,7.0399 5.07556,6.99285 z m -9.62738,1.56368 0.47662,-2.88191 8.15542,2.88191 z m 13.30978,-2.41099 4.27996,-7.41584 c -1.32727,-0.73723 -3.18453,-0.95427 -4.30538,-1.08565 z m 1.49365,0.95294 8.03617,-3.69105 c -0.57169,-1.49977 -1.97485,-2.58098 -2.96061,-3.30046 0.18931,0.0843 -5.08973,7.03989 -5.07556,6.99151 z m 9.62822,1.56369 -0.47703,-2.88236 -8.15667,2.88236 z m 220.58363,1.19129 -4.27994,-7.41584 c 1.32767,-0.73723 3.18494,-0.95427 4.30663,-1.08565 z m -1.49281,0.95294 -8.03532,-3.69105 c 0.57043,-1.49977 1.974,-2.5801 2.95935,-3.30046 -0.18931,0.0843 5.08973,7.03989 5.07555,6.99151 z m -9.62822,1.56368 0.47537,-2.88236 8.15625,2.88236 z m 13.3102,-2.41099 4.27996,-7.41628 c -1.32769,-0.73634 -3.18537,-0.95294 -4.30539,-1.08477 z m 1.49282,0.95383 8.03574,-3.69149 c -0.57127,-1.49977 -1.97484,-2.58098 -2.95976,-3.30091 0.18931,0.0848 -5.09016,7.04034 -5.07557,6.99285 z m 9.62821,1.56324 -0.47954,-2.88191 -8.15207,2.88191 z m 19.23558,-2.72923 -4.27995,-7.41583 c 1.3281,-0.73635 3.18535,-0.95295 4.30663,-1.08477 z m -1.49281,0.95384 -8.03534,-3.6915 c 0.57044,-1.49977 1.97402,-2.58099 2.95936,-3.30091 -0.18931,0.0843 5.08973,7.0399 5.07556,6.99285 z m -9.62822,1.56323 0.47536,-2.88147 8.15626,2.88147 z m 13.3102,-2.41054 4.27953,-7.41584 c -1.32727,-0.73723 -3.18494,-0.95427 -4.3058,-1.08565 l 0.0267,8.50149 z m 1.49282,0.95294 8.03574,-3.69105 c -0.57128,-1.49977 -1.97486,-2.5801 -2.95978,-3.30046 0.18848,0.0843 -5.09015,7.03989 -5.07555,6.99151 z m 9.6282,1.56368 -0.47953,-2.88236 -8.15208,2.88236 z m 19.23558,-2.72879 -4.27995,-7.41583 c 1.32811,-0.73723 3.18536,-0.95428 4.3058,-1.08521 l -0.0263,8.50104 z m -1.49281,0.95339 -8.03533,-3.69105 c 0.57044,-1.49976 1.97402,-2.58098 2.95894,-3.3009 -0.18931,0.0848 5.09015,7.04033 5.07639,6.9924 z m -9.62821,1.56369 0.47536,-2.88236 8.15626,2.88236 z m 13.3102,-2.41144 4.27953,-7.41583 c -1.32685,-0.73635 -3.18452,-0.95295 -4.30538,-1.08477 l 0.0263,8.5006 z m 1.4928,0.95384 8.03617,-3.6915 c -0.57127,-1.49977 -1.97485,-2.58099 -2.95977,-3.30091 0.18848,0.0843 -5.09015,7.0399 -5.0764,6.99285 z m 9.62822,1.56323 -0.47953,-2.88147 -8.15208,2.88147 z"
     class="L M K"
     id="path134" />
  <path
     d="m 464.79624,493.65029 c 64.69625,16.84764 68.36698,-8.37055 157.27888,-4.97955 47.72032,1.82067 44.04834,11.01945 101.55575,11.01945 24.43288,0 52.19124,-6.213 76.65124,-10.34036 l -0.41449,-22.44234 c -24.36617,5.12643 -47.38799,11.42422 -77.86759,12.01589 -41.80037,0.81047 -69.74304,-14.83434 -106.24643,-14.83434 -47.71865,0 -72.27163,15.89379 -116.64647,15.04604 0,0 -31.60797,-3.39055 -42.00844,-6.35769 l -33.03616,-3.17885 c -9.2646,-0.29118 -20.39271,-0.42345 -30.48711,0.10654 -8.78882,0.36129 -20.20882,1.67509 -28.24374,3.17885 -31.6088,6.03989 -42.75484,7.10911 -71.17078,6.4633 -37.3186,-0.84775 -68.51168,-15.46945 -105.22565,-15.46945 -39.15459,0 -58.94016,15.25775 -85.64981,15.25775 -28.549375,0 -70.762559,-23.94655 -103.59480435,-10.38341 v 24.15781 C 41.699497,479.77157 61.327039,499.69108 104.91711,499.69108 c 35.89126,0 47.30792,-11.77708 85.44506,-11.44331 48.33122,0.4243 79.81368,11.44331 105.6343,11.44331 27.73417,0 44.45615,-3.17841 74.73936,-8.26446 5.81195,-1.0595 15.90635,-1.90724 29.31413,-2.49 10.45135,-0.26455 17.58931,-0.1589 30.18105,0.4771 9.83962,0.8478 22.17741,1.80115 34.56523,4.2379 z M -0.31061531,509.86411 c 32.62833831,-10.99327 65.42597331,5.19303 97.06897431,7.62845 22.024381,1.6955 54.629791,-11.0865 89.524021,-11.8672 37.93074,-0.84779 69.74346,10.17166 108.21044,11.67187 24.55881,0.95784 68.55586,-9.95773 112.64257,-11.03631 34.66782,-0.84775 45.88934,3.56902 81.16929,9.84991 4.56517,0.81313 9.48018,1.1438 14.68209,1.12117 37.10927,-0.16378 67.9846,-11.56803 104.20111,-11.39449 44.25182,0.2117 67.22234,11.65461 109.10069,11.65461 50.04335,0 60.53223,-5.18416 83.17415,-9.09761 0.61631,-0.22634 0.43993,23.5156 0.43993,23.5156 l -800.21326531,0.3564 v -22.40285 z"
     stroke="#1a3c86"
     fill="#1a3c86"
     class="K"
     id="path136" />
  <path
     d="m 436.19516,434.81672 c 0.0988,2.33066 0.0988,4.55523 3.78207,7.94579 H 426.0428 c -1.59206,-2.22546 1.89103,-3.4962 1.19467,-7.94579 -0.0454,-0.1438 8.85761,0 8.95769,0 z m 13.23931,24.72376 h -20.99942 l -4.4826,-13.13352 h 21.20375 z"
     class="P Q K"
     id="path138" />
  <path
     d="m 217.72982,375.21353 h 75.24433 v 1.48378 h -75.24433 z m 296.99636,5.61513 h 88.78054 v 1.48379 h -88.78054 z m -139.44187,-11.33546 0.49788,-4.02572 -3.18494,2.33021 z"
     class="L M K"
     id="path140" />
  <path
     d="m 397.5789,192.4661 h 8.65914 v 12.81881 h -8.65914 z"
     class="K P Q"
     id="path142" />
  <path
     d="m 364.73581,463.2688 h 3.98097 l 12.43995,45.11284 -4.77699,0.21304 z m 28.40844,-0.30626 3.81459,0.0266 14.05703,43.27531 h -4.97715 z m 29.70318,0.61696 h 3.38177 l 13.45197,43.84786 -4.38253,-0.21304 z m 31.55752,-0.11541 h 3.0857 l 17.3216,49.89755 -4.27827,-0.84775 z"
     class="L M K"
     id="path144" />
  <path
     d="m 365.47722,434.24016 c 0.65092,3.16154 -0.74224,4.32665 -1.33979,5.80999 6.84776,20.17208 14.59078,47.7369 21.59781,67.90809 l -4.57851,0.4234 -20.30389,-69.60311 c 1.59288,-0.6356 3.88172,-4.55523 -0.63048,-6.06387 -2.22963,-0.50866 -4.84371,-0.2925 -5.41415,2.37281 -0.319,2.37282 1.90979,2.88192 3.02482,4.06788 6.52917,22.03581 13.27099,47.10619 18.84443,69.64975 l -3.4835,0.74209 -17.59014,-68.01858 c -2.54821,-1.86461 -5.32117,-5.56764 -3.41011,-8.7891 3.02565,-4.91519 11.84324,-4.13135 13.28267,1.50021 z m 27.47022,0.28496 c 0.6505,3.16153 -0.74265,4.32708 -1.3402,5.80998 l 23.18986,65.92804 h -3.98097 l -22.49349,-67.19922 c 1.59289,-0.63604 3.88173,-4.55567 -0.63048,-6.06431 -2.22963,-0.5091 -4.84371,-0.29206 -5.41415,2.37326 -0.31858,2.37282 1.91063,2.88102 3.02482,4.06743 6.52958,22.03622 15.36135,44.27884 20.93479,66.82284 l -3.58316,0.42345 -19.58084,-64.87347 c -2.54778,-1.86416 -5.32116,-5.5672 -3.41011,-8.78733 3.02648,-4.91607 11.84407,-4.13179 13.28351,1.49933 z m 30.45459,0.2845 c 0.65008,3.16198 -0.74266,4.32753 -1.34019,5.81088 l 22.39423,67.7607 -4.67775,-0.74121 -21.00067,-68.29112 c 1.59205,-0.6347 3.88172,-4.55523 -0.63048,-6.06431 -2.22963,-0.50866 -4.84372,-0.29206 -5.41415,2.37193 -0.319,2.37326 1.91063,2.88235 3.02565,4.06876 6.52917,22.03579 14.06703,44.84119 19.64046,67.38475 l -3.8813,-0.31776 -17.98837,-64.69328 c -2.54821,-1.86461 -5.32158,-5.56765 -3.41095,-8.78822 3.02649,-4.91607 11.84408,-4.13179 13.28393,1.49888 z m 30.45667,0.2854 c 0.65092,3.16198 -0.74266,4.32753 -1.33895,5.81043 6.84775,20.17074 19.86564,53.23796 26.87269,73.40915 l -4.57894,-0.84779 -25.57876,-73.83254 c 1.59247,-0.63604 3.8813,-4.55568 -0.6309,-6.06432 -2.22921,-0.50954 -4.84288,-0.29205 -5.41415,2.37282 -0.31858,2.37326 1.91105,2.88191 3.02607,4.06788 6.52917,22.03625 18.64512,50.17051 24.21898,72.7145 l -4.47885,-0.9534 -21.96976,-69.38828 c -2.5482,-1.86417 -5.32116,-5.56721 -3.41052,-8.78778 3.02648,-4.91563 11.84407,-4.13179 13.28309,1.49933 z"
     class="P Q K"
     id="path146" />
  <path
     d="m 451.9489,280.83739 c -4.12191,17.4748 -4.14067,30.68065 -2.70749,46.10574 -6.68888,11.18767 -16.68695,21.08729 -25.28646,31.42676 -16.92006,-7.83971 -38.09377,-6.6786 -51.4707,3.82997 -11.94374,8.9844 -17.51717,22.8831 -17.99462,36.61358 -19.71344,-21.58572 -25.28646,-33.4516 -32.96401,-54.41149 -8.92518,-24.36511 -14.05953,-41.67169 -11.82991,-65.91163 0.63716,-7.79621 2.11621,-15.45084 3.86755,-22.73885 6.84775,5.76294 16.88003,5.9325 25.6384,4.40743 7.80306,-2.54237 17.04014,-6.9498 19.90651,-16.27285 7.00662,9.66082 18.22688,9.98395 28.41886,7.27158 6.68888,-1.86372 12.5075,-7.78067 16.96592,-13.37362 10.67026,5.93249 27.07242,3.38968 37.1051,-4.06877 2.54779,-2.03416 4.93587,-4.74652 6.05089,-7.79755 5.89285,7.11979 18.2077,4.36926 23.40961,2.88236 5.1502,-1.47402 12.26148,-6.44158 12.26148,-6.44158 -15.12827,16.61239 -26.52074,37.9105 -31.37113,58.47981 z"
     stroke="#ffffff"
     fill="#ffffff"
     class="K"
     id="path148" />
</svg>
