<?xml version="1.0" encoding="UTF-8" standalone="no"?>
<svg
   width="800"
   height="533"
   xml:space="preserve"
   style="fill-rule:evenodd"
   version="1.1"
   id="svg136"
   sodipodi:docname="Flag_of_Yukon.svg"
   inkscape:version="1.2.2 (732a01da63, 2022-12-09)"
   xmlns:inkscape="http://www.inkscape.org/namespaces/inkscape"
   xmlns:sodipodi="http://sodipodi.sourceforge.net/DTD/sodipodi-0.dtd"
   xmlns:xlink="http://www.w3.org/1999/xlink"
   xmlns="http://www.w3.org/2000/svg"
   xmlns:svg="http://www.w3.org/2000/svg"><defs
   id="defs140" /><sodipodi:namedview
   id="namedview138"
   pagecolor="#ffffff"
   bordercolor="#000000"
   borderopacity="0.25"
   inkscape:showpageshadow="2"
   inkscape:pageopacity="0.0"
   inkscape:pagecheckerboard="0"
   inkscape:deskcolor="#d1d1d1"
   showgrid="false"
   inkscape:zoom="0.53892857"
   inkscape:cx="693.04175"
   inkscape:cy="530.68257"
   inkscape:window-width="2560"
   inkscape:window-height="1334"
   inkscape:window-x="-11"
   inkscape:window-y="-11"
   inkscape:window-maximized="1"
   inkscape:current-layer="svg136" />
  <path
   style="fill:#ffffff;stroke-width:0.329811"
   d="M 0,0 H 800 V 533 H 0 Z"
   id="path2" />
  <path
   style="fill:#0738ac;fill-opacity:1;stroke-width:0.329811"
   d="M 571.42857,0 H 800 V 533 H 571.42857 Z"
   id="path4" />
  <path
   style="fill:#187b01;stroke-width:0.329811"
   d="M 0,0 H 228.57143 V 533 H 0 Z"
   id="path6" />
  <path
   style="fill:#ffffff;fill-rule:evenodd;stroke-width:0.375165"
   d="m 319.18579,160.79455 h 165.54299 v 67.61296 H 319.18579 Z"
   id="path8" />
  <path
   style="fill:#0738ac;fill-rule:evenodd;stroke-width:0.375165"
   d="m 318.87254,228.41019 v 52.95688 c -0.0157,10.1055 2.05468,19.56829 5.68606,28.33668 l 0.62141,-1.45377 -0.76205,-2.28616 28.05531,-68.67862 49.1935,125.73887 49.20519,-125.73887 28.17255,68.85447 -0.84412,2.19238 0.56274,1.3248 c 2.94128,-7.12833 4.8106,-14.67728 5.46336,-22.7561 0.19759,-2.24213 0.17455,-4.48471 0.17583,-6.72951 v -51.76105 z m 6.07298,82.19629 c 6.38317,14.88834 17.27149,27.73765 30.07181,38.26682 -12.49854,-10.64097 -22.90152,-23.73853 -30.07181,-38.26682 z m 153.10244,0.73861 c -7.03129,13.9851 -17.06865,26.60938 -29.06355,36.96546 6.98634,-5.84721 13.2624,-12.27956 18.32452,-18.99272 4.34896,-5.71283 7.96655,-11.67541 10.73903,-17.97274 z m -52.99201,53.17963 c -7.40411,3.82946 -15.18935,6.87266 -23.18987,8.99222 1.71337,-0.0426 3.61436,-0.47473 6.35436,-1.43031 5.58195,-1.99957 11.25543,-4.55627 16.83551,-7.56191 z m -46.46182,0.16414 c 4.5761,2.46768 9.29105,4.67553 14.13901,6.56539 4.03173,1.36266 6.23427,2.2493 8.74601,2.27443 -7.89191,-2.08914 -15.56921,-5.08218 -22.88502,-8.83982 z m 22.55676,7.52675 0.49239,1.31307 c 0.0158,-7e-5 0.0315,-0.012 0.0465,-0.012 l 0.4221,-1.1138 -0.44549,0.3869 -0.51588,-0.57448 z"
   id="path10" />
  <path
   d="m 412.56813,333.48031 c -1.61166,-7.74333 -3.44303,-14.45773 -1.60807,-22.44608 2.96175,-13.07701 2.45218,-14.26718 -0.23838,-27.16786 -1.83318,-9.74171 3.18236,-19.10817 2.20974,-28.82599 -0.65306,-10.16489 -4.32782,-15.62265 0,-25.72906 l -4.94772,0.11426 c -4.79485,9.28134 -0.45286,15.92708 0.12446,25.72996 0.98852,9.92875 -4.19271,18.99119 -2.44596,28.77057 2.48188,10.66072 3.17794,16.39058 0.30171,27.16344 -2.32984,8.92732 1.70286,22.04155 3.03315,31.26617 l 3.57101,-8.87546 z"
   style="fill:#ffffff;fill-rule:evenodd;stroke-width:0.375165"
   id="path12" />
  <path
   d="m 410.21579,310.865 1.49419,0.33852 v 10e-4 l -0.15731,0.72671 -0.13735,0.71961 -0.11741,0.71252 -0.0984,0.70674 -0.0807,0.70101 -0.063,0.69656 -0.0465,0.69169 -0.0292,0.68726 -0.0157,0.68371 v 0.68106 l 0.015,0.67796 0.027,0.67662 0.0405,0.67442 0.0517,0.67352 0.063,0.6722 0.0742,0.67175 0.0841,0.67308 0.0936,0.67263 0.10226,0.67442 0.11037,0.67529 0.1174,0.67752 0.12401,0.67973 0.1303,0.68238 0.13511,0.68505 0.14005,0.68903 0.14395,0.69302 0.1468,0.69746 0.14979,0.70187 0.1507,0.70722 0.15242,0.7125 0.15244,0.71873 0.15197,0.72537 -1.49952,0.31195 -0.15107,-0.72093 -0.15242,-0.71608 -0.15161,-0.71163 -0.15153,-0.7072 -0.14964,-0.70454 -0.14755,-0.70099 -0.145,-0.69833 -0.1417,-0.69613 -0.1369,-0.6948 -0.13211,-0.69303 -0.1267,-0.69212 -0.12011,-0.6917 -0.11291,-0.69125 -0.10496,-0.69213 -0.0961,-0.69301 -0.0868,-0.69348 -0.0771,-0.69568 -0.0652,-0.6979 -0.0547,-0.69922 -0.0412,-0.70277 -0.0292,-0.70586 -0.015,-0.70898 v -0.71384 l 0.0158,-0.71739 0.0315,-0.72184 0.0495,-0.72713 0.0652,-0.73202 0.085,-0.73822 0.10377,-0.74398 0.12355,-0.75063 0.1444,-0.75683 0.16534,-0.76391 v 0.002 z m 1.49419,0.33852 v 10e-4 l -0.007,0.0181 z m -1.73837,-27.19531 1.50574,-0.2836 -0.007,-0.015 0.24589,1.17557 0.23262,1.11131 0.21986,1.05239 0.20644,0.99786 0.19323,0.94782 0.17898,0.90127 0.16526,0.86096 0.15115,0.8233 0.136,0.79139 0.12235,0.76302 0.10677,0.73956 0.0913,0.72004 0.0757,0.705 0.0592,0.69389 0.0427,0.68682 0.027,0.68417 0.009,0.68459 -0.007,0.68949 -0.0247,0.69877 -0.0435,0.7112 -0.0607,0.72758 -0.0789,0.74841 -0.097,0.77367 -0.11471,0.80336 -0.13375,0.83659 -0.15197,0.87468 -0.17103,0.9168 -0.18964,0.96332 -0.20913,1.01472 -0.22909,1.07055 -0.24815,1.13036 -0.26811,1.19507 -1.49418,-0.33854 0.26719,-1.18886 0.24643,-1.1224 0.22639,-1.0608 0.2065,-1.00319 0.18702,-0.94914 0.16833,-0.89995 0.14845,-0.8552 0.1303,-0.81355 0.11111,-0.77766 0.0936,-0.7453 0.0753,-0.71739 0.0577,-0.69391 0.0405,-0.67485 0.024,-0.66067 0.007,-0.65137 -0.007,-0.6465 -0.0255,-0.64606 -0.0412,-0.65137 -0.057,-0.66022 -0.072,-0.67397 -0.0877,-0.69256 -0.10316,-0.71474 -0.11876,-0.74266 -0.13345,-0.77365 -0.14845,-0.80912 -0.16354,-0.84945 -0.17717,-0.89329 -0.19144,-0.94161 -0.20561,-0.99433 -0.21979,-1.05061 -0.23261,-1.11132 -0.24598,-1.17646 -0.007,-0.015 z m 0.007,0.015 -0.007,-0.015 v -0.003 l 0.007,0.0174 z m 2.19518,-28.93321 1.52878,-0.0984 v -0.027 l 0.0762,0.93807 0.0427,0.93405 0.012,0.93143 -0.018,0.92697 -0.0435,0.92389 -0.0675,0.92035 -0.0882,0.91766 -0.10767,0.91369 -0.1237,0.91147 -0.1378,0.90793 -0.1489,0.90528 -0.15775,0.90305 -0.16488,0.90039 -0.16833,0.89774 -0.17103,0.89641 -0.16975,0.89375 -0.16706,0.89241 -0.16217,0.89066 -0.15416,0.88842 -0.1444,0.88755 -0.1324,0.88577 -0.11831,0.88445 -0.10137,0.88356 -0.0825,0.88223 -0.0615,0.88178 -0.0382,0.88046 -0.012,0.88002 0.015,0.88001 0.0442,0.88001 0.0762,0.87912 0.11081,0.88046 0.14709,0.88133 -1.50574,0.2836 -0.15686,-0.94338 -0.11875,-0.93982 -0.0816,-0.93674 -0.0472,-0.93318 -0.0157,-0.92965 0.015,-0.9261 0.0405,-0.92299 0.0645,-0.91989 0.0859,-0.91591 0.10497,-0.91369 0.121,-0.91013 0.13601,-0.90794 0.14709,-0.90526 0.15694,-0.90262 0.16389,-0.90039 0.16796,-0.89773 0.17058,-0.89642 0.17013,-0.89463 0.16758,-0.89243 0.16301,-0.89154 0.15602,-0.88887 0.1462,-0.88842 0.13435,-0.88667 0.12011,-0.88577 0.10406,-0.88443 0.0856,-0.884 0.0652,-0.88313 0.0412,-0.88223 0.0172,-0.88178 -0.0105,-0.8818 -0.0397,-0.88178 -0.072,-0.88223 -0.007,-0.027 z m 0.007,0.027 v -0.027 l 0.007,0.027 z m 0.77985,-25.0396 -0.0352,-1.53138 0.72186,1.06701 -0.37349,0.91147 -0.32886,0.88488 -0.28625,0.85964 -0.24635,0.83615 -0.20823,0.81487 -0.17238,0.79627 -0.1387,0.77899 -0.10722,0.76347 -0.0775,0.75019 -0.0495,0.7391 -0.024,0.73068 v 0.7236 l 0.0225,0.71828 0.042,0.71517 0.06,0.71429 0.0771,0.71474 0.0912,0.71784 0.10377,0.72182 0.11471,0.72802 0.124,0.73557 0.13016,0.74486 0.13555,0.75638 0.1387,0.76925 0.13915,0.78296 0.13735,0.79892 0.13511,0.81622 0.1294,0.83569 0.12146,0.85654 0.11201,0.87868 0.10106,0.90217 0.0868,0.92786 0.0705,0.95401 -1.5287,0.0984 -0.069,-0.92477 -0.0841,-0.89951 -0.0975,-0.87647 -0.10946,-0.85564 -0.11876,-0.83614 -0.12671,-0.81886 -0.13255,-0.80292 -0.13645,-0.79006 -0.13825,-0.77766 -0.1378,-0.76746 -0.13646,-0.75993 -0.1321,-0.75284 -0.12581,-0.74885 -0.11741,-0.74575 -0.10721,-0.74488 -0.0948,-0.74441 -0.0807,-0.74754 -0.063,-0.7515 -0.045,-0.75595 -0.0225,-0.76347 v -0.77233 l 0.0255,-0.7812 0.0532,-0.79316 0.0828,-0.80514 0.11516,-0.8193 0.14845,-0.83481 0.18484,-0.85122 0.2215,-0.86982 0.26234,-0.88842 0.30304,-0.91015 0.34656,-0.93275 0.39209,-0.95666 0.72187,1.06701 z m -0.0352,-1.53138 1.19068,-0.0274 -0.46882,1.09448 -0.72186,-1.06701 z m -4.94772,0.11426 4.94772,-0.11426 0.0352,1.53138 -4.94773,0.11426 -0.6983,-1.11708 0.66281,-0.4143 z m -0.66289,0.4143 0.20868,-0.40367 0.45421,-0.0105 -0.66289,0.4143 z m 1.56725,26.00558 -1.52426,0.15155 -0.007,-0.0306 -0.063,-0.89199 -0.0829,-0.87558 -0.0997,-0.86051 -0.11516,-0.84724 -0.12761,-0.8348 -0.1378,-0.8233 -0.14635,-0.81354 -0.15197,-0.80469 -0.15558,-0.79626 -0.15685,-0.79051 -0.15551,-0.7843 -0.15242,-0.78031 -0.14575,-0.77632 -0.1387,-0.77501 -0.12715,-0.77321 -0.11381,-0.77412 -0.0988,-0.77456 -0.0802,-0.7772 -0.0592,-0.77988 -0.036,-0.7843 -0.0105,-0.78917 0.0187,-0.79495 0.0495,-0.80157 0.0837,-0.80912 0.11876,-0.81664 0.15821,-0.82595 0.19901,-0.83482 0.24236,-0.84501 0.2876,-0.8552 0.33539,-0.86672 0.38505,-0.87824 0.43739,-0.89155 1.36119,0.70278 -0.40898,0.83393 -0.35848,0.81799 -0.31145,0.80291 -0.26547,0.78962 -0.22287,0.77853 -0.18304,0.76747 -0.14485,0.7586 -0.10991,0.75196 -0.0766,0.74531 -0.0457,0.74043 -0.0173,0.73822 0.0105,0.736 0.0337,0.73556 0.057,0.73733 0.0757,0.73822 0.0945,0.74177 0.11036,0.74575 0.12355,0.75107 0.13511,0.75726 0.14395,0.76481 0.15069,0.77233 0.15551,0.78255 0.15685,0.79226 0.15731,0.80336 0.15377,0.81621 0.1489,0.8286 0.1414,0.84368 0.13105,0.85787 0.11876,0.8747 0.10331,0.89153 0.0864,0.90925 0.066,0.9283 -0.007,-0.0306 z m -1.52426,0.15155 -0.007,-0.0213 v -0.009 z m -0.93767,28.52111 -1.49232,0.3474 -0.007,-0.039 -0.1489,-0.94559 -0.10901,-0.94117 -0.072,-0.93584 -0.0375,-0.93098 -0.007,-0.92609 0.024,-0.92166 0.0502,-0.91723 0.075,-0.9128 0.0966,-0.90882 0.11516,-0.90528 0.1324,-0.90127 0.14575,-0.89907 0.15776,-0.89551 0.16706,-0.89331 0.17328,-0.89066 0.17763,-0.88976 0.17995,-0.88799 0.17899,-0.88621 0.17635,-0.88532 0.17013,-0.88445 0.16309,-0.88489 0.15332,-0.884 0.14095,-0.8849 0.12535,-0.88399 0.10947,-0.88621 0.0895,-0.88623 0.0682,-0.88799 0.0442,-0.88932 0.0188,-0.89153 -0.0105,-0.89419 -0.0397,-0.89685 -0.0727,-0.90039 1.52433,-0.15154 0.0771,0.95621 0.0427,0.95004 0.0105,0.94381 -0.0195,0.93851 -0.0472,0.93275 -0.0712,0.92609 -0.0931,0.92166 -0.11291,0.91634 -0.12985,0.91147 -0.14455,0.90705 -0.15595,0.90262 -0.16571,0.89907 -0.17282,0.89507 -0.17727,0.89242 -0.17988,0.88888 -0.17905,0.88622 -0.17673,0.88356 -0.17148,0.88178 -0.16443,0.88001 -0.15514,0.87781 -0.14215,0.8769 -0.12805,0.87559 -0.11156,0.87514 -0.0931,0.87425 -0.0712,0.8738 -0.048,0.87471 -0.0225,0.87468 0.007,0.87559 0.0352,0.87691 0.0675,0.87824 0.10182,0.88091 0.13915,0.88355 -0.007,-0.039 z m -1.49232,0.3474 -0.007,-0.0186 -0.007,-0.0204 0.007,0.039 z m 1.78922,27.18335 -1.48263,-0.38727 v -0.005 l 0.25654,-0.98634 0.23666,-0.95755 0.2153,-0.93097 0.19631,-0.90615 0.17635,-0.88356 0.15694,-0.86229 0.13855,-0.84325 0.11966,-0.82507 0.10151,-0.80955 0.0837,-0.79671 0.0667,-0.78518 0.0495,-0.77456 0.0322,-0.76702 0.0172,-0.76126 v -0.75771 l -0.015,-0.75594 -0.03,-0.75551 -0.0457,-0.75815 -0.0607,-0.76127 -0.0753,-0.76746 -0.0891,-0.77544 -0.10331,-0.78518 -0.11696,-0.79627 -0.1303,-0.81045 -0.1432,-0.82462 -0.1564,-0.84234 -0.16878,-0.8614 -0.18078,-0.8818 -0.19278,-0.90394 -0.20471,-0.92831 -0.21582,-0.95446 -0.22684,-0.98236 1.49232,-0.3474 0.22782,0.98857 0.2176,0.96155 0.20645,0.93806 0.19539,0.91457 0.18349,0.8942 0.17148,0.87559 0.15902,0.85829 0.14665,0.84325 0.13375,0.82993 0.11966,0.81842 0.10676,0.80823 0.0918,0.80114 0.078,0.79406 0.0622,0.7905 0.0472,0.78741 0.0322,0.78651 0.0158,0.78697 v 0.78962 l -0.0173,0.79404 -0.0345,0.79894 -0.051,0.80735 -0.0697,0.81619 -0.0873,0.82684 -0.10496,0.83969 -0.12401,0.85432 -0.1432,0.86982 -0.16128,0.88798 -0.18168,0.90839 -0.20075,0.92919 -0.22068,0.95224 -0.24102,0.97794 -0.26194,1.00496 v -0.005 z m -1.48263,-0.38727 v -0.005 l -0.012,0.0478 0.0105,-0.0439 z m 3.06369,31.17397 1.4215,0.57164 -1.46891,-0.17636 -0.13121,-0.86675 -0.14485,-0.88884 -0.15767,-0.91015 -0.1693,-0.93053 -0.17808,-0.94825 -0.18619,-0.96464 -0.19181,-0.97971 -0.19676,-0.99345 -0.19939,-1.00497 -0.20028,-1.01561 -0.19984,-1.02491 -0.19766,-1.03199 -0.19359,-1.03821 -0.18792,-1.04263 -0.18122,-1.04574 -0.17148,-1.04751 -0.16129,-1.04751 -0.1489,-1.0466 -0.13465,-1.04353 -0.11921,-1.03954 -0.10196,-1.03377 -0.0825,-1.02712 -0.0615,-1.01915 -0.0397,-1.00985 -0.015,-0.99832 0.012,-0.98635 0.0397,-0.97264 0.069,-0.95799 0.10151,-0.94116 0.1348,-0.92344 0.17103,-0.90438 0.20779,-0.884 1.48263,0.38727 -0.19181,0.81399 -0.15865,0.83969 -0.12595,0.86317 -0.0952,0.88622 -0.0652,0.90661 -0.0375,0.92654 -0.0105,0.94382 0.0135,0.96021 0.0375,0.97439 0.06,0.98725 0.0807,0.99877 0.0993,1.00808 0.11651,1.01648 0.1321,1.02314 0.1462,1.02802 0.15866,1.03155 0.16975,1.03333 0.17853,1.03333 0.18612,1.03288 0.19277,1.03023 0.19578,1.02579 0.19894,1.02048 0.20036,1.01294 0.19938,1.00498 0.19677,0.99523 0.19271,0.98325 0.187,0.97083 0.17989,0.95626 0.1711,0.94115 0.16037,0.92343 0.14755,0.90571 0.13375,0.88535 -1.4689,-0.17637 z m 1.4215,0.57164 -1.06257,2.64089 -0.40634,-2.81725 z m 3.57099,-8.87548 -3.57099,8.87548 -1.4215,-0.57164 3.57099,-8.87544 1.46052,0.12985 z m 0.039,-0.44178 0.0472,0.22732 -0.0864,0.21446 z"
   style="fill:#ffffff;fill-rule:nonzero;stroke-width:0.375165"
   id="path14" />
  <path
   style="fill:#d51810;fill-rule:evenodd;stroke-width:0.375165"
   d="m 352.47327,247.05121 -26.2733,64.27044 -1.01996,-3.07167 -0.6448,1.52411 c 14.83437,30.699 44.11292,55.1243 77.13156,63.8015 l -12.08733,-31.68975 z m 49.1935,126.52438 c 33.03063,-8.68321 62.30091,-33.09319 77.14325,-63.8015 l -0.60963,-1.44204 -1.11373,2.93097 -26.2147,-64.21181 -36.98893,94.52982 z"
   id="path16" />
  <path
   style="fill:#ffffff;fill-rule:evenodd;stroke-width:0.375165"
   d="m 401.66954,363.02868 49.20287,-125.73952 28.17487,68.85514 -1.96579,5.12325 -26.20908,-64.2106 -49.20287,125.73803 -49.19914,-125.73803 -26.26526,64.26837 -1.78583,-5.35811 28.05109,-68.67805 z"
   id="path18" />
  <path
   style="fill:#d51810;fill-opacity:1;fill-rule:evenodd;stroke-width:0.375165"
   d="m 484.40841,183.92119 v 20.84642 h -72.31302 v 23.64815 h -20.90423 v -23.64815 h -72.313 v -20.84642 h 72.313 v -23.58775 h 20.90423 v 23.58775 z"
   id="path20" />
  <path
   style="fill:#231f20;fill-rule:nonzero;stroke-width:0.375165"
   d="m 412.09539,159.08264 1.25302,1.2508 -1.25302,-1.2508 h -20.90798 v 2.50048 h 20.90798 l -1.24927,-1.24968 h 2.50229 v -1.2508 z m -20.90423,70.5809 -1.25302,-1.24966 1.25302,1.24966 h 20.90423 v -2.50008 h -20.90423 l 1.24935,1.25042 h -2.50237 v 1.24966 z"
   id="path22" />
  <path
   d="m 485.65775,228.41388 v -68.08045 l -1.25137,-1.25091 h -165.528 l -1.25219,1.25091 v 121.03335 c 0,28.71118 16.28108,52.18805 37.94301,69.57056 8.52188,6.85752 18.37486,13.04733 28.2322,17.80807 5.17464,2.25012 12.1651,5.75375 17.86881,6.07591 5.70145,-0.31859 12.69943,-3.82759 17.87099,-6.07591 9.98988,-4.81704 19.56366,-10.89292 28.23046,-17.80807 21.52977,-17.37605 37.9896,-40.93349 37.88602,-69.57056 V 228.41403 Z M 320.12931,161.58312 h 163.02495 v 119.7836 c 0.008,28.02482 -15.97804,50.56585 -36.92861,67.66362 -8.89057,6.9138 -17.60515,12.55591 -27.75549,17.45271 -4.75763,2.21643 -11.51858,5.33413 -16.79995,5.83707 -5.2876,-0.50646 -12.03219,-3.61752 -16.79651,-5.83707 -10.01381,-4.83787 -19.00489,-10.59117 -27.75674,-17.45271 -20.94661,-16.93869 -37.03364,-39.76823 -36.98758,-67.66362 V 161.58304 Z m -1.25085,-2.50046 h -1.2522 v 1.2509 z m 164.27573,69.33124 1.25219,-1.25046 v 2.50001 z m 2.50356,-68.08044 v -1.25089 h -1.25137 z"
   style="fill:#000000;fill-rule:nonzero;stroke:none;stroke-width:0.375165"
   id="path24" />
  <path
   d="m 395.29927,346.52892 c 5.00353,-12.23998 1.07629,-23.98323 3.21521,-35.32369 3.16638,-13.4315 2.57002,-13.9322 -0.23667,-27.15721 -1.88006,-9.48649 3.52494,-18.99029 2.38482,-28.83484 -0.76032,-10.46267 -4.63447,-15.40333 0,-25.73041 l -5.01021,0.121 c -1.95589,5.2331 -2.62545,5.82597 -1.95942,11.91209 0.63627,4.65043 1.72456,9.14618 2.01793,13.82367 1.01029,9.76257 -4.1621,19.16796 -2.317,28.76569 2.71622,13.65217 3.41415,13.3265 0.11561,27.15857 -1.61691,8.42128 0.42938,17.30646 -1.66515,26.33122 z"
   style="fill:#ffffff;fill-rule:evenodd;stroke-width:0.375165"
   id="path26" />
  <path
   d="m 397.76788,311.02931 1.49058,0.35184 0.007,-0.0342 -0.17905,1.04088 -0.14755,1.04484 -0.11831,1.04884 -0.0913,1.05282 -0.0675,1.05725 -0.0457,1.06214 -0.0277,1.06611 -0.0105,1.071 0.007,1.07542 0.0135,1.07941 0.021,1.0843 0.0262,1.08871 0.0292,1.09314 0.0292,1.09804 0.0262,1.10156 0.0202,1.10688 0.0135,1.11132 v 1.11619 l -0.015,1.11973 -0.0292,1.12505 -0.0495,1.12948 -0.072,1.13348 -0.0975,1.13791 -0.12535,1.14323 -0.15731,1.14672 -0.1906,1.15079 -0.22774,1.15516 -0.26676,1.1596 -0.31018,1.1623 -0.35488,1.16668 -0.40282,1.17025 -0.45375,1.17249 -1.4179,-0.57961 0.43334,-1.11927 0.38415,-1.11619 0.33899,-1.11442 0.296,-1.11177 0.25609,-1.11 0.21807,-1.10819 0.1834,-1.10734 0.15107,-1.10513 0.12191,-1.10421 0.0939,-1.10333 0.0705,-1.10157 0.048,-1.10113 0.03,-1.10023 0.0135,-1.09936 v -1.09847 l -0.012,-1.09713 -0.0202,-1.09714 -0.0262,-1.09625 -0.0292,-1.09536 -0.0292,-1.09492 -0.0262,-1.09403 -0.021,-1.09404 -0.015,-1.0927 -0.007,-1.09226 0.012,-1.09226 0.0277,-1.09183 0.0472,-1.09049 0.069,-1.09092 0.0948,-1.09005 0.12265,-1.0896 0.15379,-1.08828 0.187,-1.08783 0.007,-0.0342 z m -0.007,0.0342 0.007,-0.0105 0.008,-0.0235 -0.008,0.0342 z m -0.23531,-26.86652 1.50304,-0.29777 -0.007,-0.0105 0.25609,1.20214 0.24333,1.13303 0.22992,1.06833 0.21672,1.00897 0.20201,0.95401 0.18836,0.90437 0.1741,0.86007 0.15865,0.81931 0.145,0.7843 0.12895,0.75461 0.11291,0.72848 0.0979,0.70719 0.0807,0.69169 0.0645,0.67973 0.0465,0.67175 0.0292,0.66909 0.0105,0.67043 -0.007,0.67529 -0.0262,0.68505 -0.045,0.69878 -0.0637,0.71695 -0.0828,0.73955 -0.10242,0.76658 -0.12146,0.79848 -0.1417,0.83482 -0.16128,0.87646 -0.18167,0.92211 -0.20164,0.97307 -0.22287,1.02846 -0.24372,1.08916 -0.26494,1.15474 -0.2867,1.22519 -1.4906,-0.35184 0.2849,-1.21898 0.26316,-1.14765 0.24199,-1.0803 0.22024,-1.01694 0.19893,-0.95888 0.17808,-0.90528 0.15776,-0.85608 0.13735,-0.81177 0.11801,-0.7719 0.0979,-0.73645 0.0793,-0.70587 0.06,-0.6806 0.0427,-0.6598 0.024,-0.64428 0.007,-0.63364 -0.0105,-0.62878 -0.0277,-0.62832 -0.0442,-0.63365 -0.0607,-0.64339 -0.0771,-0.6589 -0.0934,-0.67884 -0.10946,-0.70365 -0.12551,-0.73334 -0.14125,-0.76748 -0.15692,-0.80689 -0.17148,-0.84944 -0.18739,-0.89729 -0.20118,-0.95047 -0.2158,-1.00628 -0.23001,-1.06834 -0.24318,-1.13392 -0.257,-1.20481 -0.008,-0.0105 z m 0,0.0105 v -0.0135 0.003 z m 2.37019,-28.93852 1.5278,-0.11081 -0.007,-0.0328 0.0913,0.95224 0.054,0.94825 0.0195,0.9447 -0.0135,0.94116 -0.0405,0.93718 -0.0675,0.93319 -0.0904,0.92919 -0.11112,0.92609 -0.1294,0.92167 -0.145,0.91856 -0.15776,0.91457 -0.16795,0.91192 -0.17591,0.90793 -0.18032,0.90483 -0.18342,0.90217 -0.18303,0.89819 -0.18079,0.89596 -0.17545,0.89198 -0.16796,0.88976 -0.15729,0.88621 -0.1453,0.88312 -0.13075,0.88046 -0.11261,0.87779 -0.093,0.8747 -0.0712,0.87115 -0.0465,0.86938 -0.0195,0.86583 0.009,0.86318 0.0405,0.86141 0.075,0.85873 0.11066,0.85698 0.1498,0.85563 -1.50304,0.29778 -0.16128,-0.923 -0.11966,-0.92255 -0.0802,-0.92079 -0.0435,-0.91901 -0.0105,-0.91722 0.021,-0.91546 0.048,-0.91369 0.0742,-0.91192 0.0966,-0.91014 0.11696,-0.90881 0.1342,-0.90705 0.1489,-0.90528 0.16089,-0.90394 0.17058,-0.90304 0.17727,-0.90174 0.18168,-0.90039 0.18302,-0.89995 0.18252,-0.89862 0.17943,-0.89773 0.17327,-0.8973 0.16534,-0.89597 0.15414,-0.89596 0.1414,-0.89464 0.12581,-0.89419 0.10766,-0.89331 0.0868,-0.89286 0.0637,-0.89243 0.039,-0.89198 0.012,-0.89152 -0.018,-0.89154 -0.051,-0.89153 -0.085,-0.89198 -0.007,-0.0328 z m 0.007,0.0328 v -0.0328 l 0.007,0.0328 z m 0.77945,-25.05291 -0.0375,-1.53138 0.71735,1.07941 -0.40012,0.93052 -0.35317,0.89906 -0.30754,0.87116 -0.26496,0.84323 -0.22421,0.81886 -0.1861,0.79627 -0.1498,0.77588 -0.11606,0.7586 -0.0841,0.74223 -0.0547,0.73023 -0.0277,0.71961 -0.007,0.71075 0.0225,0.70543 0.0427,0.70143 0.063,0.70056 0.0802,0.701 0.0961,0.70453 0.11036,0.70943 0.12175,0.71651 0.13211,0.7258 0.1396,0.73644 0.145,0.7493 0.14844,0.76437 0.1498,0.78075 0.1498,0.79982 0.14575,0.81974 0.14095,0.84235 0.13285,0.86629 0.12401,0.89152 0.11171,0.92034 0.0975,0.9487 0.0816,0.98059 -1.5278,0.11081 -0.0789,-0.94958 -0.0948,-0.92033 -0.10811,-0.89287 -0.12056,-0.86761 -0.1303,-0.84499 -0.13736,-0.82464 -0.14395,-0.80556 -0.14709,-0.78917 -0.1489,-0.77546 -0.14845,-0.76345 -0.14575,-0.75284 -0.14125,-0.74532 -0.13375,-0.73999 -0.12536,-0.73511 -0.11381,-0.73423 -0.10061,-0.73469 -0.0846,-0.73643 -0.0667,-0.74133 -0.0457,-0.74663 -0.0225,-0.75417 0.007,-0.76393 0.0292,-0.77455 0.0592,-0.78695 0.0913,-0.80159 0.12491,-0.81709 0.16126,-0.83437 0.19939,-0.85387 0.2393,-0.87381 0.28093,-0.8964 0.32607,-0.92078 0.37094,-0.94693 0.41963,-0.97484 0.71735,1.07941 z m -0.0375,-1.53138 1.21498,-0.0292 -0.49763,1.10865 z m -5.0102,0.121 5.0102,-0.121 0.0375,1.53138 -5.0102,0.121 -0.73603,-1.03378 0.69883,-0.4976 z m -0.69883,0.4976 0.18123,-0.4852 0.5176,-0.012 -0.69883,0.49761 z m -0.48301,12.07649 -1.51804,0.20738 -0.007,-0.0204 -0.0592,-0.56096 -0.051,-0.53173 -0.0435,-0.50426 -0.0367,-0.47856 -0.027,-0.45596 -0.0195,-0.43336 -0.0135,-0.4143 -0.007,-0.39704 0.007,-0.38106 0.012,-0.366 0.0202,-0.35404 0.0285,-0.34343 0.0375,-0.33454 0.045,-0.32658 0.0532,-0.31947 0.0615,-0.31506 0.0697,-0.31195 0.0775,-0.30971 0.0855,-0.3093 0.0931,-0.31107 0.10016,-0.31283 0.10722,-0.31771 0.11441,-0.32523 0.1213,-0.33323 0.12806,-0.34385 0.13555,-0.35671 0.1426,-0.37088 0.14935,-0.38726 0.15686,-0.40635 0.16346,-0.42759 0.17148,-0.4493 0.1786,-0.47413 1.43477,0.53615 -0.18033,0.48034 -0.17328,0.45463 -0.16525,0.42937 -0.15686,0.40811 -0.14935,0.38639 -0.14095,0.36734 -0.13286,0.3496 -0.1246,0.33411 -0.11696,0.31991 -0.10811,0.30753 -0.10017,0.29733 -0.0922,0.288 -0.0841,0.28095 -0.0757,0.2756 -0.069,0.2734 -0.0615,0.27296 -0.054,0.27429 -0.0465,0.27782 -0.0397,0.28403 -0.0322,0.29202 -0.0262,0.30352 -0.0172,0.31504 -0.012,0.33146 -0.007,0.34738 0.007,0.36603 0.012,0.38683 0.0195,0.40943 0.0262,0.4338 0.0345,0.45995 0.042,0.48742 0.0502,0.51754 0.0577,0.54858 -0.007,-0.0204 z m -1.51804,0.20738 v 3.9e-4 l -0.007,-0.0208 0.007,0.0204 z m 3.5386,13.64106 -1.52336,0.15775 v -0.031 l -0.0292,-0.42981 -0.0337,-0.42981 -0.0375,-0.42849 -0.042,-0.42849 -0.045,-0.42804 -0.0495,-0.42715 -0.0525,-0.42716 -0.0555,-0.42715 -0.0577,-0.42716 -0.0607,-0.42672 -0.063,-0.42627 -0.0652,-0.42715 -0.0675,-0.42671 -0.069,-0.42672 -0.0712,-0.42715 -0.072,-0.42804 -0.0735,-0.42761 -0.0735,-0.42804 -0.075,-0.42849 -0.075,-0.42937 -0.075,-0.42981 -0.075,-0.43026 -0.0742,-0.43114 -0.0742,-0.4316 -0.0735,-0.43334 -0.072,-0.43293 -0.0712,-0.43468 -0.0697,-0.43514 -0.0682,-0.43691 -0.066,-0.43779 -0.0637,-0.43822 -0.0622,-0.44045 1.51804,-0.20738 0.06,0.43069 0.063,0.43116 0.0645,0.42981 0.0667,0.42981 0.069,0.42981 0.0705,0.42939 0.072,0.42937 0.0727,0.42893 0.0735,0.42892 0.0742,0.42937 0.075,0.42938 0.075,0.42982 0.075,0.42936 0.075,0.43026 0.0742,0.43071 0.0727,0.43114 0.0727,0.4307 0.072,0.43159 0.0697,0.43291 0.0682,0.43291 0.0667,0.43425 0.0645,0.43513 0.0615,0.43559 0.06,0.43601 0.0562,0.43779 0.054,0.4378 0.0502,0.44044 0.0472,0.44046 0.0427,0.44177 0.0397,0.44356 0.0345,0.44488 0.03,0.44576 v -0.031 z m -1.52336,0.15775 v -0.031 l 0.007,0.031 z m -0.80423,28.53752 -1.50214,0.29866 v -0.004 l -0.1582,-0.93097 -0.11786,-0.9292 -0.0807,-0.92699 -0.045,-0.92432 -0.0135,-0.92166 0.0173,-0.91901 0.0442,-0.9159 0.069,-0.91414 0.0909,-0.91103 0.11037,-0.9088 0.12715,-0.90661 0.14185,-0.90483 0.15332,-0.90216 0.16308,-0.90085 0.17014,-0.89907 0.17455,-0.89685 0.17643,-0.89597 0.17636,-0.89463 0.17321,-0.89286 0.1684,-0.89197 0.16037,-0.8911 0.15117,-0.88932 0.13825,-0.88887 0.124,-0.88842 0.10722,-0.88712 0.0877,-0.88666 0.0667,-0.88576 0.0427,-0.88534 0.0165,-0.88533 -0.012,-0.88489 -0.0412,-0.88531 -0.0742,-0.88534 1.52335,-0.15774 0.0798,0.94293 0.0442,0.93939 0.012,0.93541 -0.0173,0.93228 -0.045,0.92788 -0.069,0.92477 -0.0912,0.92121 -0.11082,0.91725 -0.1276,0.91412 -0.14185,0.91104 -0.15371,0.90793 -0.16307,0.90437 -0.17013,0.90263 -0.17502,0.89907 -0.17643,0.8964 -0.17635,0.89419 -0.17275,0.89154 -0.16841,0.88931 -0.16038,0.88665 -0.1507,0.88447 -0.13825,0.88266 -0.12356,0.88001 -0.10676,0.87868 -0.0873,0.87647 -0.066,0.87425 -0.042,0.87337 -0.0165,0.87115 0.0135,0.86938 0.0427,0.86938 0.0753,0.86761 0.10991,0.86716 0.14755,0.86716 v -0.005 z m -1.50214,0.29866 v -0.004 l -0.0105,-0.0537 0.0105,0.0585 z m 1.61908,27.15367 -1.50476,-0.2889 0.007,-0.0333 0.29682,-1.25354 0.27343,-1.17512 0.25078,-1.10158 0.22871,-1.03288 0.20643,-0.96908 0.18385,-0.91058 0.16316,-0.85653 0.14185,-0.80823 0.12086,-0.76481 0.10151,-0.7258 0.0811,-0.69258 0.0622,-0.66511 0.0435,-0.64207 0.0255,-0.62567 0.007,-0.61414 -0.0105,-0.6084 -0.027,-0.60794 -0.0435,-0.61459 -0.06,-0.62611 -0.0762,-0.64251 -0.0927,-0.66465 -0.10901,-0.69214 -0.124,-0.72492 -0.13961,-0.76259 -0.15461,-0.80513 -0.16975,-0.85299 -0.1834,-0.90526 -0.19721,-0.96242 -0.2114,-1.02492 -0.22412,-1.09225 -0.23668,-1.16494 -0.24897,-1.24204 1.50206,-0.29865 0.24815,1.2376 0.23659,1.16139 0.22339,1.09049 0.2114,1.02491 0.19803,0.96509 0.1843,0.90968 0.17058,0.86008 0.15739,0.81665 0.1423,0.77765 0.1276,0.74355 0.11246,0.71606 0.0961,0.69391 0.0807,0.6744 0.0637,0.66245 0.0465,0.65359 0.0292,0.65049 0.0105,0.65181 -0.009,0.65757 -0.027,0.66731 -0.0457,0.68283 -0.0652,0.70234 -0.0855,0.72714 -0.10497,0.75682 -0.12535,0.7914 -0.1462,0.83127 -0.16661,0.87602 -0.18745,0.92654 -0.20914,0.98326 -0.23037,1.04353 -0.25257,1.10954 -0.27521,1.18133 -0.29864,1.25886 0.007,-0.0333 z m -1.50476,-0.2889 v -0.009 l 0.007,-0.0249 -0.007,0.0333 z m -0.19849,26.19966 -1.42862,0.55214 -0.0322,-0.44933 0.18033,-0.82594 0.15776,-0.82641 0.1378,-0.8255 0.11741,-0.82596 0.10016,-0.82595 0.0828,-0.82596 0.0675,-0.82639 0.054,-0.82597 0.0412,-0.82638 0.03,-0.82507 0.0202,-0.82639 0.012,-0.82507 0.008,-0.82551 v -0.82552 l -0.008,-0.82417 -0.007,-0.82463 -0.009,-0.82329 -0.0105,-0.82375 -0.007,-0.8224 -0.007,-0.82242 v -0.82237 l 0.007,-0.8202 0.0135,-0.82019 0.021,-0.8193 0.0315,-0.81843 0.0427,-0.81752 0.0562,-0.8171 0.0705,-0.81487 0.0868,-0.81487 0.10451,-0.81312 0.12446,-0.81177 0.1441,-0.81045 1.50475,0.28891 -0.1378,0.77145 -0.11831,0.77544 -0.10016,0.77854 -0.0834,0.78297 -0.0682,0.78653 -0.0547,0.79049 -0.0412,0.7945 -0.0307,0.79805 -0.021,0.80157 -0.0105,0.80513 -0.007,0.80868 v 0.8122 l 0.007,0.81533 0.007,0.81886 0.009,0.82198 0.0105,0.82506 0.007,0.82817 0.007,0.83126 v 0.83438 l -0.007,0.83704 -0.012,0.84013 -0.0203,0.84234 -0.0307,0.84545 -0.0427,0.84768 -0.0555,0.85076 -0.0705,0.85299 -0.0855,0.85519 -0.10376,0.85786 -0.12266,0.85964 -0.1432,0.86183 -0.16578,0.86362 -0.18827,0.86493 -0.0322,-0.4493 z m -1.42862,0.55214 -0.085,-0.22023 0.0532,-0.2291 0.0322,0.44933 z m 3.45489,8.93395 -3.45489,-8.93395 1.42862,-0.55214 3.45489,8.93397 -0.007,0.56586 -1.4233,-0.0135 z m 1.4233,0.0135 -0.72846,1.78261 -0.69484,-1.79635 1.4233,0.0135 z"
   style="fill:#ffffff;fill-rule:nonzero;stroke-width:0.375165"
   id="path28" />
  <path
   style="fill:#231f20;fill-rule:nonzero;stroke-width:0.375165"
   d="m 318.87816,229.66354 -1.24927,-1.24966 1.24927,1.24966 h 165.53025 v -2.50008 H 318.87816 l 1.25302,1.25042 h -2.50229 v 1.24966 z"
   id="path30" />
  <path
   d="m 352.23404,276.60231 c 7.66538,0.46571 8.74211,10.68069 1.24912,12.6862 -8.35121,1.13746 -10.82424,-10.25929 -2.56072,-12.56832 z m 98.87848,0 c -7.66664,0.46394 -8.74563,10.67757 -1.2522,12.6862 8.35303,1.13746 10.82426,-10.26106 2.55893,-12.56832 z m -98.87848,23.64627 c 7.66538,0.46127 8.74211,10.68421 1.24912,12.6853 -8.35256,1.13259 -10.82913,-10.24689 -2.56072,-12.56656 l 1.3116,-0.11875 z m 98.87848,0 c -7.66484,0.4595 -8.74563,10.68289 -1.2522,12.6853 8.35438,1.13259 10.82734,-10.24864 2.55893,-12.56656 l -1.30673,-0.11875 z"
   style="fill:#fedc00;fill-rule:evenodd;stroke-width:0.375165"
   id="path32" />
  <path
   style="fill:#000000;fill-rule:nonzero;stroke:none;stroke-width:0.375165"
   d="m 317.62889,228.41388 h 2.50229 l -1.25302,1.24966 h 165.53025 v -2.50008 H 318.87816 l -1.24927,1.25042 1.24927,-1.25042 h -1.24927 z"
   id="path34" />
  <path
   d="m 361.77032,50.675819 -0.65652,0.71516 -0.77383,1.00826 -0.30478,0.36344 -0.29315,0.17586 -0.59786,-0.11726 -1.00824,-0.30483 -1.02003,-0.0586 h -2.13375 l -0.66823,0.0586 v 0.42206 l 0.42203,0.42207 0.77376,1.18411 0.30485,1.13723 0.29308,1.25444 0.17591,1.1255 0.11711,0.77378 -0.46891,0.65654 -0.36344,0.59792 c -1.59216,2.67901 -1.63656,4.85121 -3.15377,7.26881 -1.03069,1.29921 -2.53681,1.72772 -4.04472,2.7903 l -0.53935,0.36344 -0.30477,0.59791 0.18753,0.94963 0.29316,1.00827 0.59793,0.96137 0.41031,0.94963 0.12896,0.59791 0.23449,0.46896 0.65651,0.5393 0.83242,0.42206 0.71517,0.52758 0.59793,0.59791 0.11726,0.59793 0.83236,0.35172 h 1.37169 l 1.66483,-0.23448 1.60612,-0.23448 0.65659,0.11726 0.65651,0.35171 0.77376,0.5393 0.11726,0.83239 0.36344,1.25446 0.891,1.19583 1.00834,1.1255 c 3.26787,2.39678 0.54392,0.25083 2.62613,4.7599 1.04876,2.00905 1.71781,2.7436 2.32129,5.00611 l 0.89107,1.969618 4.05642,4.115087 0.46898,0.293086 0.96137,0.5393 0.83234,0.5862 0.89101,0.5393 0.94967,0.65653 0.36344,0.29311 0.35174,1.0786 0.36344,1.25446 0.23449,1.18411 c 0.82986,5.23843 1.03885,8.09675 0.83234,13.47076 -0.58397,6.26601 -1.63408,4.35954 -5.77984,7.02263 -1.35278,1.37539 -0.82537,1.58139 -2.49719,3.27097 l -0.65659,0.5393 -0.891,0.17586 -1.07862,1.25444 -1.06683,0.94965 -1.1958,0.89101 c -3.51211,2.8749 -8.66776,4.61772 -10.23501,9.23844 l -0.36345,0.89101 -0.48068,0.83241 -0.41032,0.65653 -0.42202,0.59791 -0.83242,0.65655 -0.89102,0.41034 -0.11726,0.18757 -0.65659,0.59793 -0.42202,1.43032 -0.52756,0.41033 c -2.86161,2.96617 -3.61069,5.40975 -1.13728,8.81637 1.79462,2.01837 8.39698,1.97057 10.53987,0.94964 2.2111,-0.69567 5.85628,-2.38591 7.86672,-2.67304 1.05011,-1.19862 3.3455,-2.00913 4.88882,-2.20411 3.17981,-0.55033 7.77438,-0.70415 10.53981,-1.79375 5.31949,-2.53104 10.92905,-1.73442 16.6128,-1.48894 h 2.0282 l 1.96962,-0.23447 1.84068,-0.17586 1.85237,-0.5393 1.54753,0.71516 c 2.16683,1.16847 5.96264,1.42279 8.45294,1.84065 9.7781,0.10331 4.77052,0.0372 12.50941,1.96962 l 0.89102,0.2462 1.01994,0.17585 0.94967,0.0586 1.06691,0.0586 0.65651,0.2931 c 2.53237,1.13481 4.20412,1.45113 6.97572,1.43032 l 0.41031,0.89102 1.19586,0.90274 1.43035,0.70343 1.48895,0.30482 1.48893,0.23448 0.77376,0.2462 h 0.71517 l 1.48895,0.23448 1.43027,0.0586 h 1.54752 l 1.3131,-0.29308 0.65653,-0.24622 0.53933,-0.5393 c 2.9502,-3.51029 1.61106,-10.52576 -2.33306,-12.97835 -4.15506,-3.4988 -5.06452,-3.35765 -7.02265,-8.58189 -3.68263,-5.61953 -4.15972,-0.8401 -3.75164,-9.4612 0.61773,-5.43784 -2.06361,-5.06949 -1.66477,-11.32529 v -4.16199 l -1.44204,-1.79376 -0.83244,-2.08686 c -1.24423,-4.29326 0.68225,-8.5525 1.37178,-12.743876 1.48346,-4.004805 0.6235,-5.125075 0.36335,-8.933605 -0.23748,-2.85626 0.96063,-1.73382 1.06692,-5.95574 0.69574,-1.46625 0.98996,-3.46804 1.96962,-4.46681 0.75509,-1.31606 1.69471,-2.88446 1.54759,-4.46681 h 0.35167 l 0.0585,-3.21235 0.18753,-0.2462 0.4104,-1.54756 v -0.83239 l -0.0585,-0.89102 v -0.30482 l -0.17582,-1.00825 c -1.14239,-2.97239 0.66603,-1.47538 -1.73513,-5.18197 -1.70603,-2.02502 -2.35295,-1.42711 -4.39653,-3.75165 l -0.59786,-0.17586 -0.24627,-0.11726 -0.83234,-0.0586 -1.12549,-0.84411 -0.59793,-0.17586 h -0.48069 l -0.89102,0.17586 -0.891,-0.35173 -0.59793,-0.30481 h -0.17583 l -0.48076,0.36344 -1.8406,0.11726 h -0.891 l -0.71518,0.36344 c -1.78269,0.88266 -3.903,1.64756 -5.83849,2.61442 l -0.96138,0.5393 -0.83241,0.5393 -0.71519,0.77379 -0.94959,0.46894 -0.2462,0.5393 -0.41031,0.77379 -0.83242,0.5393 -0.94968,0.41033 -0.59793,0.71516 -0.23441,0.5393 0.0585,0.29309 -0.42203,0.90274 -1.0669,1.00826 0.11726,0.35172 -0.36345,0.84413 -0.4689,0.58619 -0.598,0.71516 -0.48061,0.84412 -0.0585,0.46895 0.1759,0.2462 c -1.84825,4.37705 0.92258,1.95611 -2.32136,5.76816 l -3.8103,0.36345 -1.3131,-0.17586 -1.48886,-0.36344 -1.3131,-0.17586 -1.35999,-0.30482 -1.31303,-0.35172 -1.37177,-0.42206 -1.48887,-0.41034 c -3.85462,-1.2484 -4.03571,-1.79085 -7.02266,-3.45872 l -0.9027,-0.94963 -0.35174,-0.42207 -0.23449,-0.23447 -0.78553,-0.5393 -0.89102,-0.46896 -0.41031,0.11726 -0.30479,0.2931 -0.29314,-0.65655 v -0.59791 l -0.65652,-0.17586 -0.11726,-0.8324 -0.0585,-0.48067 -0.17592,-0.11726 -0.12896,-0.0586 -0.29307,-0.5393 -0.59793,-0.52758 -0.41033,-0.30482 -0.36344,-0.58619 -0.23449,-0.18759 -0.18761,-0.11726 -0.17583,-0.65654 -0.94966,-0.17586 -0.29308,-0.17586 v -0.30481 l -0.12895,0.12896 -0.891,-0.96138 -0.11726,-0.48067 -0.2345,-0.0586 -0.1876,0.18759 -0.52758,-0.36345 -0.36344,-0.83238 -0.29307,0.36342 -0.0585,-0.12895 -0.65659,-0.52758 -0.36344,-0.77377 -0.23449,0.0586 -0.48069,-0.36344 -0.17582,-0.71516 -0.35174,0.12895 -0.48068,0.11726 -0.29309,-0.5393 -0.17583,0.11726 -0.1876,0.65655 -0.42202,0.5393 -0.70348,-1.19585 -0.36344,0.30481 -0.0585,-0.12895 -0.35173,-0.3517 -0.36345,-0.65655 -0.4221,0.65655 -0.76206,-0.8324 -0.53926,0.71515 -0.48068,-0.65654 -0.35175,0.41035 -0.42202,-0.17586 -1.18415,-0.65655 -0.84413,-0.46896 c -2.06571,-1.49947 -4.77939,-2.06305 -6.42466,-4.11509 z m 50.20175,52.112751 1.31311,0.48067 0.7151,1.00826 0.0585,0.12896 c -0.048,8.80456 16.48241,6.77103 7.09294,21.02096 -2.33299,0.18034 -3.70812,-0.98319 -5.89708,-0.89102 -3.56658,-0.25833 -7.17771,0.0385 -10.72741,0.41033 -5.77152,1.07411 -10.47657,-0.22013 -16.37831,1.48894 l -0.17583,-0.65653 0.17583,-0.46896 1.07861,-0.89102 0.52758,-1.31307 c 0.79716,-2.02501 0.91216,-4.19195 1.54751,-6.3778 l 0.48069,-1.06688 0.59793,-1.19584 1.00826,-0.94963 0.30484,-0.65655 0.35167,-0.77377 0.0585,-0.77379 0.36345,-1.66479 0.46897,-1.43032 1.07854,-1.0786 0.77383,-0.35171 h 1.89927 l 0.96137,-0.11726 c 1.61465,0.0222 2.9964,-0.68499 4.58405,-1.01997 1.58097,-0.48787 3.11162,-1.44922 4.81847,-1.9579 l 1.07862,-0.42207 1.3131,-0.35171 z m 18.76994,13.8811 0.94968,0.30482 0.7151,0.59791 0.1291,0.23449 c 0.44482,1.51898 1.1141,3.77021 1.72335,5.18197 0.61593,2.48761 1.93459,2.9569 1.43034,6.01435 l -0.59793,0.0586 h -1.06683 l -1.02003,-0.35171 -1.06683,-0.59792 -0.96137,-0.36344 -0.59793,-0.17586 -2.13375,-0.48069 c 0.44842,-3.52182 0.0894,-7.50601 2.49718,-10.42255 z"
   style="fill:#000000;fill-rule:evenodd;stroke:none;stroke-width:0.375165"
   id="path36" />
  <path
   d="m 364.26938,56.751549 0.47409,0.29688 0.35713,0.23929 0.89514,0.77366 0.59418,1.07277 0.53702,1.1308 0.35803,1.13303 -0.29689,0.47545 -0.59816,0.23796 -1.60716,-1.01161 -1.07231,-1.13303 -0.53612,-0.0589 0.17853,-0.29688 -0.11786,-0.17857 -0.4179,-0.29822 -0.35751,-0.65447 -1.25092,-0.59687 -0.65404,-0.59509 v -0.35715 c -0.0846,-2.15261 0.4497,-3.18152 1.19196,-5.06427 0.76746,1.694 0.97127,1.98468 1.48841,3.93124 l 0.83437,0.95401 z"
   style="fill:#ffffff;fill-rule:evenodd;stroke-width:0.375165"
   id="path38" />
  <path
   style="fill:#ffffff;fill-rule:evenodd;stroke-width:0.375165"
   d="m 357.59517,57.109079 -0.77287,-1.31157 -0.36013,-1.1919 v -0.35716 l 0.36013,0.18009 0.41647,0.35752 0.89288,0.71469 0.59276,0.83287 z"
   id="path40" />
  <path
   d="m 365.39864,54.965019 0.0592,-0.12011 0.59643,0.12011 0.35585,0.35714 0.0607,0.11966 0.41646,0.2375 0.95275,0.41654 1.13119,0.65579 c 2.46681,1.21279 0.99213,2.88995 2.02507,4.05133 l 0.77496,-0.53793 0.53657,0.29866 0.77376,-0.11786 0.83256,-0.12011 0.0607,0.41652 0.3594,0.29865 h 0.95086 l 0.53619,0.53617 0.65577,0.41652 0.59643,0.11786 0.0577,-0.17857 0.17862,0.0607 0.29862,0.35714 0.47678,0.53615 0.65404,-0.11965 0.18078,0.17858 0.29646,0.2982 h 0.8937 l 0.29825,0.71518 0.47723,0.0585 0.47544,-0.0585 0.29817,0.35714 0.29691,0.2969 0.89378,0.41829 0.59643,0.71474 0.23795,-0.0594 0.59507,0.29688 0.35894,0.41652 0.65449,0.83437 0.59508,0.89508 0.47679,1.1317 0.53612,0.89331 v 0.53615 l 0.47722,0.2969 h 0.17682 l -0.23705,0.29776 -0.47587,0.17724 -1.49203,0.18079 -0.77225,0.11786 v 0.17857 h 0.29682 l 0.47543,0.18034 1.13443,0.35583 0.77233,0.23927 -1.07059,0.17725 -1.01334,0.17856 h -0.11786 v 0.23929 l 0.29509,0.23795 0.95403,0.17857 0.71517,0.18078 -1.1312,0.41475 -0.89378,0.35714 -0.11965,0.29867 h 0.18034 l 0.47542,0.29643 1.13308,0.17991 0.65449,0.17945 -0.95311,0.17858 h -0.83446 l -0.18033,0.1192 0.18033,0.65269 0.65584,0.12146 0.11786,0.0589 1.49021,0.11831 -0.3585,0.17991 -0.53483,0.29865 -1.55091,0.23793 -1.00982,0.11786 v 0.53794 l 0.29825,0.11786 0.5344,0.0589 1.1312,0.17858 0.89378,0.12011 c -1.11357,0.475 -3.21829,0.16883 -4.11027,1.1308 l 0.24101,0.17902 4.2264,-0.29822 -0.95223,1.13259 -1.25264,0.41654 -0.2951,0.11965 h -0.95402 l -0.59688,0.2375 -0.0577,0.0607 0.0577,0.17726 0.35894,0.23927 0.59681,0.35714 0.53447,0.0594 -1.72636,0.47722 -1.31168,0.47547 -0.29683,0.11966 0.1183,0.17857 0.17853,0.23752 0.71518,0.23927 h 0.5965 l -0.5965,0.41519 -0.29864,0.29998 v 0.17857 l 0.18042,0.35626 0.47362,0.23929 -0.53438,0.2375 -0.2375,0.53617 0.29826,0.29865 -0.59696,0.29644 0.11966,0.23928 -0.83437,1.07231 -0.59508,0.17901 0.11786,0.23707 0.35939,0.23795 0.53574,-0.11966 0.89371,-0.35537 0.4737,-0.83481 0.47724,-0.89199 0.47859,-0.71606 0.47716,-0.29733 0.89025,-1.37051 0.83609,-1.01296 v -0.41652 c 1.12993,-1.80612 2.668,-0.61946 4.28708,-1.60849 l 0.41836,0.17857 0.71337,0.23796 0.77548,0.35936 0.89372,0.41475 0.77496,0.23928 0.29869,0.35714 -0.65404,0.83305 -0.18032,0.77543 v 0.17858 l 0.18032,0.35759 0.17547,0.59508 -0.35579,1.13126 0.18032,1.13259 0.17547,0.17902 0.23756,0.35581 0.41783,0.83438 0.59688,0.29865 -0.29826,0.23927 -0.29862,0.47502 -0.29818,1.07232 -0.713,0.65624 0.35579,0.53572 0.0592,0.41652 -0.41475,0.41653 -1.4317,0.89331 -0.29819,0.715168 0.29819,0.11786 -0.11786,0.29865 -1.13128,0.834367 -0.53612,0.95269 v 0.29821 l 0.29682,0.17857 0.29826,0.11966 -0.29826,0.17724 -0.41646,0.29821 -0.77413,1.07234 -0.41611,0.952666 0.47371,0.35715 h 0.41827 l -0.41827,0.95446 v 0.71472 l 0.29818,0.11786 -0.65225,1.07233 -0.18032,0.95446 v 0.17679 l 0.35578,0.12011 0.29826,-0.17769 -0.11966,0.41654 v 2.50044 l -0.35407,1.13304 0.65224,0.47723 -0.5344,0.95046 -0.23748,0.71651 v 0.29865 l 0.29509,0.0589 h 0.65584 l 1.31161,-0.47679 0.89371,-0.35936 0.23756,-0.71296 -0.11965,-0.59553 v -0.23795 l 0.23921,-0.23929 0.17681,-0.65402 0.18033,-1.42946 0.7148,-0.89375 0.77586,-1.84777 0.7737,-1.25089 -0.12101,-0.29688 0.53574,-0.65581 0.23931,-0.47634 v -0.23972 l -0.47732,-0.23618 0.35631,-0.17857 0.18034,-0.35758 -0.41475,-0.834376 0.41475,-0.65403 0.41781,-0.47722 0.11786,-0.47591 -0.11786,-0.0603 0.65404,-0.95269 0.29871,-0.834367 -0.11965,-0.17902 0.11965,-1.012938 0.29645,-0.89376 0.12131,-0.17858 0.77234,-0.2375 0.59554,-0.11965 0.06,-0.17903 -0.06,-0.53438 0.06,-0.71474 1.37049,-0.83436 0.59508,-0.89375 0.47724,0.23795 h 0.53618 l 0.0592,-0.0594 0.2393,-0.65404 0.29645,-0.65579 0.17727,0.47545 0.23928,0.53794 0.77541,-0.65625 0.71517,-0.41786 h 0.17855 l -0.47897,1.54912 v 1.07232 l 0.11966,0.23795 0.77586,-0.17857 0.23623,-0.59509 0.1222,-0.0607 0.65442,-0.41519 0.53619,-0.17991 0.23794,-0.0594 1.25047,-1.60848 1.25092,-0.0603 0.8937,-0.1768 0.29691,-0.17901 -0.29691,1.07187 v 0.95269 l 0.18034,0.17857 0.713,-0.35715 0.41827,-0.59509 0.17726,-0.0607 v 0.29867 l -0.17726,0.59509 v 1.07187 l 0.17726,0.95446 h 0.17726 l 0.53747,0.0589 h 1.01162 l 0.65449,-0.71473 -0.11696,0.6558 0.17725,0.47724 0.89507,-0.41831 v 0.41831 l 0.23748,0.29643 0.53485,-0.29643 0.71517,-0.89508 0.47642,-0.95269 0.42007,-0.89375 0.65135,-1.19196 0.41916,-0.29822 -0.41916,-0.53483 h -0.65135 l -0.42007,0.17902 0.0607,-0.47678 0.17852,-0.65625 0.71474,-1.42814 0.59687,-1.01294 0.23622,0.11966 1.54909,-0.89508 0.0592,0.29866 0.17862,0.17989 0.65577,-0.47855 0.47684,-0.47546 0.0577,-0.11965 0.2411,0.41785 h 0.47544 l 0.77368,-0.89331 v 0.77367 l 0.35803,0.47679 1.01119,-0.47679 0.53612,-0.11966 0.18033,0.23927 1.00983,-0.41784 0.83924,-0.23795 0.23314,0.23795 0.0592,0.41784 -0.1768,0.77235 -0.53613,0.83482 -0.41833,0.65579 -0.23616,0.71608 0.11831,0.41474 1.31027,-0.41474 1.07051,0.17723 0.30305,0.23751 -0.0607,0.59686 -0.0607,0.71518 -1.07232,0.89286 -0.4179,0.95269 0.1768,0.23928 -0.1768,0.41519 -0.17546,0.59642 v 1.60848 l 0.29337,1.01339 0.71645,0.35715 0.65586,-0.0607 0.0607,-0.17681 0.0607,0.29688 0.23442,0.298218 0.71472,-0.0603 0.65891,0.11786 -0.0622,1.25222 0.18085,1.013387 v 0.29645 l 0.23615,0.17901 c 0.96197,-0.67618 2.54167,-2.601027 3.51338,-3.216965 l -0.35585,-0.95401 0.41609,-1.24912 -0.41609,-0.41653 h -0.53612 l 0.23576,-0.23927 0.30036,-0.65581 v -0.59509 l 0.29517,-1.3692 0.30178,-0.29865 v -0.29645 l 0.2951,-1.01337 0.11966,-0.71429 0.24102,-0.77412 0.0585,-0.71651 -0.0585,-0.53616 0.65404,-0.71473 0.29817,-0.7134 0.17862,-0.83438 0.11831,-0.83304 v -1.84777 l -0.29691,-1.72636 -0.12086,-1.55087 -0.77278,-1.24912 -0.71428,-0.83437 -0.0607,-0.17859 -1.07232,0.0585 -1.01336,0.29867 -0.1768,-0.0594 0.47678,-0.8933 0.41339,-0.47723 0.0592,-0.29645 -1.48578,0.5951 -1.24957,0.71474 h -0.35893 l 1.01297,-1.19197 0.65449,-1.01162 0.11831,-0.17857 h -0.53656 l -0.35857,0.41653 -0.77271,0.59509 -0.83436,0.6558 -0.83573,0.59643 -0.76971,0.47545 -0.53882,0.17902 1.24919,-2.67903 -0.29554,0.29688 -0.41476,0.35758 -1.07502,1.13303 -0.71165,0.7719 -0.89685,0.59508 -0.65576,0.47724 h -0.23441 l 0.35405,-1.07232 0.12086,-0.7719 -0.24056,-0.0612 -0.29691,0.29822 -0.35758,0.47545 -0.95358,1.01382 -0.89062,0.65404 0.47544,-1.30983 0.41518,-1.07055 v -0.29865 c -1.64706,1.03066 -1.72499,2.49382 -3.27282,3.45402 l 0.59508,-1.31115 0.59823,-1.07232 0.0555,-0.29865 -0.17853,-0.11786 c -2.35954,1.92442 -0.98942,2.08526 -3.69417,4.58572 l -0.5371,0.41784 -0.65449,0.29867 -0.29682,0.29643 -0.35714,0.83481 -0.5362,0.77367 -0.41826,0.65581 -0.65404,0.59508 -0.35715,0.17903 -0.35804,-0.53617 -0.41609,-0.35715 -0.29691,0.53572 -0.41782,0.17857 0.11966,-1.60803 0.35713,-1.48884 0.12011,-0.17903 -0.41963,-0.35714 -0.0577,0.17857 0.59508,-1.66698 0.11831,-1.19194 -0.11831,-0.3576 0.0592,-0.47545 0.29997,-0.95446 0.41521,-0.89331 0.71472,-0.83437 0.41655,-0.83305 0.18168,-0.41607 0.35579,-1.31027 0.4737,-1.25267 -0.0577,-0.23795 -0.83429,0.179 0.17898,-0.35758 0.65531,-0.59509 0.71518,-0.71474 0.47416,-0.6558 0.30133,-0.77366 -0.0622,-0.29865 -0.95133,0.53793 0.77271,-1.3116 1.07194,-0.8933 0.30042,-0.17902 -0.65629,-0.11966 c 0.79807,-1.45828 1.54116,-0.65093 2.56118,-2.08349 v -0.47723 l 0.7737,-0.83482 0.83616,-0.77367 0.95086,-0.65579 1.01164,-0.71342 0.89685,-0.29777 c 1.39938,-0.7391 3.74159,-1.06611 5.30051,-1.72856 l 0.2951,-0.29821 0.59636,-0.17681 1.4893,0.0585 0.89514,-0.35714 1.30981,0.59509 0.77233,-0.11965 0.0607,-0.35583 0.35849,0.0589 0.65449,0.2969 1.13121,1.01293 1.07237,-0.17857 0.17546,0.29867 0.59688,0.41651 0.41783,0.35714 1.07546,0.89376 0.17546,0.2982 0.59328,-0.17901 c 1.31513,1.13304 1.33471,1.71395 2.14822,3.27635 l -0.47722,0.11786 c 0.71337,1.55708 1.84645,4.91893 1.36921,6.49197 l -0.23795,-0.47368 -0.41789,-0.47679 v 1.42769 l 0.24109,1.25268 -0.12011,0.29643 h -0.7178 l 0.12446,0.17945 0.17672,0.53572 0.0592,0.77544 v 0.83305 l -0.53618,1.07231 -0.11831,1.07189 -0.17987,0.35714 v 0.17946 h -0.47417 v 0.29776 l -0.1213,0.65271 -0.41654,1.25266 -0.47544,0.53617 -0.11786,0.71473 -0.30171,0.77367 -0.5344,-0.53571 c -0.37483,1.56683 -0.10676,2.38347 -1.13435,4.16921 -0.85342,1.16758 -1.9931,2.39809 -2.85762,3.5134 l 0.83572,-0.17681 0.77235,-0.17945 h 0.17725 c 1.31648,4.22059 0.54722,8.731428 -0.47236,12.924565 l -0.47724,1.787506 -0.41789,1.72944 -0.29684,1.84554 -0.121,0.23795 -0.5362,0.71474 -0.53612,0.5366 -0.23614,0.5344 -0.1786,1.07188 0.41474,-0.11786 0.29953,-0.35759 0.23659,0.59554 0.35894,0.41651 0.47679,1.07189 0.71345,1.01162 0.77234,0.95401 0.89684,0.95446 0.17546,0.65402 c 0.17103,3.05258 -1.60543,6.65994 0.0592,9.41251 l 0.47669,-0.47722 v -0.0607 c 1.16009,2.93294 2.47836,4.64776 0.77723,7.86473 -0.81353,4.09743 1.07103,3.11594 -3.87098,4.64642 l -0.17855,-1.13303 0.29684,-1.07409 v -0.23707 l -1.07224,1.01294 -0.41791,1.07189 -0.0592,0.35936 h -0.83302 l -0.65577,-0.53794 0.35713,-1.19196 0.71519,-0.83259 0.23929,-0.17903 -1.55226,0.5344 -0.82994,1.01516 -0.11966,0.35582 v 0.2982 l -0.35887,0.11786 -0.35765,-0.59464 0.23928,-0.77369 0.47724,-0.65579 0.77234,-0.5366 0.77503,-0.53617 0.77587,-0.35581 c 3.01538,-0.93186 3.09331,-2.36753 1.60805,-5.00358 -4.21844,-12.33523 -1.22699,-6.26554 -10.48616,-15.36832 l -1.25092,-1.48929 -1.13128,-1.30984 -1.24949,-1.49017 -1.07195,-1.42946 -1.07402,-1.3692 -0.71345,-0.47724 -1.54911,-0.59465 c -3.66492,-0.85875 -5.92431,-1.52562 -9.29286,0.29777 -2.10922,1.05815 -5.57474,2.81019 -7.9808,2.6808 l -1.48886,0.23618 h -1.19151 l -0.41655,-0.23618 -0.23794,-0.47722 v -0.83438 l 0.95401,-1.72635 0.23616,-1.36921 c -1.73431,3.90292 -2.29616,3.09866 -4.46741,6.3143 l -0.41476,0.77189 -0.23929,0.71518 v 0.71472 l -0.23795,1.25089 -0.17897,1.25091 -0.53575,1.07188 -0.83302,0.89508 -0.47723,0.35626 -0.41783,0.89373 -0.2969,0.71563 -0.23928,0.77278 c -0.19804,1.40066 -0.61414,2.76677 -0.77543,4.16921 -0.47858,3.07473 -1.4614,2.0312 -2.26254,4.04957 l -0.71517,3.27766 -0.65577,0.71429 -0.59335,0.41786 -0.47724,0.65448 -0.71472,0.53615 c -0.92387,0.7595 -2.68082,2.48142 -3.33659,3.45447 l -0.53439,-0.35581 -0.53747,-0.71828 -0.23801,-0.65225 -0.47717,1.37053 -0.71427,0.35581 -0.41655,-0.11786 -0.3576,-1.1317 -0.17725,-0.89508 -0.11921,-0.17857 -0.538,1.13125 -0.35578,1.0741 -0.2393,0.11786 -0.77585,-0.41651 0.29869,-1.48886 0.59636,-0.95401 0.17906,-0.17723 0.29682,-0.0607 0.41963,-0.35715 0.713,-0.17857 h 0.35758 l 0.95403,-0.23795 c 3.93301,-2.11096 2.67901,-5.69305 4.05003,-9.70892 2.97413,-15.17689 1.5956,-10.63283 -1.66919,-24.064773 l -0.35579,0.0607 -0.23929,0.357597 0.89325,6.790626 -1.01334,-0.65579 -0.5344,-0.59688 h -0.41783 l -0.65404,-1.07232 -0.4179,-0.95224 -0.11876,-0.177236 -0.3584,0.177236 -0.11831,0.59509 c -1.40417,-1.785286 -0.0988,-2.710936 -0.95401,-4.764733 l 0.4179,-0.53571 -0.0607,-0.595098 v -0.12011 l -0.0592,-0.83437 h 0.41782 l 0.35632,-0.23751 -0.1183,-1.19019 0.47678,-0.8348 h 0.35587 v -0.41786 l 0.23794,-0.23617 0.47724,-0.41831 v -0.53571 l -0.0592,-0.83482 -0.47544,-1.66742 -0.18078,-1.01293 -0.53574,1.13258 -0.17853,1.13126 -0.11831,0.17856 -0.23794,-0.41608 -0.35886,-0.35758 -0.35721,0.77366 -0.35624,0.65581 -0.11921,0.179 -0.11831,-0.71649 -0.41828,-0.29688 -0.47677,1.30982 -0.29691,1.1317 -0.12146,0.29821 -0.5326,-0.41607 -0.29862,1.13125 -0.4179,0.775 h -0.29863 l -0.11921,1.54955 0.11921,1.308498 -0.11921,0.2982 -0.53483,-0.47543 -0.35715,-0.954478 v -1.19151 l 0.17853,-1.30983 0.11786,-1.13125 -0.11786,-0.59555 0.53484,-1.25089 0.17861,-0.71474 0.17989,-0.11965 0.35585,-1.4884 0.29999,-1.01384 -0.29999,-0.29776 -1.42772,0.29776 -0.89514,0.59555 -0.41646,-0.0589 0.11965,0.17857 -0.11965,0.59508 -0.29871,1.19197 -0.29465,0.83438 -0.47716,0.23795 -0.35766,0.41784 -0.41827,-0.65579 -0.41603,-0.29865 -0.65449,0.95446 -0.35721,0.7134 -0.0607,0.11921 c -1.17291,-2.12825 -1.05588,-4.5742 0,-6.72994 l 0.23929,-0.53615 0.1786,-0.83438 0.53657,-1.01294 0.2375,-0.83305 0.23577,-0.1183 c 1.10112,-2.04849 3.96669,-7.38884 3.21874,-9.47277 l -0.0592,0.41785 -0.29819,0.77412 -0.17905,0.77365 -0.17853,0.77546 -0.47679,0.77367 -0.11965,0.35802 -0.29871,0.11921 -0.47363,0.65448 -0.0607,0.71474 -0.59515,1.13301 -0.29819,0.23752 -0.41654,0.65579 -0.47851,0.47546 -0.17545,0.0607 -0.71519,0.83259 -0.65719,0.53662 v 0.29821 l -0.65441,0.83304 -0.71615,0.47723 h -0.17718 l -0.47724,0.77366 -0.53484,0.29821 h -0.17853 l -0.35894,0.17859 -0.47543,-1.54779 0.17718,-1.25045 0.17988,-0.29865 0.11831,-0.83438 0.23975,-0.83304 -0.18078,-0.11965 0.77406,-0.53616 0.47723,-0.47545 h 0.17988 l 0.23659,-0.89508 -0.17718,-0.65402 -0.0592,-0.17859 0.35758,0.17859 0.4161,0.2375 -0.53709,-1.07189 -0.77271,-0.59731 -0.24109,-0.0585 -0.8313,-0.0594 -0.23921,0.23795 0.0592,0.29822 -0.47408,0.83481 -0.12101,0.8326 v 0.11786 l -0.53612,-0.11786 v 0.23929 l -0.23794,0.29643 -0.65584,0.23795 -0.17725,0.59688 -0.95403,0.2982 -0.47498,0.35759 -0.35803,-0.11965 -1.84735,-0.35715 h -1.6674 l -0.47588,0.11921 -1.43081,0.29688 -1.01334,-0.0589 -0.29646,-0.11786 -0.29862,-0.71651 0.71472,-0.4759 0.77541,-0.17989 0.65404,-0.17724 1.4317,-0.23928 1.60664,-0.3576 1.37056,-0.17724 0.89198,-0.1799 0.18034,-0.17724 c -2.88194,-1.1091 -5.55437,1.0577 -8.40089,1.00983 l -1.48706,-0.83259 -0.59688,-0.77367 -0.29689,-0.6558 v -0.77411 l 0.7148,-0.83305 0.17897,-0.95401 v -0.23795 l -1.07232,-0.59642 0.59554,-0.77233 0.89289,-0.23929 0.1183,-0.23793 0.47904,-0.29822 1.12946,-0.71519 0.9553,-1.01117 0.65449,-1.01339 0.23622,-1.19196 v -0.83436 l 0.29863,-0.3576 0.89325,-0.89197 0.77685,-0.83437 0.95131,-0.59643 0.95402,-0.35581 0.59372,-0.17902 0.0607,0.29688 0.41654,0.41652 1.07359,0.77544 0.41655,0.89331 0.59462,0.2375 0.59733,0.41652 0.41475,0.29867 0.95221,1.01337 0.83664,1.07234 0.59328,1.25044 0.23928,0.59509 0.41791,0.3576 h 0.23658 l 0.53702,0.0589 1.25003,0.18079 0.77495,0.11786 0.18087,-0.29867 -0.12011,-0.29643 -0.35713,-0.41786 -0.4179,-0.41652 -0.65622,0.11921 -0.65449,-0.11921 1.25003,-0.83482 0.95582,-0.41651 h 0.41654 l 0.53387,-0.71473 0.23794,-0.47546 -0.23794,-0.23928 0.41835,-0.23751 0.29682,-0.41829 -0.47723,-0.65402 v -1.19198 l -0.23794,-0.77365 0.23794,-0.12011 -0.65397,-0.29645 -0.35893,-0.47722 -0.59418,-1.19196 -0.47641,-1.01162 -0.59553,-1.07188 c -1.05454,-1.45694 -2.11409,-2.02368 -2.92003,-3.57455 l 0.29997,0.0594 1.13128,0.65579 z"
   style="fill:#ffffff;fill-rule:evenodd;stroke-width:0.375165"
   id="path42" />
  <path
   style="fill:#000000;fill-rule:evenodd;stroke:none;stroke-width:0.375165"
   d="m 355.8094,64.732809 v -0.17857 l 0.29637,0.17857 0.47649,0.29712 1.19301,0.65692 0.71277,0.23786 -0.71277,0.41681 -0.83662,0.47721 h -0.17636 v -1.07261 l -0.65652,-0.89364 z m 6.01388,4.64492 0.65651,0.4787 0.17635,0.0589 -0.41638,0.11966 h -0.47274 l -0.83662,-0.53648 -0.59276,-0.23899 h -0.24011 l -0.65653,-0.4168 -0.65282,-0.17859 h -0.83288 l 0.11636,-0.53573 0.23637,0.17858 0.65652,0.17708 1.25302,0.18007 0.71285,0.41643 z"
   id="path44" />
  <path
   style="fill:#000000;fill-rule:nonzero;stroke:none;stroke-width:0.375165"
   d="m 367.30442,69.915329 -0.4164,-0.0589 -0.24011,-0.17894 -0.06,-0.11816 -0.59276,-0.29789 -0.7166,0.29789 0.7166,0.77395 h 0.18003 l 1.24934,0.11786 1.18927,-0.11786 -0.53275,-0.35753 z m -1.6695,0.41681 -0.23628,0.17857 0.06,0.77361 h 0.29637 l 1.12925,0.17857 1.37311,0.29862 -0.5965,-0.41829 -1.24935,-0.65242 -0.41639,-0.24086 z"
   id="path46" />
  <path
   d="m 368.1973,73.846699 -0.77496,-0.53617 h -0.77278 l -0.06,0.11831 0.29817,0.47901 0.29863,0.41475 v 0.0585 l -0.71517,-0.35538 h -0.59636 l 0.71473,0.89198 -1.19061,-0.5366 -1.07195,-0.47325 -0.17852,-0.0612 v -0.29821 l 0.71427,-0.0594 0.11831,-0.53572 0.29863,-0.23927 -0.29863,-0.41652 v -0.53617 c 1.5239,0.45464 1.90181,0.44179 3.09864,1.72768 z"
   style="fill:#000000;fill-rule:evenodd;stroke:none;stroke-width:0.375165"
   id="path48" />
  <path
   style="fill:#000000;fill-rule:nonzero;stroke:none;stroke-width:0.375165"
   d="m 378.08667,79.088119 0.29637,-0.35941 0.35647,-0.71244 -0.83288,1.07185 z"
   id="path50" />
  <path
   style="fill:#000000;fill-rule:evenodd;stroke:none;stroke-width:0.375165"
   d="m 377.25004,81.411519 0.95297,-1.01183 0.65652,-0.83436 0.06,-0.23899 v 0.29826 l -0.06,0.41793 -0.59651,0.83287 -0.65277,0.53612 z"
   id="path52" />
  <path
   d="m 374.51138,85.520319 -0.29869,-0.5366 1.13171,-0.59465 0.89334,-0.89374 -0.11831,-0.12011 0.2969,-0.29645 0.0592,-0.35935 0.83257,-0.23618 c -0.83122,0.92432 -1.44542,2.02678 -2.38039,2.85804 z"
   style="fill:#000000;fill-rule:evenodd;stroke:none;stroke-width:0.375165"
   id="path54" />
  <path
   style="fill:#000000;fill-rule:nonzero;stroke:none;stroke-width:0.375165"
   d="m 410.48966,92.014059 v -0.23786 l -0.53649,-0.41794 -0.47641,0.77547 0.53649,0.29712 z"
   id="path56" />
  <path
   d="m 417.8129,92.132609 c -0.29645,1.13081 -0.85515,2.3467 -1.19152,3.572328 l -0.3545,0.0607 -0.36067,-0.29865 0.53612,-1.904928 0.71653,-1.54954 0.1786,-0.29821 0.35579,0.0607 z"
   style="fill:#000000;fill-rule:evenodd;stroke:none;stroke-width:0.375165"
   id="path58" />
  <path
   style="fill:#000000;fill-rule:nonzero;stroke:none;stroke-width:0.375165"
   d="m 417.45652,96.600054 0.83661,0.29789 v -0.23749 l -0.29637,-0.657277 0.29637,-1.247798 -0.12385,-0.65542 -0.3564,-0.1797 -0.65276,1.846568 z"
   id="path60" />
  <path
   d="m 435.56574,95.348887 v 0.23751 l -0.11831,0.47722 -0.53567,0.954007 0.11651,0.83305 -0.2951,0.29822 -0.0607,0.47545 0.23928,0.23972 0.17718,0.47679 -0.17718,0.833026 0.23614,0.5951 -0.11966,0.23751 -0.11651,0.77587 c 0.64954,3.03176 -0.25219,1.94349 -1.61159,4.10852 l 0.0592,-1.96431 -0.35495,-1.13302 -0.41776,-0.2375 -0.057,-1.54956 -0.59688,-0.95224 h -0.41826 v -0.654016 l -0.11606,-0.83484 0.2951,-0.4165 0.83616,-0.77367 0.77061,-0.95446 0.71654,-0.714737 1.01155,-0.35714 h 0.53754 z"
   style="fill:#000000;fill-rule:evenodd;stroke:none;stroke-width:0.375165"
   id="path62" />
  <path
   d="m 415.43062,103.44795 0.12191,0.23927 0.0585,0.71474 0.41781,1.25089 0.35632,0.77587 0.41648,-0.12146 0.0607,-0.4165 v -0.71519 l 0.11921,0.23795 0.17898,0.47724 0.29818,0.95401 0.53663,0.59376 0.0585,-0.95136 -0.0585,-0.77677 v -0.17679 l 0.17547,0.11921 0.30087,0.23794 0.23615,0.71473 0.29735,0.53616 0.121,0.71473 0.23751,0.35715 h 0.0577 v -2.08527 l 0.1213,-0.17856 0.1804,0.35758 0.41476,0.47856 0.47589,1.24912 0.35848,0.83304 0.23658,-0.17723 0.12086,-0.47724 0.1804,0.17902 0.11651,0.47545 0.47859,1.07409 0.35578,0.71296 0.17996,-0.65446 v -0.53572 l 0.2942,0.17857 0.2393,0.47722 0.17988,1.30984 0.7121,0.0607 0.53747,0.65447 0.53747,0.0585 h 0.11831 v 0.23927 l 0.18033,0.47722 0.06,0.95136 0.35445,0.59643 0.30177,-0.17857 0.29339,-0.35758 v 0.17901 l 0.83924,1.37008 -0.30269,1.01207 -0.29554,1.01294 -0.24101,1.01339 -0.11786,1.13081 -0.11831,1.01207 -0.057,1.01294 -0.0607,1.13125 -0.11966,1.13303 v 1.01295 l -0.12146,1.13125 0.35893,0.41652 0.59516,-0.59641 0.0592,-1.01162 0.11831,-1.19196 0.24237,-1.01296 0.06,-1.07053 0.23306,-1.01517 0.29999,-1.07055 0.29644,-1.13125 0.29864,-0.89375 0.5986,-0.95446 0.59336,-0.83261 0.35586,-0.11966 0.41782,0.11966 c -2.48587,2.3888 -2.10254,6.92356 -2.97855,10.18484 -0.32263,2.41715 -0.51579,0.27472 -2.68082,3.21784 l -0.53619,0.77412 -0.47499,0.53438 -0.53792,0.3576 -0.59379,0.29821 -1.42947,-0.41652 -0.0615,-0.89508 -0.17372,-0.7719 -0.83917,1.36743 -0.89207,0.29955 -0.29817,-0.29955 -0.17906,-1.01206 -0.11921,-0.77366 -0.53483,1.01338 -0.53433,0.71296 -0.18041,0.0594 c -0.23741,-3.46112 2.01088,-2.73842 4.109,-3.15449 l 0.35848,-0.29865 0.41656,-1.13303 0.71202,-1.01117 0.41918,-1.07233 0.53792,-1.07232 0.2951,-1.12948 0.41655,-1.0741 0.24064,-1.24912 c 1.01335,-3.44473 -1.55713,-6.61206 -4.34912,-8.28123 -4.14087,-3.03486 -5.3771,-2.97238 -5.65937,-8.75493 l 0.2393,0.0594 0.35533,1.24912 z m -35.55811,1.07371 c 2.80218,7.6587 2.53364,10.53579 0.77586,18.58395 -0.61729,1.96562 -0.13241,4.16081 -2.08574,5.47901 l -0.65578,0.41831 -0.77368,0.11921 -0.89333,0.1183 -0.41648,-0.1183 -0.89377,0.65447 -0.71473,0.59376 v 0.24106 -0.6558 l -0.59508,-0.29866 -0.41783,0.7134 -0.53484,0.36025 h -0.17861 l 0.17861,-1.66875 0.71337,-1.19019 0.4179,-0.11966 0.59509,-0.0594 c 1.75021,-0.29157 3.88688,-1.5983 4.5857,-3.27724 1.55218,-6.72859 -0.097,-14.6332 -0.59508,-21.50182 l 0.35714,0.0589 0.18078,0.29822 0.47364,0.65579 0.47686,0.5951 z"
   style="fill:#ffffff;fill-rule:evenodd;stroke-width:0.375165"
   id="path64" />
  <path
   style="fill:#000000;fill-rule:evenodd;stroke:none;stroke-width:0.375165"
   d="m 391.31127,112.68038 v 0.0607 l -1.01298,0.71618 -0.83662,-0.12011 h -0.23638 l 0.65284,-1.01294 0.77279,-0.53612 0.24012,-0.17894 0.5365,0.35753 z"
   id="path66" />
  <path
   d="m 425.25991,125.36957 c -0.28887,0.9589 -1.39622,3.45005 -2.61871,3.39422 v -0.53661 l 0.47407,-0.35536 0.2393,-0.29867 0.59508,-0.77367 0.41872,-0.71517 0.47633,-0.775 0.23803,-0.77411 0.0592,-0.41784 0.11831,0.59508 v 0.65713 z"
   style="fill:#000000;fill-rule:evenodd;stroke:none;stroke-width:0.375165"
   id="path68" />
  <path
   d="m 417.99676,126.73893 -0.42008,0.23617 -0.47588,0.77545 -0.47642,0.83437 -0.18077,0.89375 v 0.95224 l 0.18077,0.47546 c 1.82162,1.09137 2.43936,0.0496 4.94293,0.95578 4.42127,0.0208 2.42824,-2.85583 5.42053,-3.27723 2.22039,0.46128 4.44655,1.01339 6.49374,2.02501 l -1.42945,0.59686 -0.89514,0.95269 -0.17718,0.35847 -0.23795,0.89197 v 0.65581 l 0.11966,0.17856 0.11831,0.23795 1.42945,0.29867 0.1786,0.35536 0.41648,0.0612 h 2.44423 l 1.01207,0.35537 c 2.25588,-0.1453 3.60109,-2.02633 5.41828,0.29865 1.72012,1.7042 1.75517,1.87656 2.80181,4.05089 l 0.53785,0.7741 0.41483,0.71474 0.41474,0.5951 0.47724,0.71517 -0.11786,0.41609 -0.29862,0.35891 -0.71609,-0.11786 -1.66739,-0.42006 -1.48887,-0.41475 -1.36876,-0.53749 -1.54954,-0.0589 -0.71338,0.0589 -0.95402,-0.47722 -0.95229,-0.5344 -0.9544,-0.47545 -1.01162,-0.35892 c -1.39449,-0.4276 -3.69994,-0.50293 -5.18085,-0.53439 l -1.13481,0.11786 -0.77323,-0.35715 -1.54775,-0.53662 -1.78757,-0.29776 -1.72627,-0.17946 c -3.18461,0.1994 -2.64894,-0.10811 -5.77901,-1.24912 -1.80348,-0.5725 -4.13287,-0.46704 -6.01569,-0.71474 -3.86746,0.29069 -2.91831,-0.72891 -6.55308,-0.53748 -2.13937,0.097 -4.24282,0.45108 -6.37237,0.65579 -5.05851,-1.06921 -7.30194,0.91724 -11.85224,1.37055 -3.3362,0.0909 -1.78395,-0.89021 -5.60048,0.475 -2.79552,1.09847 -2.31213,1.10778 -5.12363,1.01383 -1.29389,0.0174 -3.7496,0.4533 -4.94156,0.95224 -3.30298,1.02093 -1.08341,1.25888 -4.28888,1.31205 l -0.9544,0.29643 -0.95049,0.41786 -0.95447,0.35626 -0.35893,0.17989 -0.65404,-0.11966 c -1.84772,-0.22022 -3.95739,0.5694 -5.42053,1.60849 1.04351,-4.64643 3.95387,-5.49679 7.14824,-7.80449 1.87217,-1.30009 3.26434,-2.65777 5.24154,-3.69197 2.27538,-1.91955 2.63468,-0.2517 5.06294,-0.83261 v 1.42947 l 0.59508,0.95091 0.23757,0.0607 h 0.53784 l 0.77376,0.11966 1.66785,0.53438 1.07358,-0.53438 0.89199,0.29688 0.53574,0.17857 c 2.31393,-0.89819 1.84953,-2.7424 4.64512,-5.00358 1.2735,-1.44098 4.87105,-2.4938 6.79237,-2.50046 4.49133,-0.30796 8.78373,0.001 13.22279,-1.07232 5.44229,-0.76258 6.80354,-0.9744 12.15183,0 l 0.65631,0.23794 z"
   style="fill:#cdcdcd;fill-rule:evenodd;stroke-width:0.375165"
   id="path70" />
  <path
   d="m 411.85903,140.85488 c 1.23981,1.64837 4.6256,2.2129 6.48976,1.66875 l -0.29382,-0.5375 c -3.10353,0.77545 -5.52736,-1.53979 -7.44821,-3.63171 8.50147,-1.52694 11.25054,5.64829 12.6893,12.50808 -3.00248,0.84234 -4.67174,-2.6551 -6.6737,-3.45447 -2.95245,-1.38028 -7.06849,-1.25401 -9.35046,-2.44287 l 0.0592,0.17903 0.30042,0.47678 0.83129,0.23927 0.65577,0.23619 1.01126,0.47722 1.25219,0.29689 1.13165,0.35715 c 2.61834,0.59332 5.32444,1.65146 6.90722,3.93123 -5.18267,-0.78165 -9.41033,-0.0651 -13.51617,-3.99198 -2.02635,-2.13489 -1.64175,-2.15217 -2.86116,-4.40537 -0.86445,-2.29752 -2.13263,-2.43621 -2.80129,-4.52678 2.71885,-0.97174 7.34581,-1.35281 9.59059,0.83304 l 2.0264,1.78707 z"
   style="fill:#d51810;fill-rule:evenodd;stroke-width:0.375165"
   id="path72" />
  <path
   d="m 399.76375,139.42514 c 1.03728,1.3754 1.53447,3.07162 2.32495,4.58792 l 0.53575,0.95224 v 0.35759 l -0.11786,0.47724 -0.41783,0.77365 -0.53663,0.35848 c -5.23976,0.444 -9.25739,-4.8711 -14.17503,-4.94599 l -0.11966,0.47723 c 2.98523,0.45109 6.81766,3.58652 9.6482,4.76429 l 1.43486,0.41786 1.42322,0.35758 1.43305,0.11966 0.89198,-0.29865 0.77362,-0.41608 0.17995,-0.18035 0.23614,-0.65403 v -0.77366 l 2.08575,3.03794 c -5.963,2.68347 -11.89707,-1.47644 -17.15414,-3.87275 l -1.60671,-0.89374 -1.07232,0.29865 -0.47722,0.47723 v 1.01294 l 0.47722,1.01029 0.7737,0.47679 0.35758,-0.11966 0.2393,-0.29555 -0.83618,-0.89641 -0.41654,-0.71296 v -0.35759 l 0.41654,-0.11786 h 0.77548 l 1.24905,0.89198 1.1348,0.7165 0.35542,0.41474 c 1.39179,0.98901 2.18986,0.54547 3.99242,2.14597 l -0.89513,0.0607 h -0.83438 l -1.19061,-1.43168 -1.1915,-0.41784 -0.35579,-0.0607 -0.11966,0.35936 0.23921,0.0603 0.53485,0.2375 0.71427,0.53662 0.17861,0.71649 -0.35713,0.17859 -0.71518,0.29466 -1.01298,-0.0585 -0.65404,-0.23616 c -2.1012,-0.42806 -1.7139,-0.20783 -3.57407,-1.49018 l -0.77542,-0.53794 -0.5362,-0.59332 -0.53438,-0.65581 -0.53792,-0.6558 c -1.00984,-1.18575 -1.39622,-2.652 -1.4299,-4.16921 l -0.89334,0.17859 -0.5344,-0.23929 -0.17725,-0.1183 0.17725,-0.47546 0.5344,-0.59554 1.01471,-0.17989 1.13172,-0.11786 c 2.09324,-0.91281 3.07165,-0.86052 5.41835,-0.53792 l 1.2522,0.35714 1.4875,0.47854 1.37231,0.4759 1.19149,0.5951 1.42864,0.53615 1.3098,0.59643 1.31161,0.47414 0.65584,-0.0576 0.23748,-0.29645 -0.23748,-0.59641 -0.83663,-0.95313 -1.07051,-0.65536 -1.07231,-0.59731 -1.25048,-0.53572 -0.59508,-0.29688 -0.29869,0.11966 -0.29864,-0.17991 -0.29644,0.47634 0.35578,0.17945 0.53799,0.41786 1.31161,0.41653 0.83078,0.65536 -1.96386,-0.83439 -1.66918,-0.77543 -0.5362,-0.0594 -0.29682,-0.29643 c 2.68697,-1.32269 5.80158,-1.53849 8.63574,-0.47724 l 1.07051,1.19019 z m 28.59503,2.08366 c 1.80923,1.73786 3.11731,5.24018 5.89558,5.54017 l 0.89378,-0.11831 0.53567,-0.71473 -0.11786,-0.59509 -0.12011,-0.12146 -0.35714,-0.35536 c -0.84411,-0.2477 -2.78757,-1.43168 -3.51518,-1.96785 0.30041,2.02191 1.92926,1.27527 3.09729,2.80045 l -0.71337,0.0589 -0.77543,-0.23795 -0.47686,-0.29822 -0.77406,-0.65402 -0.65449,-0.77411 -0.71427,-0.89508 -0.59733,-0.71295 -0.35713,-0.47724 0.35713,-0.5951 0.41835,-0.23927 0.0592,-0.0589 h 1.72636 c 2.21822,0.22466 4.71022,1.23451 5.65982,3.39687 1.12152,1.96918 1.29255,3.36807 1.48886,5.59735 l -0.41476,0.89331 -0.5986,0.5366 -0.23801,0.0603 -1.42765,-0.35891 -0.89507,-0.65404 -0.17725,-0.17901 v 0.59509 l 0.47544,0.59687 0.17853,0.23618 0.29826,0.23927 0.95266,0.53617 0.65584,0.0589 1.07052,-0.41653 0.47722,0.12011 v 0.23752 l -0.47722,0.77367 -0.5344,0.35758 -0.17988,0.11965 c -1.05507,0.30797 -2.66972,-0.85652 -3.09557,-1.78705 l -0.35932,0.29865 0.0607,0.29644 0.35714,0.77544 0.65577,0.47724 0.59553,0.53438 0.83437,0.23795 0.29691,0.0607 0.29824,0.11921 0.83302,-0.17991 0.71472,-0.17725 0.65578,-0.0607 0.53618,0.95269 c -3.82799,0.59508 -6.1831,-1.25888 -7.50709,-4.64466 l -0.2969,-0.71651 -0.3572,-0.83305 -0.41648,-0.95267 -0.23794,-0.83438 -0.53619,-0.77367 -0.41783,-0.77411 -0.65449,-0.775 -0.83437,-0.23795 -0.59336,0.11786 h -0.1213 l -0.23927,0.47722 v 0.5951 l 0.59643,1.3116 0.41827,0.8933 -0.0607,-1.30982 -0.0577,-1.07232 0.29554,-0.11921 0.53755,0.35715 0.35758,0.65581 0.41468,0.65402 0.2411,0.5951 c 0.67353,2.00728 1.53627,3.96669 2.73797,5.71875 l -0.65449,-0.0589 -1.42946,-0.23795 -1.4281,-0.1799 -1.25227,-0.23795 -1.25092,-0.41652 -0.71644,-0.17902 -0.8313,-1.84554 v -1.54777 l 0.11786,-0.35936 c 1.10292,0.16749 1.94968,1.07276 2.32496,2.0857 0.97622,0.95712 0.29653,1.06257 2.3822,2.50046 l -0.41783,-0.89197 -0.83354,-0.53794 -0.06,-0.23618 -0.23928,-0.53615 c -0.34784,-0.75948 -2.19249,-3.10664 -2.32362,-3.8741 l -0.83264,-0.23618 -0.59508,0.23618 -0.59328,1.3723 0.11606,1.13126 v 0.23794 l 1.07232,2.02457 -0.47724,-0.11965 -0.89333,-0.5951 -0.35579,-0.83305 -0.59508,-0.83481 -0.3017,-0.89331 -0.17553,-0.53439 -0.29818,-1.72812 0.35534,-1.43124 0.23929,-0.29643 0.65801,-0.47546 0.41476,-0.35937 v -0.17856 H 424.067 l -0.95095,0.35935 -0.18032,0.0585 -1.0706,-1.84598 -0.77586,-1.43124 -0.11785,-0.41653 0.59508,-0.35715 0.65576,-0.17724 1.6692,-0.0607 1.54954,0.23796 1.54603,0.65579 1.37229,0.83261 z"
   style="fill:#fedc00;fill-rule:evenodd;stroke-width:0.375165"
   id="path74" />
  <path
   d="m 378.38304,141.98601 0.59508,0.11966 0.5974,0.11966 0.29639,0.11965 c 0.19142,2.02191 0.56499,2.7845 1.78703,4.40714 l 0.53619,0.59509 0.47724,0.47679 0.59688,0.71517 0.65397,0.53617 0.53619,0.11786 0.41474,0.29688 c -2.90233,2.27049 -6.6169,2.15084 -10.06653,2.74106 0.92033,-1.74717 2.26254,-2.20978 4.11341,-2.6808 l 0.53305,0.6558 0.41783,-0.29777 v -0.53483 c -1.31957,-1.22697 -2.33074,-0.94294 -3.81157,-0.18034 l -1.07059,0.83304 -1.07405,0.95401 -1.13307,0.95268 -0.59327,0.41829 -1.31342,-0.17857 c -1.91156,-1.86549 -3.48323,-4.04826 -4.8826,-6.31428 -2.84165,-4.08458 3.82004,-1.28592 5.18259,-1.13303 l 1.01343,0.23795 1.01027,0.12011 h 1.01426 l 0.83302,-0.12011 0.77548,-0.59333 0.23795,-0.83438 0.06,-0.17857 -0.18034,-0.77721 -0.47678,-0.65447 -0.65584,-0.11786 -0.47363,0.41784 0.17852,0.53617 h 0.5344 l 0.11966,0.11966 -0.1768,0.4759 -0.42008,0.29644 -0.47499,0.0589 h -1.25136 l -1.25084,-0.17681 -1.19024,-0.35803 -1.25264,-0.23927 -0.59643,-0.0571 c 2.76453,-1.20128 5.66559,-2.73797 8.75628,-1.7884 l 1.07366,0.89332 z"
   style="fill:#d51810;fill-rule:evenodd;stroke-width:0.375165"
   id="path76" />
  <path
   d="m 414.71777,144.37019 c 2.55278,0.33853 3.02515,-1.30053 5.35941,0.71472 l -2.61834,-0.2375 -2.08575,0.2375 -0.53702,0.0594 -0.65577,-0.0594 -1.60715,-0.41652 -1.36921,-0.83482 -1.24912,-0.95224 -1.31296,-1.07187 -0.47408,-0.41829 c 1.72943,0.50912 4.38324,2.54477 5.8955,2.80045 l 0.65449,0.17855 z"
   style="fill:#000000;fill-rule:evenodd;stroke:none;stroke-width:0.375165"
   id="path78" />
  <path
   d="m 448.49013,150.20849 3.99064,1.60628 0.1786,-0.2375 c -4.46433,-2.22087 -6.35376,-2.6201 -9.53215,-7.38573 2.67767,0.24858 5.44131,1.15341 7.74504,2.44285 l 1.01343,0.53395 0.83122,0.47901 0.29997,0.59508 0.17734,0.65404 c 0.45946,1.34837 1.85567,3.63349 1.90976,5.00402 -0.30666,5.33414 -0.027,4.81705 -4.64828,4.82369 l -1.19151,-0.0576 h -0.65576 l -0.71473,-0.0607 -1.78575,-0.35583 -1.60851,-0.65756 -1.24905,-1.07055 -1.19376,-1.30983 -0.53575,-0.71474 -2.62006,-10.78303 0.77361,-0.23793 0.71474,0.17855 h 0.23974 l 0.83264,0.53662 0.83438,0.53393 0.83129,0.71651 c 1.25445,1.10157 3.06226,3.36363 4.4107,4.23036 l 0.95221,0.53617 z"
   style="fill:#d51810;fill-rule:evenodd;stroke-width:0.375165"
   id="path80" />
  <path
   d="m 365.99514,148.53938 -0.23757,0.47724 -0.35751,0.2375 h -0.4179 l -1.37057,-0.17857 -0.95131,-0.18034 -1.07366,-0.17724 -1.01291,-0.35893 -0.47723,-0.23617 -0.11785,0.5951 c 3.23112,1.37364 2.71226,1.76489 6.61069,1.72811 l 0.23884,0.5344 c -1.34176,1.23183 -3.19878,0.36068 -4.64601,-0.23752 l -0.11831,0.41609 0.11831,0.5366 0.65584,0.17858 0.47498,0.18034 1.19195,0.35537 1.13173,0.23929 1.25219,-0.0603 1.19196,-0.5344 0.5344,0.35538 0.2987,0.47723 0.0592,0.23928 -0.89199,0.95269 -0.7754,0.47722 -0.29826,0.11786 h -1.90706 l -0.95049,-0.23927 c -2.75921,-1.03688 -3.33171,-1.9386 -6.19602,-3.03485 l 0.35715,0.77277 0.53664,0.41609 0.23749,0.0603 0.53747,0.47722 c 1.2846,1.25134 3.17088,1.49992 4.64639,2.43976 l -0.11921,0.53794 c -4.02295,0.39701 -5.58,-0.80247 -9.05536,-1.84777 l -1.01156,0.17857 -0.65584,0.23927 -0.11966,0.18036 -0.5344,1.12948 0.11831,0.95446 v 0.17857 l 0.29639,0.65447 h -1.54641 l -1.13081,-0.65447 -0.18034,-0.17857 -0.8331,-1.72813 0.0577,-1.54911 v -0.41784 c 0.6926,-1.98203 3.77662,-2.00286 4.88442,-2.79736 -2.21027,-1.47599 -2.40651,-0.549 -1.13173,-2.68212 1.06301,-1.12949 2.45263,-1.00541 3.63304,-1.96386 2.8691,-2.65687 7.00646,-1.21943 8.69642,2.1442 l 0.3585,0.5951 z"
   style="fill:#fedc00;fill-rule:evenodd;stroke-width:0.375165"
   id="path82" />
  <path
   d="m 377.90663,146.45573 0.17854,0.29776 0.11831,0.29689 c -5.64212,-0.13916 -5.4077,1.82737 -11.19775,-1.60849 l 0.18034,-0.59465 c 2.83811,2.03875 6.44587,0.80069 9.64999,1.24913 z m 71.24002,8.51699 0.89199,0.0607 0.41781,-0.35936 0.0577,-0.11786 -0.59334,-0.71474 -0.77415,-0.59687 v -0.23927 c 4.03849,1.1153 1.55226,4.2454 -1.19323,1.9674 -2.08394,-1.17292 -1.53852,-2.06666 -3.27463,-3.27723 -1.31602,-2.02811 -1.70242,-0.77899 -3.03794,-2.32056 3.46424,0.78208 4.03052,3.48815 6.7304,5.18125 l 0.7754,0.41653 z"
   style="fill:#000000;fill-rule:evenodd;stroke:none;stroke-width:0.375165"
   id="path84" />
  <path
   d="m 360.81413,156.81815 -0.2411,0.17946 -0.53612,0.59333 -0.77368,0.41962 -0.77279,0.23751 c -1.61601,-0.22998 -3.99017,-0.30443 -5.00533,-1.36877 l 0.0607,-0.89551 0.53567,-0.41786 0.0577,-0.0576 0.71645,0.0576 0.71473,0.23928 2.50184,0.71518 1.25129,0.1799 1.49022,0.11786 z"
   style="fill:#fedc00;fill-rule:evenodd;stroke-width:0.375165"
   id="path86" />
  <path
   d="m 401.61328,171.11494 c 29.29167,1.27526 31.40133,41.9862 2.38083,46.28035 -30.83633,1.67052 -35.29932,-41.50787 -4.76295,-46.16218 l 2.38212,-0.11831 z"
   style="fill:#0738ac;fill-opacity:1;fill-rule:evenodd;stroke-width:0.375165"
   id="path88" />
  <path
   d="m 391.78392,188.20857 -5.00046,4.88395 v 4.94331 l -4.88567,4.9451 h 19.71654 l -4.88569,-4.9451 v -4.94331 l -4.94465,-4.88395 z m 19.65766,0 4.94337,4.88395 v 4.94331 l 4.94457,4.9451 H 401.5523 l 4.94635,-4.9451 v -4.94331 z"
   style="fill:#ffffff;fill-rule:evenodd;stroke-width:0.375165"
   id="path90" />
  <path
   style="fill:#ffffff;fill-rule:evenodd;stroke-width:0.375165"
   d="m 396.72864,207.86422 v 4.88464 l -3.33523,3.27521 8.21987,1.72836 8.21987,-1.66759 -3.27524,-3.33598 v -4.88464 l -4.94463,-4.94391 z m -10.00564,4.52712 -3.99175,-4.34778 -2.20597,-3.87284 1.31302,-1.25041 4.8847,4.94391 z m 32.9395,-3.09886 -3.27898,3.45638 v -4.88464 l 4.94465,-4.94391 1.3131,1.37047 z M 391.72766,188.1478 h 19.71496 l -4.88471,-4.94317 v -4.88352 l -4.94463,-4.94356 -4.88464,4.94356 v 4.88352 z m -0.007,0 h -12.62427 l 2.67864,-6.13319 4.94472,-5.48079 v 6.67081 z m 19.71872,0 4.94089,-4.94317 v -6.7312 l 4.88463,5.30144 2.68248,6.37293 z"
   id="path92" />
  <g
   style="fill-rule:evenodd"
   transform="matrix(0.94965499,0,0,0.94965499,159.89544,9.6308482)"
   id="b">
    <path
   d="m 158.37294,402.15561 c -0.41787,-1.67148 -1.67149,-11.70037 -2.50723,-16.71482 -0.83574,-5.01444 -7.93954,-18.3863 -7.93954,-18.3863 0,0 12.11825,10.02889 14.62547,17.13269 2.50723,7.1038 4.59658,14.2076 3.76084,20.05779 -0.83574,5.85018 -2.08936,8.77528 -2.08936,8.77528 z"
   style="fill:#187b01;fill-opacity:1;fill-rule:evenodd;stroke:#1e501f;stroke-width:1pt;stroke-linecap:butt;stroke-linejoin:miter;stroke-opacity:0.941176"
   id="path94" />
    <path
   d="m 160.04442,406.33432 c 0,0 -0.83574,-17.55056 -1.67148,-22.14714 -0.83574,-4.59658 -9.19316,-15.46121 -9.19316,-15.46121"
   style="fill:none;stroke:#1e501f;stroke-width:1pt;stroke-linecap:butt;stroke-linejoin:miter;stroke-opacity:0.941176"
   id="path96" />
    <path
   d="m 176.75924,421.79553 c -1.67148,0 -12.53612,-3.76084 -17.96843,-3.76084 -5.43232,0 -12.95399,8.35742 -12.95399,8.35742 0,0 7.1038,-2.08936 12.11825,-2.08936 5.01444,0 10.02889,4.17871 15.04334,4.17871 5.01444,0 16.29695,0.83574 16.29695,0.83574 z"
   style="fill:#187b01;fill-opacity:1;fill-rule:evenodd;stroke:#1e501f;stroke-width:1pt;stroke-linecap:butt;stroke-linejoin:miter;stroke-opacity:0.941176"
   id="path98" />
    <path
   d="m 147.09043,425.55636 c 0,0 8.35741,-4.59657 12.53612,-4.59657 4.1787,0 20.89353,2.92509 20.89353,2.92509"
   style="fill:none;stroke:#1e501f;stroke-width:1pt;stroke-linecap:butt;stroke-linejoin:miter;stroke-opacity:0.941176"
   id="path100" />
    <path
   d="m 231.91815,446.03202 c 0,0 -18.3863,-17.55056 -20.05778,-23.40075 -1.67149,-5.85019 -2.9251,-26.74371 -2.9251,-26.74371 0,0 10.0289,12.95398 12.11825,16.29695 2.08935,3.34296 7.52167,16.71482 10.02889,19.63991 2.50722,2.9251 10.02889,15.87908 12.53612,17.55057 2.50722,1.67148 7.52167,4.1787 7.52167,4.1787 z"
   style="fill:#187b01;fill-opacity:1;fill-rule:evenodd;stroke:#1e501f;stroke-width:1pt;stroke-linecap:butt;stroke-linejoin:miter;stroke-opacity:0.941176"
   id="path102" />
    <path
   d="m 215.6212,439.76396 c 0,0 -35.93687,2.50723 -40.53344,2.08936 -4.59658,-0.41787 -33.01177,-10.44677 -33.01177,-10.44677 0,0 23.81862,21.72927 33.01177,22.98288 9.19315,1.25361 31.75816,-1.25361 35.51899,-2.08935 3.76084,-0.83574 20.05779,-3.76084 24.65437,-2.50722 4.59657,1.25361 17.55056,3.76083 17.55056,3.76083 z"
   style="fill:#187b01;fill-opacity:1;fill-rule:evenodd;stroke:#1e501f;stroke-width:1pt;stroke-linecap:butt;stroke-linejoin:miter;stroke-opacity:0.941176"
   id="path104" />
    <path
   d="m 241.1113,449.37499 c -1.67148,-0.41787 -20.47565,-17.55057 -23.40075,-23.40075 -2.92509,-5.85019 -7.52167,-29.25094 -7.52167,-29.25094"
   style="fill:none;stroke:#1e501f;stroke-width:1pt;stroke-linecap:butt;stroke-linejoin:miter;stroke-opacity:0.941176"
   id="path106" />
    <path
   d="m 345.69236,488.49174 c 0,0 -20.47248,-12.28349 -28.66147,-15.20813 -8.18899,-2.92464 -97.09802,-32.75596 -101.19251,-34.51074 -4.0945,-1.75478 -18.46525,-17.48486 -21.42352,-28.14805 -2.95826,-10.6632 -5.48316,-22.74067 -5.48316,-22.74067 0,0 -0.0365,18.55054 3.95573,27.2856 3.87141,8.47078 12.355,17.61508 13.44907,19.80322 -1.09407,0 -29.04893,-13.87016 -37.08208,-21.86968 -8.03315,-7.99953 -24.19231,-31.65335 -24.19231,-37.50263 0,-5.84928 -1.45592,-38.66821 -1.45592,-38.66821 l -1.46872,33.98879 c 0,0 -9.94378,-17.54784 -10.5287,-26.90668 -0.58493,-9.35885 -1.75479,-18.13277 1.16985,-22.22726 2.92464,-4.0945 10.5287,-10.5287 10.5287,-10.5287 0,0 -10.53297,5.84928 -12.28776,8.77392 -1.75478,2.92464 -2.92036,5.26435 -2.92036,5.26435 0,0 -3.50957,-22.22726 -2.33971,-25.1519 1.16985,-2.92464 6.4342,-2.92464 6.4342,-2.92464 l -4.38909,-1.68327 -3.7999,2.2682 c 0,0 -1.75478,-9.94378 0,-12.28349 1.75479,-2.33971 5.84928,-1.75478 5.84928,-1.75478 l -5.26435,-1.75478 c 0,0 -1.16985,-5.26435 1.75479,-8.18899 2.92463,-2.92464 4.09449,-5.84928 4.09449,-5.84928 l -5.26435,2.33971 3.50957,-11.11363 c 0,0 -6.36696,9.36952 -6.80459,13.08936 -0.43763,3.71984 -0.21882,22.9755 -0.21882,22.9755 l -8.31494,0.21881 8.53376,1.75052 c 0,0 0.87525,14.44174 1.31288,16.84869 0.43763,2.40696 1.75052,13.12886 1.75052,13.12886 l -9.62783,-9.62783 c 0,0 11.15953,15.317 11.81597,21.00617 0.65644,5.68917 0.43763,7.6585 0.43763,7.6585 l -14.22293,-11.81597 c 0,0 16.8487,16.19225 18.3804,20.78735 1.5317,4.5951 4.37628,11.81597 4.37628,11.81597 0,0 -6.56442,-5.03273 -8.75257,-6.1268 -2.18814,-1.09407 -8.53375,-2.62577 -8.53375,-2.62577 0,0 9.84664,6.34562 13.56648,10.7219 3.71984,4.37629 12.03478,14.44174 15.317,20.78735 3.28221,6.34562 12.91004,19.03684 12.91004,19.03684 0,0 -5.68917,-3.28221 -11.59716,-6.1268 -5.90798,-2.84458 -18.16158,-4.59509 -18.16158,-4.59509 0,0 19.03684,8.53375 26.69534,13.12885 7.6585,4.5951 28.22704,20.34973 50.76491,28.44585 22.53786,8.09613 88.18214,29.75874 96.49708,33.47858 8.31494,3.71985 40.91826,25.16364 40.91826,25.16364 l -0.0342,-9.83276 z"
   style="fill:#62310e;fill-opacity:1;fill-rule:evenodd;stroke:none"
   id="path108" />
    <path
   d="m 144.16534,432.24229 c 0,0 23.40075,18.38631 30.50455,19.63992 7.1038,1.25361 26.74371,-4.59658 34.26538,-4.59658 7.52167,0 32.59391,2.08936 32.59391,2.08936"
   style="fill:none;stroke:#1e501f;stroke-width:1pt;stroke-linecap:butt;stroke-linejoin:miter;stroke-opacity:0.941176"
   id="path110" />
    <g
   id="a">
      <path
   d="m 184.1228,377.45156 c -1.2378,1.54725 -7.4268,-5.87955 -9.90241,-5.5701 -2.4756,0.30945 -6.189,6.49845 -6.189,10.21185 0,3.7134 3.0945,8.6646 5.5701,8.6646 2.47561,0 7.42681,-4.3323 8.97406,-3.40395 1.54725,0.92835 -8.0457,14.54415 3.40395,14.2347 11.44965,-0.30945 9.9024,-3.0945 9.59295,-5.26065 -0.30945,-2.16615 -4.64175,-6.49845 -3.7134,-7.73625 0.92835,-1.2378 5.87955,3.40395 9.9024,3.40395 4.02285,0 5.5701,-1.8567 5.5701,-6.189 0,-4.3323 -1.54725,-9.2835 -4.02285,-8.97405 -2.4756,0.30945 -8.6646,6.8079 -10.5213,3.40395 -1.8567,-3.40395 4.02285,-8.35515 4.02285,-12.06855 0,-3.7134 -0.92835,-7.73626 -6.189,-7.42681 -5.26065,0.30945 -7.11735,3.71341 -7.4268,6.18901 -0.30945,2.4756 2.16615,8.97405 0.92835,10.5213 z"
   style="fill:#d5105a;fill-opacity:1;fill-rule:evenodd;stroke:#000000;stroke-width:1pt;stroke-linecap:butt;stroke-linejoin:miter;stroke-opacity:1"
   id="path112" />
      <path
   d="m 173.91094,358.5751 c -1.08308,1.70198 9.59296,24.13711 12.06856,26.61271 2.4756,2.4756 16.7103,15.4725 18.25755,14.8536 1.54725,-0.6189 -12.9969,-12.68745 -17.01975,-18.87645 -4.02285,-6.189 -12.22328,-24.29183 -13.30636,-22.58986 z"
   style="fill:#62310e;fill-opacity:1;fill-rule:evenodd;stroke:none"
   id="path114" />
      <path
   d="m 171.48083,404.08319 c 1.70198,1.08308 6.49846,-10.83076 12.99691,-17.32921 2.4756,-2.4756 22.8993,-20.11425 22.2804,-21.6615 -0.6189,-1.54725 -17.63865,15.78195 -23.82765,19.8048 -6.189,4.02285 -13.15163,18.10283 -11.44966,19.18591 z"
   style="fill:#62310e;fill-opacity:1;fill-rule:evenodd;stroke:none"
   id="path116" />
      <path
   d="m 193.71575,382.40277 a 5.570105,5.570105 0 1 1 -11.14021,0 5.570105,5.570105 0 1 1 11.14021,0 z"
   transform="translate(-0.6189)"
   style="fill:#fedd00;fill-opacity:1;fill-rule:evenodd;stroke:none"
   id="path118" />
    </g>
    <use
   transform="rotate(167.81712,156.51326,385.96209)"
   width="744.09448"
   height="1052.3622"
   xlink:href="#a"
   id="use121" />
    <use
   transform="rotate(157.50067,173.20849,357.8404)"
   width="744.09448"
   height="1052.3622"
   xlink:href="#a"
   id="use123" />
    <path
   d="m 125.01783,360.74125 c 0,0 -10.5213,-9.2835 -15.78195,-9.59295 -5.26065,-0.30945 -10.211854,-0.30945 -10.211854,1.54725 0,1.8567 3.713404,1.54725 3.713404,3.7134 0,2.16615 -5.570105,0.92835 -5.570105,3.0945 0,2.16615 7.736255,6.80791 10.521305,5.87956 2.78505,-0.92835 14.54415,-5.57011 17.3292,-4.64176 z m -9.9024,-23.20875 c 0,0 -7.11735,-6.49845 -9.9024,-6.49845 -2.78505,0 -5.570104,1.8567 -5.570104,3.7134 0,1.8567 3.094504,4.3323 6.189004,4.3323 3.0945,0 9.2835,-1.54725 9.2835,-1.54725 z m 3.0945,-16.40086 c 0,0 -2.78505,-1.54725 -4.9512,-1.54725 -2.16615,0 -4.3323,3.0945 -6.8079,3.0945 -2.4756,0 -4.64175,-2.16615 -4.3323,-4.02285 0.30945,-1.8567 2.78505,-3.40395 6.8079,-3.40395 4.02285,0 8.97405,3.40395 9.2835,5.87955 z m 18.87646,-5.5701 c 0,0 3.7134,-6.189 7.73625,-6.49845 4.02285,-0.30945 5.87955,2.4756 5.87955,4.02285 0,1.54725 -3.0945,3.7134 -5.5701,3.7134 -2.4756,0 -3.7134,-1.8567 -8.0457,-1.2378 z m -8.97406,-18.567 c 0,0 3.7134,-0.30945 3.7134,2.16615 0,2.4756 0.92835,5.26065 2.16615,5.26065 1.2378,0 2.78506,-1.8567 2.47561,-4.3323 -0.30945,-2.4756 -0.92836,-5.87955 -3.40396,-5.87955 -2.4756,0 -4.02285,1.2378 -4.9512,2.78505 z m -10.21185,-1.8567 c -1.8567,0.30945 -5.87955,2.16615 -6.189,4.64175 -0.30945,2.4756 1.54725,3.40395 1.54725,3.40395 0,0 4.02285,-2.78505 4.3323,-4.64175 0.30945,-1.8567 0.30945,-3.40395 0.30945,-3.40395 z m 4.3323,-17.94811 c -1.2378,0 -4.64175,0.92835 -6.189,3.0945 -1.54725,2.16615 -0.6189,4.3323 0.92835,4.64175 1.54725,0.30945 0,-2.16615 2.4756,-3.40395 2.4756,-1.2378 2.78505,-4.3323 2.78505,-4.3323 z m 1.54725,7.73625 c 0,0 3.40395,-1.54725 4.64175,0.6189 1.2378,2.16616 2.16615,4.02286 3.7134,3.71341 1.54725,-0.30945 2.78505,-4.95121 0.92835,-6.80791 -1.8567,-1.8567 -5.5701,-1.2378 -7.11735,-1.2378 -1.54725,0 -2.16615,3.7134 -2.16615,3.7134 z m 4.02285,-25.3749 c 0,0 0.92835,-4.9512 3.7134,-6.189 2.78505,-1.2378 4.95121,0.30945 4.95121,2.16615 0,1.8567 -1.23781,4.02285 -3.71341,4.02285 z m 0.6189,11.44965 c 1.8567,-0.92835 1.54725,-4.3323 3.7134,-4.64175 2.16615,-0.30945 3.0945,1.54725 3.0945,3.0945 0,1.54725 0,2.78505 -2.78505,2.4756 -2.78505,-0.30945 -4.02285,-0.92835 -4.02285,-0.92835 z"
   style="fill:#d5105a;fill-opacity:1;fill-rule:evenodd;stroke:#000000;stroke-width:1pt;stroke-linecap:butt;stroke-linejoin:miter;stroke-opacity:1"
   id="path125" />
    <path
   d="m 124.39893,266.66843 c 0,0 0,-4.3323 1.2378,-6.189 1.2378,-1.8567 5.26065,0 4.3323,1.8567 -0.92835,1.8567 -4.3323,1.8567 -5.5701,4.3323 z"
   style="fill:#d5105a;fill-opacity:1;fill-rule:evenodd;stroke:#000000;stroke-width:1pt;stroke-linecap:butt;stroke-linejoin:miter;stroke-opacity:1"
   id="path127" />
    <path
   d="m 321.76032,479.87954 c -2.08935,0.83574 -14.62547,1.67148 -19.22205,1.25361 -4.59657,-0.41787 -16.71482,-4.17871 -24.23649,-3.76084 -7.52167,0.41787 -20.47565,5.85019 -20.47565,5.85019 0,0 7.93954,0.83574 10.86463,2.50722 2.92509,1.67149 10.44676,3.76084 16.71482,4.17871 6.26806,0.41787 18.80418,-4.17871 23.40075,-4.59658 4.59658,-0.41787 20.47566,-0.41787 20.47566,-0.41787 z"
   style="fill:#187b01;fill-opacity:1;fill-rule:evenodd;stroke:#1e501f;stroke-width:1pt;stroke-linecap:butt;stroke-linejoin:miter;stroke-opacity:0.941176"
   id="path129" />
  </g>
  <use
   style="fill-rule:evenodd"
   transform="matrix(-1,0,0,1,803.28654,-3.8921863e-5)"
   width="744.09448"
   height="1052.3622"
   xlink:href="#b"
   id="use132" />
  <path
   d="m 401.61328,171.11494 c 29.29167,1.27526 31.40133,41.9862 2.38083,46.28035 -30.83633,1.67052 -35.29932,-41.50787 -4.76295,-46.16218 l 2.38212,-0.11831 z"
   style="fill:none;stroke:#000000;stroke-width:2.62615;stroke-miterlimit:4;stroke-dasharray:none;stroke-opacity:1"
   id="path134" />
</svg>
