<?xml version="1.0" encoding="UTF-8" standalone="no"?>
<svg
   width="800"
   height="533"
   viewBox="-4800 -2400 6400 4264"
   version="1.1"
   id="svg52"
   sodipodi:docname="Flag_of_the_Northwest_Territories.svg"
   inkscape:version="1.2.2 (732a01da63, 2022-12-09)"
   xmlns:inkscape="http://www.inkscape.org/namespaces/inkscape"
   xmlns:sodipodi="http://sodipodi.sourceforge.net/DTD/sodipodi-0.dtd"
   xmlns:xlink="http://www.w3.org/1999/xlink"
   xmlns="http://www.w3.org/2000/svg"
   xmlns:svg="http://www.w3.org/2000/svg"
   xmlns:rdf="http://www.w3.org/1999/02/22-rdf-syntax-ns#"
   xmlns:cc="http://creativecommons.org/ns#"
   xmlns:dc="http://purl.org/dc/elements/1.1/">
  <sodipodi:namedview
     id="namedview54"
     pagecolor="#ffffff"
     bordercolor="#000000"
     borderopacity="0.25"
     inkscape:showpageshadow="2"
     inkscape:pageopacity="0.0"
     inkscape:pagecheckerboard="0"
     inkscape:deskcolor="#d1d1d1"
     showgrid="false"
     inkscape:zoom="1.2575"
     inkscape:cx="576.93837"
     inkscape:cy="292.64414"
     inkscape:window-width="2560"
     inkscape:window-height="1334"
     inkscape:window-x="-11"
     inkscape:window-y="-11"
     inkscape:window-maximized="1"
     inkscape:current-layer="svg52" />
  <title
     id="title2">Flag of  Northwest Territories</title>
  <defs
     id="defs11">
    <marker
       id="m"
       viewBox="-114 -199 228 398"
       markerWidth="228"
       markerHeight="398">
      <path
         fill="#ffc828"
         stroke="#000000"
         stroke-width="18"
         d="M -105,-190 H 105 V 190 H -105 Z"
         id="path4" />
    </marker>
    <path
       id="s"
       d="M -1240,-1600 H 1240 V -120 C 1240,957 222,1640 0,1640 -222,1640 -1240,957 -1240,-120 Z" />
    <clipPath
       id="c">
      <use
         xlink:href="#s"
         id="use8" />
    </clipPath>
  </defs>
  <path
     fill="#2a317d"
     d="m -4800,-2400 h 1600 l 66,87.945 H -66 L 0,-2400 H 1600 V 1864 H 0 l -66,-87.945 h -3068 l -66,87.945 h -1600 z"
     id="path13"
     style="stroke-width:0.76956" />
  <path
     fill="#ffffff"
     d="M -3207.9523,-2400 H 0 v 4264.0159 h -3207.9523 z"
     id="path15"
     style="stroke-width:0.770517" />
  <use
     xlink:href="#s"
     fill="#00754a"
     id="use17"
     transform="matrix(0.79302141,0,0,0.79302141,-1590.6223,-281.36532)" />
  <g
     fill="none"
     stroke="#000000"
     id="g50"
     transform="matrix(0.79302141,0,0,0.79302141,-1590.6223,-281.36532)">
    <g
       clip-path="url(#c)"
       id="g27">
      <path
         marker-mid="url(#m)"
         stroke="none"
         d="m -1200,-425 v 0 h 480 V 715 h 480 480 480 L -960,145 H -480 0 v 1140 h -480 960 v 0"
         id="path19" />
      <path
         fill="#e32726"
         stroke-width="24"
         d="M 935,1206 C 833,1108 865,922 764,824 662,725 477,764 375,666 274,567 306,381 204,283 102,185 -83,223 -184,125 c -102,-98 -70,-284 -172,-382 -101,-99 -286,-60 -388,-158 -102,-99 -76,-270 -76,-411 l 3220,-1574 z"
         id="path21" />
      <path
         fill="#ffffff"
         stroke-width="24"
         d="M -1400,-629 V -1700 H 1400 V -629 L 1225,-815 1050,-629 875,-815 700,-629 525,-815 350,-629 175,-815 0,-629 l -175,-186 -175,186 -175,-186 -175,186 -175,-186 -175,186 -175,-186 z"
         id="path23" />
      <path
         stroke="#2a317d"
         stroke-width="180"
         d="m -1560,-1106 c 142,0 248,-128 390,-128 142,0 248,128 390,128 142,0 248,-128 390,-128 142,0 248,128 390,128 142,0 248,-128 390,-128 142,0 248,128 390,128 142,0 248,-128 390,-128 142,0 248,128 390,128"
         id="path25" />
    </g>
    <g
       transform="translate(590)"
       stroke-linecap="round"
       id="g46">
      <path
         fill="#000000"
         stroke="none"
         d="m 0,398 c -43,0 -99,-27 -114,-71 -48,-14 -73,-33 -114,-89 -25,-35 -62,-75 -94,-99 -82,-63 -118,-197 -62,-289 -7,-25 -7,-50 -3,-67 -15,-35 -10,-62 9,-99 20,-40 31,-103 40,-134 14,-45 39,-66 71,-73 9,40 40,51 57,65 29,24 40,32 57,66 48,-31 110,-43 153,-43 43,0 105,12 153,43 17,-34 28,-42 57,-66 17,-14 48,-25 57,-65 32,7 57,28 71,73 9,31 20,94 40,134 19,37 24,64 9,99 4,17 4,42 -3,67 56,92 20,226 -62,289 -32,24 -69,64 -94,99 -41,56 -66,75 -114,89 -15,44 -71,71 -114,71 z"
         id="path29" />
      <path
         fill="#ffffff"
         stroke="none"
         d="m 0,237 c -18,0 -49,15 -49,22 1,9 2,27 20,40 2,2 3,6 2,8 -3,6 -24,11 -44,3 -7,-3 -18,-15 -22,-26 -2,-10 -3,-20 -7,-28 -2,-5 -3,-8 -1,-14 8,-23 42,-50 47,-76 3,-15 -7,-23 -12,-10 -28,68 -45,70 -49,71 -18,0 -27,-24 -37,-16 -9,7 16,27 21,30 6,5 8,26 1,37 -26,-1 -70,-26 -115,-149 0,-11 2,-22 4,-31 3,-18 -16,-17 -20,-7 -9,27 -17,24 -20,23 -47,-13 -80,-76 -91,-123 -17,-68 2,-123 50,-163 -15,-22 -27,-44 -35,-70 -3,-11 0,-20 3,-29 4,-13 26,-74 32,-98 4,-16 8,-35 12,-57 5,-27 17,-42 24,-43 10,16 32,32 49,44 10,7 35,24 43,55 l 15,55 c 2,9 22,31 26,-41 33,-25 100,-41 153,-41 53,0 120,16 153,41 4,72 24,50 26,41 l 15,-55 c 8,-31 33,-48 43,-55 17,-12 39,-28 49,-44 7,1 19,16 24,43 4,22 8,41 12,57 6,24 28,85 32,98 3,9 6,18 3,29 -8,26 -20,48 -35,70 48,40 67,95 50,163 -11,47 -44,110 -91,123 -3,1 -11,4 -20,-23 -4,-10 -23,-11 -20,7 2,9 4,20 4,31 -45,123 -89,148 -115,149 -7,-11 -5,-32 1,-37 5,-3 30,-23 21,-30 -10,-8 -19,16 -37,16 -4,-1 -21,-3 -49,-71 -5,-13 -15,-5 -12,10 5,26 39,53 47,76 2,6 1,9 -1,14 -4,8 -5,18 -7,28 -4,11 -15,23 -22,26 -20,8 -41,3 -44,-3 -1,-2 0,-6 2,-8 18,-13 19,-31 20,-40 0,-7 -31,-22 -49,-22 z m -39,109 c -1,0 -3,-5 3,-4 8,3 22,-11 36,-11 14,0 28,14 36,11 6,-1 4,4 3,4 -12,11 -34,14 -39,14 -5,0 -27,-3 -39,-14 z m 61,-75 c -8,-3 -15,-4 -22,-4 -7,0 -14,1 -22,4 3,-8 14,-15 22,-15 8,0 19,7 22,15 z m 234,-619 c 0,-1 1,-5 5,-1 15,20 11,3 11,-1 -5,-22 -4,-35 0,-46 2,-7 4,-12 9,-13 3,-1 7,-1 13,-2 l 2,-1 c -5,-6 -12,-13 -18,-15 -10,-3 -13,5 -14,9 -3,10 -4,9 -14,31 -2,4 -17,28 -20,49 -1,13 -16,7 -22,27 0,3 -5,12 -6,14 -12,28 0,41 2,41 3,-1 2,-8 4,-18 4,-17 23,-39 28,-35 15,13 9,-4 8,-8 -1,-5 7,-17 9,-19 3,-6 3,-9 3,-12 z m -539,-33 c 11,51 34,70 40,78 7,11 11,22 12,38 1,14 9,8 11,-3 2,-10 2,-18 0,-28 -3,-14 -6,-32 -1,-43 4,-9 -1,-10 -5,-5 -1,1 -5,14 -11,18 -5,4 -13,-10 -13,-14 -2,-9 9,-15 6,-19 -3,-4 -13,5 -15,2 -8,-13 -6,-21 -6,-22 -1,-13 20,-25 15,-31 -4,-5 -18,15 -22,10 -9,-10 -7,-25 -15,-25 -10,0 -2,15 4,44 z m 293,38 c -1,-12 -3,-21 -10,-21 -7,0 -9,9 -10,21 0,11 2,22 10,22 8,0 10,-11 10,-22 z"
         id="path31" />
      <path
         stroke-width="10"
         d="m 155,-225 c 27,-2 54,8 73,23 m -123,-18 c 18,-4 53,-2 74,6 m -115,10 c 17,-9 37,-13 59,-11 m -279,-9 c 24,-8 50,-9 74,-6 m -134,18 c 21,-16 45,-24 72,-24"
         id="path33" />
      <g
         id="l">
        <path
           fill="#000000"
           stroke="none"
           d="m -94,32 c -9,-4 -18,2 -27,8 -17,14 -48,8 -80,-41 -17,-26 -27,-37 -44,-42 -6,-1 -9,-11 4,-8 11,2 36,14 72,0 23,-9 54,2 62,5 7,3 27,16 22,30 -4,10 2,18 6,21 18,16 14,41 -15,27 z m -68,-60 c -14,39 27,58 54,32 -15,-1 -46,-14 -54,-32 m 28,7 c 5,3 14,5 16,1 1,-1 2,-2 2,-5 0,-4 -4,-9 -8,-11 -5,-2 -12,-2 -14,2 -3,4 0,10 4,13 z m 44,-306 c 0,-6 1,-13 7,-15 6,-1 11,4 13,12 2,8 0,16 -7,18 -7,1 -12,-8 -13,-15 z m 32,-14 c 1,-7 3,-20 12,-19 10,1 9,15 8,23 -1,7 -4,19 -12,18 -9,-1 -8,-15 -8,-22 z m -270,258 c 2,-8 18,-32 27,-34 5,-1 8,3 3,9 -7,6 -9,11 -10,15 -3,9 -8,14 -11,16 -9,8 -10,-1 -9,-6 z m 21,15 c 1,-2 6,-8 8,-13 2,-6 3,-7 5,-9 5,-5 9,-12 10,-14 4,-7 8,-4 7,2 l -5,22 c -3,12 -17,16 -19,17 -8,5 -9,-1 -6,-5 z"
           id="path35" />
        <path
           stroke-width="8"
           d="m -104,-98 c 11,4 17,12 24,16 6,4 5,6 5,7"
           id="path37" />
        <path
           stroke-width="9"
           d="m -297,-160 c 7,-7 20,-14 28,-15 m -58,62 c 15,-15 24,-23 36,-31 m 174,55 c 18,0 32,5 41,14"
           id="path39" />
        <path
           stroke-width="14"
           d="m -316,-224 c 6,9 14,16 23,19"
           id="path41" />
      </g>
      <use
         transform="scale(-1,1)"
         xlink:href="#l"
         id="use44" />
    </g>
    <use
       xlink:href="#s"
       stroke-width="42"
       id="use48" />
  </g>
  <metadata
     id="metadata261">
    <rdf:RDF>
      <cc:Work
         rdf:about="">
        <dc:title>Flag of  Northwest Territories</dc:title>
      </cc:Work>
    </rdf:RDF>
  </metadata>
</svg>
