<?xml version="1.0" encoding="UTF-8" standalone="no"?>
<svg
   width="800"
   height="533"
   xml:space="preserve"
   version="1.1"
   id="svg42"
   sodipodi:docname="Flag_of_Ontario.svg"
   inkscape:version="1.2.2 (732a01da63, 2022-12-09)"
   xmlns:inkscape="http://www.inkscape.org/namespaces/inkscape"
   xmlns:sodipodi="http://sodipodi.sourceforge.net/DTD/sodipodi-0.dtd"
   xmlns="http://www.w3.org/2000/svg"
   xmlns:svg="http://www.w3.org/2000/svg"><defs
   id="defs46" /><sodipodi:namedview
   id="namedview44"
   pagecolor="#ffffff"
   bordercolor="#000000"
   borderopacity="0.25"
   inkscape:showpageshadow="2"
   inkscape:pageopacity="0.0"
   inkscape:pagecheckerboard="0"
   inkscape:deskcolor="#d1d1d1"
   showgrid="false"
   inkscape:zoom="256"
   inkscape:cx="797.35742"
   inkscape:cy="290.57422"
   inkscape:window-width="2560"
   inkscape:window-height="1334"
   inkscape:window-x="-11"
   inkscape:window-y="-11"
   inkscape:window-maximized="1"
   inkscape:current-layer="svg42" />
  <path
   fill="#c8102e"
   d="M 0,0 H 800 V 533 H 0 Z"
   id="path2"
   style="stroke-width:0.38478" />
  <path
   fill="#012169"
   d="M 0,0 H 400 V 266.5 H 0 Z"
   id="path4"
   style="stroke-width:0.38478" />
  <path
   fill="#ffffff"
   d="M 44.723,266.5 H 0 V 236.70397 L 355.28,0 H 400 v 29.759167 z"
   id="path6"
   style="stroke-width:0.38478" />
  <path
   fill="#ffffff"
   d="M 0,29.797365 355.28,266.5 H 400 V 236.70441 L 44.723,0 H 0 Z"
   id="path8"
   style="stroke-width:0.38478" />
  <path
   fill="#ffffff"
   d="M 0,88.834666 V 177.66667 H 400 V 88.833333 Z"
   id="path10"
   style="stroke-width:0.38478" />
  <path
   fill="#ffffff"
   d="m 166.66667,266.5 h 66.66666 V 0 h -66.66666 z"
   id="path12"
   style="stroke-width:0.38478" />
  <path
   fill="#c8102e"
   d="m 0,106.6 v 53.3 H 400 V 106.60089 Z M 400,246.63642 V 266.5 L 266.66767,177.66755 h 29.81366 z M 236.85367,88.833333 370.187,0 H 400 L 266.66667,88.833333 Z m -103.52034,0 H 103.52067 L 0,19.865798 V 0 Z M 29.815667,266.5 H 0 l 133.33333,-88.83333 h 29.815 z"
   id="path14"
   style="stroke-width:0.38478" />
  <path
   fill="#007934"
   stroke="#000000"
   stroke-width="3.29215"
   d="m 499.30462,225.39661 0.0293,41.08935 c 0.0413,54.61065 54.48799,104.62584 98.70778,123.49974 44.21936,-18.8739 98.66702,-68.88909 98.70779,-123.49974 l 0.0293,-41.07289 z"
   id="path16" />
  <path
   fill="#f3cc00"
   d="m 677.39318,296.64578 7.67897,-5.36044 -7.69129,-5.37651 1.25922,-2.14689 -16.11505,-0.0128 8.04149,-13.9258 -2.49424,0.0132 -0.83949,-9.34395 -8.51436,3.94318 -1.23451,-2.16583 -8.03661,13.92746 -8.06986,-13.94928 -1.23002,2.16254 -8.50197,-3.97158 -0.80247,9.33121 -2.49381,-0.0185 8.07357,13.94555 -7.05341,-0.007 1.10695,1.87981 -6.72011,4.69132 6.72837,4.7049 -1.09876,1.87776 14.09862,0.014 0.12756,0.0736 c -11.15297,16.47846 -26.29725,32.00591 -43.16956,44.27534 l -0.0113,-64.73154 12.21427,7.0378 -0.0125,-2.17611 8.181,-0.71028 -3.47323,-7.42215 1.89342,-1.07612 -6.10692,-3.51933 13.96278,-8.04148 -2.16867,-1.23004 3.97074,-8.48222 -9.34971,-0.81152 0.0162,-2.48762 -13.96323,8.04642 v -16.08092 l -2.15181,1.258 -5.40036,-7.67235 -5.39917,7.67153 -2.15181,-1.25801 v 16.08093 l -13.96324,-8.04643 0.0163,2.48762 -9.34973,0.81152 3.97075,8.48224 -2.16868,1.23003 13.9628,8.04149 -6.10692,3.51931 1.89342,1.07612 -3.47323,7.42216 8.18098,0.71028 -0.0125,2.17611 12.21427,-7.0378 -0.009,64.60932 c -16.8609,-12.29083 -31.98792,-27.83144 -43.11456,-44.31606 l 0.0699,-0.0408 14.09861,-0.0143 -1.09875,-1.87735 6.7283,-4.70531 -6.72004,-4.69049 1.10694,-1.88064 -7.0534,0.008 8.074,-13.94598 -2.49422,0.019 -0.80249,-9.3312 -8.50197,3.97157 -1.23,-2.16213 -8.06995,13.94885 -8.03653,-13.92745 -1.23459,2.16584 -8.51428,-3.94318 -0.8395,9.34354 -2.49424,-0.0128 8.04149,13.92538 -16.11503,0.0127 1.25922,2.14772 -7.69131,5.3761 7.67898,5.36085 -1.26298,2.14936 16.11467,-0.0181 -3.53083,6.10283 2.18145,-0.0165 0.69918,8.16494 7.44028,-3.47527 1.07819,1.89216 7.06167,-12.20319 0.12712,-0.0736 c 12.14886,18.10355 28.35489,34.50382 47.04489,47.60782 l -0.007,27.38042 2.40325,-0.0161 2.39919,0.0161 -0.007,-27.26479 c 18.70356,-13.08383 34.92684,-29.46805 47.09959,-47.56089 l 0.0696,0.0403 7.06128,12.20277 1.07857,-1.89176 7.4403,3.47529 0.69917,-8.16455 2.18144,0.0165 -3.53083,-6.10323 16.1151,0.0181 z"
   style="stroke:none;stroke-width:0.411519"
   id="path18" />
  <path
   fill="none"
   stroke="#000"
   stroke-width="0.822958"
   stroke-linecap="round"
   stroke-linejoin="round"
   style="fill:none;fill-opacity:1;stroke:#007934;stroke-opacity:1"
   d="m 598.02354,239.04753 v 33.98282 m 18.99571,5.49131 -45.01607,-24.98044 m 6.95879,25.01254 45.12301,-25.08251"
   id="path20" />
  <path
   fill="none"
   stroke="#000"
   stroke-width="0.822958"
   stroke-linecap="round"
   stroke-linejoin="round"
   d="m 593.07291,243.93101 4.9712,8.56083 4.97114,-8.56083 m -29.25904,16.06118 9.90119,-0.0243 -4.92962,-8.23119 m 43.60417,8.18511 -9.90114,-0.0248 4.92956,-8.2308"
   style="stroke:#007934;stroke-opacity:1"
   id="path22" />
  <path
   fill="none"
   stroke="#000"
   stroke-width="0.822958"
   stroke-linecap="round"
   stroke-linejoin="round"
   style="fill:none;fill-opacity:1;stroke:#007934;stroke-opacity:1"
   d="m 664.24061,265.62589 -16.98706,29.42978 m 13.70354,14.2542 -26.49354,-44.14201 m -6.48149,25.14094 51.62057,0.83992"
   id="path24" />
  <path
   fill="none"
   stroke="#000"
   stroke-width="0.822958"
   stroke-linecap="round"
   stroke-linejoin="round"
   d="m 657.51268,267.3802 0.0256,9.89868 8.58845,-4.92795 m -33.37092,-0.71934 8.58426,4.92876 -0.15226,-9.59208 m 33.6705,28.88904 -8.55998,-4.96868 8.38302,-4.66457"
   style="stroke:#007934;stroke-opacity:1"
   id="path26" />
  <path
   fill="none"
   stroke="#000"
   stroke-width="0.822958"
   stroke-linecap="round"
   stroke-linejoin="round"
   style="fill:none;fill-opacity:1;stroke:#007934;stroke-opacity:1"
   d="m 531.84712,265.49667 16.99161,29.4302 m -13.70766,14.25419 26.49359,-44.14241 m 6.48143,25.14135 -51.62057,0.83949"
   id="path28" />
  <path
   fill="none"
   stroke="#000"
   stroke-width="0.822958"
   stroke-linecap="round"
   stroke-linejoin="round"
   d="m 538.57548,267.25139 -0.0256,9.89868 -8.5884,-4.92711 m 33.37086,-0.721 -8.58426,4.92919 0.15227,-9.59169 m -33.67051,28.88904 8.55961,-4.97032 -8.38266,-4.66457"
   style="stroke:#007934;stroke-opacity:1"
   id="path30" />
  <path
   fill="#ffffff"
   d="m 499.29599,143.08786 h 197.51306 v 82.3639 H 499.29599 Z"
   id="path32"
   style="stroke-width:0.411519" />
  <path
   fill="#C8102E"
   style="fill:#c8102e;fill-opacity:1;stroke-width:0.411519"
   d="m 607.31148,143.09857 h -18.51835 v 82.34454 h 18.51835 z"
   id="path34" />
  <path
   fill="#C8102E"
   style="fill:#c8102e;fill-opacity:1;stroke-width:0.411519"
   d="M 696.80867,175.0094 H 499.29599 v 18.52205 h 197.51268 z"
   id="path36" />
  <path
   fill="none"
   stroke="#000000"
   stroke-width="3.29215"
   d="m 499.27954,143.07552 h 197.51388 v 82.3643 H 499.27954 Z"
   id="path38" />
  <path
   fill="#c8102e"
   d="m 180,0 v 266.5 h 40 V 0 Z"
   id="path40"
   style="stroke-width:0.38478" />
</svg>
