<?xml version="1.0" encoding="UTF-8"?>
<svg width="800" height="533" version="1" xmlns="http://www.w3.org/2000/svg">
 <path d="m0-4e-6h800v533h-800z" fill="#076a21" fill-rule="evenodd" stroke-width=".93092"/>
 <path d="m0 266.53h800v266.5h-800z" fill="#fdd401" fill-rule="evenodd" stroke-width=".93092"/>
 <path d="m617.56 205.58-4.8597-38.338" fill="none" stroke="#000" stroke-width="1.898"/>
 <g stroke="#003d00" stroke-width="1.2455">
  <path d="m660.59 389.32s-13.543-9.8497-15.39-20.315c-1.8468-10.465-3.078-24.624-3.078-24.624l9.8497 5.5404s1.2312 14.159 1.8468 20.315c0.61561 6.1561 6.7716 19.084 6.7716 19.084zm20.427-118.78c10.421-0.82122 10.969 15.975 10.969 15.975s-18.468-9.8497-26.471-9.8497c-8.0028 0 15.502-6.1248 15.502-6.1249z" fill="#016b29" fill-rule="evenodd"/>
  <path d="m691.66 285.77c-0.40425-0.40425-14.068-13.825-20.778-13.664-6.7105 0.16171-6.8722 0.3234-6.8722 0.3234" fill="none"/>
  <path d="m576.25 277.9h-16.006c-5.5404 0-16.006-1.2312-16.006-1.2312s14.775 9.8497 22.777 9.2341c8.0029-0.61561 27.087 0.61561 27.087 0.61561l-11.081-8.0029z" fill="#016b29" fill-rule="evenodd"/>
  <path d="m545.81 277.2s14.715 4.2042 20.536 4.4467c5.8212 0.24255 22.153-0.8085 22.153-0.8085" fill="none"/>
 </g>
 <g fill="#016b29" fill-rule="evenodd" stroke="#003d00" stroke-width="1.2455">
  <path d="m658.74 388.09c-1.8468-3.078-9.8497-12.312-11.081-20.315-1.2312-8.0029 1.8468-19.084 1.8468-19.084m-99.728 22.162s30.78-39.399 36.321-44.324c5.5404-4.9248 30.78-17.853 33.858-20.931 3.078-3.078 32.011-30.78 38.167-33.243 6.1561-2.4624 24.009-1.8468 24.009-1.8468s-6.156 1.2312-9.8497 4.3092c-3.6936 3.078-11.696 11.696-17.237 15.39-5.5404 3.6936-48.017 30.78-53.558 36.936-5.5404 6.156-13.543 16.621-17.853 20.315-4.3092 3.6936-33.858 23.393-33.858 23.393z"/>
  <path d="m575.63 277.9s17.853 11.696 20.931 15.39c3.078 3.6936 17.853 18.468 19.084 20.931 1.2312 2.4624 20.931 30.78 26.471 35.705 5.5404 4.9248 11.081 12.928 11.696 16.621l0.61561 3.6936s-1.2312-25.24-2.4624-27.702c-1.2312-2.4624-6.7716-4.3092-11.696-9.8497-4.9248-5.5404-14.775-10.465-24.624-25.855-3.078-7.3873-20.931-28.318-25.24-29.549-4.3092-1.2312-14.775 0.61559-14.775 0.61559z"/>
  <path d="m695.06 353s-3.6936-16.621-17.237-26.471-36.936-19.084-62.176-19.699c-25.24-0.61561-38.783 1.8468-40.63 2.4624s-6.156 10.465-6.156 10.465 25.24-5.5404 40.63-5.5404c15.39 0 46.17 11.696 52.326 15.39 6.156 3.6936 33.243 23.393 33.243 23.393z"/>
 </g>
 <g fill="none" stroke="#003d00" stroke-width="1.2455">
  <path d="m551.62 369.01s25.24-22.162 28.933-25.855c3.6936-3.6936 11.081-16.006 16.621-19.699 5.5404-3.6936 45.555-33.243 48.633-35.705 3.078-2.4624 19.699-16.621 19.699-16.621"/>
  <path d="m574.4 314.83s27.087-5.5404 39.399-4.9248 56.02 17.853 60.329 20.931 18.468 19.699 18.468 19.699"/>
  <path d="m653.81 357.31s-37.552-48.633-44.324-56.02c-6.7716-7.3872-27.702-24.009-27.702-24.009"/>
 </g>
 <g stroke="#003d00" stroke-width="1.2455">
  <path d="m543.01 333.92s12.928-9.8497 18.468-14.159c5.5404-4.3092 13.543-10.465 13.543-10.465l7.9377-1.1301s-8.5533 12.211-13.478 15.905c-4.9248 3.6936-26.471 9.8497-26.471 9.8497z" fill="#016b29" fill-rule="evenodd"/>
  <path d="m578.27 308.92s-8.405 8.6005-11.598 10.946c-3.1926 2.3456-21.306 12.64-21.306 12.64" fill="none"/>
  <path d="m621.19 440.42-1.2312-182.22s4.3092-3.078 6.156-11.696c1.8468-8.6185-1.2312-40.014-1.2312-40.014s-21.546-4.3092-20.931-1.8468c0.61561 2.4624 2.4624 29.549 3.6936 34.474 1.2312 4.9248 6.7716 19.084 6.7716 19.084s-3.6936 159.44-3.6936 165.6 10.465 16.621 10.465 16.621z" fill="#016b29" fill-rule="evenodd"/>
  <path d="m610.42 214.66-1.372 17.837m2.7441 1.8294c0-1.8294 1.3721-18.752 1.3721-18.752m2.7441 22.41-0.45735-25.154m3.6588 30.643 0.45734-27.441m0.45736 32.93s3.2015-7.3177 3.2015-14.178v-16.465m-12.84 205.01s3.536-2.6 7.508 3.4809c2.7441 4.1162 3.2015 10.574 3.3243 12.662" fill="none"/>
 </g>
 <g fill-rule="evenodd">
  <path d="m553.47 156.62s1.8468 23.393 8.6185 29.549c6.7716 6.156 24.009 6.7716 24.009 6.7716s-19.084 10.465-20.315 20.931c-1.2312 10.465 10.465 25.24 10.465 25.24s3.6936-5.5404 6.156-6.7717 8.0029-0.61561 11.081-2.4624c3.078-1.8468 10.465-10.465 13.543-10.465s12.312 8.6185 16.006 10.465c3.6937 1.8468 9.2341 3.6936 11.696 5.5404s6.1561 3.6936 6.1561 3.6936 4.3092-4.3092 6.156-7.3873c1.8468-3.078 0-4.9248 1.8468-8.0029 1.8469-3.078 10.465-12.312 8.6185-17.237-1.8468-4.9248-4.3092-6.156-8.6185-6.7717-4.3092-0.6156-8.6184 0-8.6184 0l8.6184-4.9248s4.9249 1.8468 9.2341 1.8468c4.3093 0 19.699-4.9248 22.777-5.5404 3.078-0.61561 10.465 1.2312 10.465 1.2312s-2.4625-26.471-23.393-27.702c-20.931-1.2312-18.468 11.696-24.009 15.39s-9.8497 8.6185-9.8497 8.6185 1.8468-6.156 4.9249-9.8497c3.078-3.6936 10.465-11.081 12.928-14.775 2.4624-3.6936 5.5404-12.928 5.5404-17.237 0-4.3092-3.078-11.696-3.078-15.39s0.6156-7.3873 0.6156-7.3873-12.312 3.6936-19.699 9.8497c-7.3872 6.156-15.39 20.315-15.39 20.315s-5.5404-10.465-9.2341-13.543c-3.6936-3.078-13.543-8.0029-16.006-10.465s-5.5404-7.3873-5.5404-7.3873-8.0029 16.621-8.0029 22.162c0 5.5404 4.3092 14.159 4.3092 14.159-6.156-2.4624-13.543 0.61561-19.084 0.61561s-12.928-3.078-12.928-3.078z" fill="#dd1810" stroke="#000" stroke-width="1.2455"/>
  <path d="m577.06 219.62s4.3197-9.1794 9.7193-10.799c5.3997-1.6199 23.219 2.1599 23.219 2.1599l-2.6999 5.9396s-7.0195 0-7.5595-2.1599 1.6199-3.2398 1.6199-3.2398-8.0995-0.53997-12.959 0-11.339 8.0995-11.339 8.0995z" fill="#fee500"/>
  <path d="m622.96 210.44s3.7798 0.53996 5.9396 3.2398c2.1599 2.6998 5.3997 8.6394 5.3997 8.6394s2.1598-4.3197-0.54-7.5595c-2.6998-3.2398-4.8597-4.8597-4.8597-4.8597l2.1599-3.2398s3.2398 0.53997 4.8597 3.2398c1.6199 2.6998 3.2398 3.7798 3.2398 3.7798s1.0799-3.7798-1.08-5.9396c-2.1598-2.1599-3.7797-2.6998-3.7797-2.6998s2.1598-1.6199 5.3996-0.53997 8.6395 4.3197 8.6395 4.3197-3.2398-5.3996-5.9396-5.9396c-2.6999-0.53996-6.4796-0.53996-6.4796-0.53996s14.039-14.579 19.439-17.819c5.3997-3.2398 15.659-4.8597 15.659-4.8597s0-2.1599-3.7797-2.6998c-3.7798-0.53996-19.979 8.0995-19.979 8.0995l3.7797-6.4796s-23.758 14.039-26.458 17.819 4.3197-10.259 7.0196-13.499c2.6998-3.2398 8.0994-8.0995 9.7193-12.959s3.2398-8.6394 3.2398-8.6394-10.259 9.7194-12.419 12.959c-2.1598 3.2398-3.7797 9.7194-7.0195 8.0995-3.2398-1.6199-3.7798-5.9396-3.7798-5.9396s-1.0799 7.5595-3.2398 7.0196c-2.1598-0.53997-3.2398-3.2398-3.2398-3.2398s0 4.8597-2.6998 4.3197c-2.6998-0.53997-0.54-4.3197-2.6998-8.0995-2.1599-3.7798-5.3997-4.3197-5.3997-4.3197s2.6999 5.9396 2.1599 8.6394-1.0799 9.1794-4.8597 7.0196-4.3197-5.3996-7.0196-4.8597c-2.6998 0.53997 1.08 2.6998-0.5399 4.3197-1.6199 1.6199-4.8597 2.6998-4.8597 2.6998s3.7798 0.53997 5.9396 3.7798c2.1599 3.2398 7.0196 3.2398 9.1794 7.5595 2.1599 4.3197 3.2398 10.799 3.2398 10.799z" fill="#fee500"/>
  <path d="m601.36 186.68 12.959 21.599s4.3197-5.9396 7.0195-5.9396 5.9396 2.1599 5.9396 2.1599 1.6199-10.259 1.08-13.499c-0.54-3.2398-2.1599-6.4796-5.9396-6.4796-3.7798 0-4.8597-0.53997-5.9397 2.1599-1.0799 2.6998-1.0799 11.339-1.0799 11.339s-1.6199-9.7194-5.3996-12.419c-3.7798-2.6998-3.7798-3.7798-6.4796-2.1599-2.6999 1.6199-2.1599 3.2398-2.1599 3.2398z" fill="#016b29"/>
  <path d="m587.86 202.34s3.2398 3.2398 7.0195 3.2398c3.7798 0 14.579 1.6199 14.579 1.6199l-0.54-2.1599s-18.359-4.3197-21.059-2.6998zm-2.1599 14.579s-3.7798 1.0799-5.3997 4.3197c-1.6198 3.2398 0.54 5.3996 0.54 5.3996s0-3.7798 2.6998-5.3996c2.6999-1.6199 2.1599-4.3197 2.1599-4.3197zm-19.979-35.098s2.6998 3.2398 5.3996 3.2398c2.6999 0 8.0995 1.0799 8.0995 1.0799s-6.4796 3.2398-9.1794 2.1599-4.3197-6.4796-4.3197-6.4796zm9.7194-16.739s2.6998 2.1599 6.4795 4.3197c3.7798 2.1599 6.4796 2.1599 6.4796 2.1599s-1.0799-2.1599-4.3197-3.7798c-3.2398-1.6199-8.6394-2.6998-8.6394-2.6998zm14.039-20.519s-1.6199 4.8597 0 9.1794c1.6199 4.3197 5.3996 8.0995 5.3996 8.0995s1.6199-6.4796-0.54-9.1794c-2.1598-2.6998-4.8596-8.0995-4.8596-8.0995zm5.3996-1.6199s2.1599 3.2398 3.2398 5.9396c1.0799 2.6998 4.3197 5.3997 4.3197 5.3997s0-4.8597-2.1598-7.0196c-2.1599-2.1599-5.3997-4.3197-5.3997-4.3197zm52.917 1.6199s-2.1598 0-3.7797 3.2398-0.54 6.4796-0.54 6.4796 0.54-2.1599 2.6998-4.8597c2.1599-2.6998 1.6199-4.8597 1.6199-4.8597z" fill="#fee500"/>
  <path d="m629.98 165.63c0-1.4919-1.4495-2.7019-3.2398-2.7019s-3.2412 1.21-3.2398 2.7019c0 1.4919 1.4495 2.7019 3.2398 2.7019s3.2412-1.21 3.2398-2.7019zm-4.8596 5.3997c0-1.4919-1.4496-2.7019-3.2398-2.7019-1.7903 0-3.2412 1.21-3.2398 2.7019 0 1.4919 1.4495 2.7019 3.2398 2.7019 1.7902 0 3.2411-1.21 3.2398-2.7019z"/>
  <path d="m635.38 166.71c0-1.4919-1.4495-2.7019-3.2398-2.7019-1.7902 0-3.2411 1.21-3.2398 2.7019 0 1.4919 1.4496 2.7019 3.2398 2.7019 1.7903 0 3.2412-1.21 3.2398-2.7019z"/>
  <path d="m638.62 171.03c0-1.4919-1.4495-2.7019-3.2398-2.7019-1.7902 0-3.2411 1.21-3.2398 2.7019 0 1.4919 1.4496 2.7019 3.2398 2.7019 1.7903 0 3.2412-1.21 3.2398-2.7019zm-27.538-6.4796c0-1.4919-1.4496-2.7019-3.2398-2.7019-1.7903 0-3.2412 1.21-3.2398 2.7019 0 1.4919 1.4495 2.7019 3.2398 2.7019 1.7902 0 3.2411-1.21 3.2398-2.7019z"/>
  <path d="m617.02 163.47c0-1.4919-1.4495-2.7019-3.2398-2.7019s-3.2412 1.21-3.2398 2.7019c0 1.4919 1.4495 2.7019 3.2398 2.7019s3.2412-1.21 3.2398-2.7019z"/>
  <path d="m622.42 165.09c0-1.4919-1.4495-2.7019-3.2397-2.7019-1.7903 0-3.2412 1.21-3.2398 2.7019 0 1.4919 1.4495 2.7019 3.2398 2.7019 1.7902 0 3.2411-1.21 3.2397-2.7019zm-17.279 4.8597c0-1.4919-1.4496-2.7019-3.2398-2.7019-1.7903 0-3.2412 1.21-3.2398 2.7019 0 1.4919 1.4495 2.7019 3.2398 2.7019 1.7902 0 3.2411-1.21 3.2398-2.7019zm-11.879 3.2398c0-1.4919-1.4495-2.7019-3.2398-2.7019-1.7902 0-3.2411 1.21-3.2398 2.7019 0 1.4919 1.4496 2.7019 3.2398 2.7019 1.7903 0 3.2412-1.21 3.2398-2.7019zm52.377 15.119c0-1.4919-1.4496-2.7019-3.2398-2.7019-1.7903 0-3.2412 1.21-3.2398 2.7019 0 1.4919 1.4495 2.7019 3.2398 2.7019 1.7902 0 3.2411-1.21 3.2398-2.7019zm7.5595 2.6998c0-1.4919-1.4495-2.7019-3.2398-2.7019s-3.2412 1.21-3.2398 2.7019c0 1.4919 1.4495 2.7019 3.2398 2.7019s3.2411-1.21 3.2398-2.7019zm2.6998-5.3997c0-1.4919-1.4495-2.7019-3.2398-2.7019-1.7902 0-3.2411 1.21-3.2398 2.7019 0 1.4919 1.4496 2.7019 3.2398 2.7019 1.7903 0 3.2412-1.21 3.2398-2.7019z"/>
  <path d="m669.93 186.68c0-1.4919-1.4495-2.7019-3.2398-2.7019-1.7902 0-3.2411 1.21-3.2398 2.7019 0 1.4919 1.4496 2.7019 3.2398 2.7019 1.7903 0 3.2412-1.21 3.2398-2.7019z" fill-opacity=".75"/>
  <path d="m601.9 205.04c0-1.4919-1.4496-2.7019-3.2398-2.7019-1.7903 0-3.2412 1.21-3.2398 2.7019 0 1.4919 1.4495 2.7019 3.2398 2.7019 1.7902 0 3.2411-1.21 3.2398-2.7019zm6.4796 3.2398c0-1.4919-1.4496-2.7019-3.2398-2.7019-1.7903 0-3.2412 1.21-3.2398 2.7019 0 1.4919 1.4495 2.7019 3.2398 2.7019 1.7902 0 3.2411-1.21 3.2398-2.7019zm21.599 7.0195c0-1.4919-1.4496-2.7019-3.2398-2.7019-1.7903 0-3.2412 1.21-3.2398 2.7019 0 1.4919 1.4495 2.7019 3.2398 2.7019 1.7902 0 3.2411-1.21 3.2398-2.7019z"/>
  <path d="m625.66 213.68c0-1.4919-1.4495-2.7019-3.2397-2.7019-1.7903 0-3.2412 1.21-3.2398 2.7019 0 1.4919 1.4495 2.7019 3.2398 2.7019 1.7902 0 3.2411-1.21 3.2397-2.7019zm-39.417-33.478c0-1.4919-1.4495-2.7019-3.2398-2.7019-1.7902 0-3.2411 1.21-3.2398 2.7019 0 1.4919 1.4496 2.7019 3.2398 2.7019 1.7903 0 3.2412-1.21 3.2398-2.7019zm6.4796 3.2398c0-1.4919-1.4496-2.7019-3.2398-2.7019-1.7903 0-3.2412 1.21-3.2398 2.7019 0 1.4919 1.4495 2.7019 3.2398 2.7019 1.7902 0 3.2411-1.21 3.2398-2.7019zm9.1794 5.9396c0-1.4919-1.4496-2.7019-3.2398-2.7019-1.7903 0-3.2412 1.21-3.2398 2.7019 0 1.4919 1.4495 2.7019 3.2398 2.7019 1.7902 0 3.2411-1.21 3.2398-2.7019zm-7.0196 1.0799c0-1.4919-1.4495-2.7019-3.2398-2.7019-1.7902 0-3.2411 1.21-3.2398 2.7019 0 1.4919 1.4496 2.7019 3.2398 2.7019 1.7903 0 3.2412-1.21 3.2398-2.7019zm3.2398 5.9396c0-1.4919-1.4495-2.7019-3.2398-2.7019-1.7902 0-3.2411 1.21-3.2398 2.7019 0 1.4919 1.4496 2.7019 3.2398 2.7019 1.7903 0 3.2412-1.21 3.2398-2.7019zm7.0196-0.53996c0-1.4919-1.4496-2.7019-3.2398-2.7019-1.7903 0-3.2412 1.21-3.2398 2.7019 0 1.4919 1.4495 2.7019 3.2398 2.7019 1.7902 0 3.2411-1.21 3.2398-2.7019zm-5.3997-16.199c0-1.4919-1.4495-2.7019-3.2398-2.7019-1.7902 0-3.2411 1.21-3.2398 2.7019 0 1.4919 1.4496 2.7019 3.2398 2.7019 1.7903 0 3.2412-1.21 3.2398-2.7019zm6.4796-2.6998c0-1.4919-1.4495-2.7019-3.2398-2.7019s-3.2412 1.21-3.2398 2.7019c0 1.4919 1.4495 2.7019 3.2398 2.7019s3.2412-1.21 3.2398-2.7019zm6.4796-5.9255c0-1.4919-1.4496-2.7019-3.2398-2.7019-1.7903 0-3.2412 1.21-3.2398 2.7019 0 1.4919 1.4495 2.7019 3.2398 2.7019 1.7902 0 3.2411-1.21 3.2398-2.7019z"/>
  <path d="m615.94 169.95c0-1.4919-1.4496-2.7019-3.2398-2.7019-1.7903 0-3.2412 1.21-3.2398 2.7019 0 1.4919 1.4495 2.7019 3.2398 2.7019 1.7902 0 3.2411-1.21 3.2398-2.7019zm3.7797 8.6394c0-1.4919-1.4495-2.7019-3.2398-2.7019-1.7902 0-3.2411 1.21-3.2398 2.7019 0 1.4919 1.4496 2.7019 3.2398 2.7019 1.7903 0 3.2412-1.21 3.2398-2.7019zm12.419 7.0196c0-1.4919-1.4495-2.7019-3.2398-2.7019-1.7902 0-3.2411 1.21-3.2398 2.7019 0 1.4919 1.4496 2.7019 3.2398 2.7019 1.7903 0 3.2412-1.21 3.2398-2.7019zm6.4796-5.9396c0-1.4919-1.4495-2.7019-3.2398-2.7019-1.7902 0-3.2411 1.21-3.2398 2.7019 0 1.4919 1.4496 2.7019 3.2398 2.7019 1.7903 0 3.2412-1.21 3.2398-2.7019zm7.0196-14.039c0-1.4919-1.4496-2.7019-3.2398-2.7019-1.7903 0-3.2412 1.21-3.2398 2.7019 0 1.4919 1.4495 2.7019 3.2398 2.7019 1.7902 0 3.2411-1.21 3.2398-2.7019zm-10.799 41.577c0-1.4919-1.4496-2.7019-3.2398-2.7019-1.7903 0-3.2412 1.21-3.2398 2.7019 0 1.4919 1.4495 2.7019 3.2398 2.7019 1.7902 0 3.2411-1.21 3.2398-2.7019z"/>
 </g>
 <path d="m623.36 202.39c0.9467-8.1136 3.0925-15.561 4.0392-23.675" fill="none" stroke="#000" stroke-width="1.898"/>
 <g fill-rule="evenodd">
  <path d="m634.84 201.26c0-1.4919-1.4496-2.7019-3.2398-2.7019-1.7903 0-3.2412 1.21-3.2398 2.7019 0 1.4919 1.4495 2.7019 3.2398 2.7019 1.7902 0 3.2411-1.21 3.2398-2.7019z"/>
  <path d="m634.84 195.86c0-1.4919-1.4496-2.7019-3.2398-2.7019-1.7903 0-3.2412 1.21-3.2398 2.7019 0 1.4919 1.4495 2.7019 3.2398 2.7019 1.7902 0 3.2411-1.21 3.2398-2.7019zm-31.318 19.439c0-1.4919-1.4496-2.7019-3.2398-2.7019-1.7903 0-3.2412 1.21-3.2398 2.7019 0 1.4919 1.4495 2.7019 3.2398 2.7019 1.7902 0 3.2411-1.21 3.2398-2.7019z"/>
  <path d="m608.92 214.22c0-1.4919-1.4495-2.7019-3.2398-2.7019-1.7902 0-3.2411 1.21-3.2398 2.7019 0 1.4919 1.4496 2.7019 3.2398 2.7019 1.7903 0 3.2412-1.21 3.2398-2.7019zm7.0196 1.0799c0-1.4919-1.4496-2.7019-3.2398-2.7019-1.7903 0-3.2412 1.21-3.2398 2.7019 0 1.4919 1.4495 2.7019 3.2398 2.7019 1.7902 0 3.2411-1.21 3.2398-2.7019zm-10.799-31.318c0-1.4919-1.4496-2.7019-3.2398-2.7019-1.7903 0-3.2412 1.21-3.2398 2.7019 0 1.4919 1.4495 2.7019 3.2398 2.7019 1.7902 0 3.2411-1.21 3.2398-2.7019z"/>
  <path d="m612.7 189.38c0-1.4919-1.4496-2.7019-3.2398-2.7019-1.7903 0-3.2412 1.21-3.2398 2.7019 0 1.4919 1.4495 2.7019 3.2398 2.7019 1.7902 0 3.2411-1.21 3.2398-2.7019z" fill-opacity=".75"/>
 </g>
 <path d="m626.19 203.3c3.6674-11.265 5.4697-24.128 5.4067-36.591" fill="none" stroke="#000" stroke-width="1.898"/>
 <path d="m631.06 178.58c0-1.4919-1.4495-2.7019-3.2398-2.7019s-3.2412 1.21-3.2398 2.7019c0 1.4919 1.4495 2.7019 3.2398 2.7019s3.2412-1.21 3.2398-2.7019zm12.419 18.359c0-1.4919-1.4495-2.7019-3.2398-2.7019-1.7902 0-3.2411 1.21-3.2398 2.7019 0 1.4919 1.4496 2.7019 3.2398 2.7019 1.7903 0 3.2412-1.21 3.2398-2.7019z" fill-rule="evenodd"/>
 <path d="m617.16 204.27c3.1625-10.64 4.4598-22.08 4.6913-33.12m-7.4122 35.504c-2.7278-12.597-1.9916-25.06-4.9859-37.791m3.0925 34.965c-4.3033-9.135-5.942-18.67-10.112-27.405" fill="none" stroke="#000" stroke-width="1.898"/>
 <path d="m93.628 203.36s4.7911-46.2 3.7644-46.542c-1.0267-0.34222-2.5666 0.68444-3.5933 0.17111-1.0267-0.51333-0.02939-3.1752-0.02939-3.1752 1.4214-0.44307 2.8386-0.46946 4.2643-1.3292 1.4256-0.85977 2.8596-2.5529 4.2894-3.8294l-4.3399-24.854c5.2382 5.8714 8.3494 19.974 9.2477 21.023 0.81797-1.4421 3.721-14.511 9.361-21.498l-4.2121 24.901c1.3805 1.5315 2.2824 3.1871 3.5022 3.9551 1.2198 0.76802 3.0134 1.5437 4.0724 1.5483 1.4466-0.7233 1.0508 1.8893 0.0242 2.7448s-3.5933 0.34222-3.5933 0.34222l4.2777 46.542s-7.3577-2.0533-13.004-2.3955c-5.6466-0.34222-14.031 2.3955-14.031 2.3955z" fill="#fed501" fill-rule="evenodd" stroke="#917b01" stroke-width=".45082"/>
 <path d="m97.902 172.05c0.78318-2.4731 1.3426-19.343 1.902-20.668m0.33564 19.608c0.22377-2.4731 0.6713-19.432 0.6713-19.432m-4.7747 50.753c0.91079-3.6432 1.5614-28.495 2.2119-30.447m3.6816-20.13-0.1119 19.255m-3.1794 29.76c0.26023-3.6432 0.78068-28.625 0.78068-28.625m3.965-1.3115c0.22376-0.44163 0.11188-18.99 0.11188-18.99m-2.7758 20.562-0.13011 28.365m4.2485-30.025c0-1.3249 0.22376-17.753 0.11187-18.902m-2.5388 48.666c0.26022-0.65057 0.13012-27.974 0.13012-27.974m1.5614 27.844c0-1.9517 0.26022-26.153 0.1301-27.844m1.6915 0.52045 0.13012 27.064m1.9517-27.454-0.13011 27.194m1.8216-27.324-0.1301 27.324m1.9517-25.893-0.13011 26.413m1.5614-26.673 0.65057 27.064m-7.1965-48.573 0.1119 18.372m7.7351 3.1379 1.5614 27.064m-7.6182-48.838-0.11188 18.46m7.9904 3.3145 1.9517 27.974m-8.3757-49.837-0.11187 18.548m1.6783-17.577-0.1119 17.93m1.3426-18.107 0.55942 18.372m0.55941-18.372 1.3426 18.372m0.22377-18.372 1.6782 18.99" fill="none" fill-opacity=".75" fill-rule="evenodd" stroke="#917b01" stroke-width=".45082"/>
 <g fill="#fed501" fill-rule="evenodd" stroke="#917b01" stroke-width=".45082">
  <path d="m105.81 144.03s-13.549-0.38153-15.602-1.066c-2.0533-0.68444-3.2511-0.68444-3.2511-0.68444s1.7111-3.4222 3.2511-3.7644c1.54-0.34222 5.6466 1.7111 5.6466 1.7111l10.601 3.648s12.67-5.5302 16.434-5.1879c3.7644 0.34222 3.9355 3.08 3.9355 3.08s-2.0533 0.85555-2.9089 1.3689c-0.85555 0.51333-18.106 0.89486-18.106 0.89486z"/>
  <path d="m90.422 149.93s-2.9977-3.3849-0.80878-5.7449c2.1889-2.36 33.337-1.6039 34.877-0.23506s0.598 4.7254 0.598 4.7254-1.7111-0.68443-3.7644-0.85555c-2.0533-0.1711-5.8177 3.4222-5.8177 3.4222s-13.004 1.54-13.689 1.1978c-0.68445-0.34222-2.2244-4.62-4.9622-4.62-2.7378 0-6.4329 2.1102-6.4329 2.1102z"/>
  <path d="m89.7 153.78c0.9411 0.9411 7.1349-0.75549 8.3066-0.65318l17.725 1.5477c4.0832 0.35653 6.713-1.859 8.0818-2.0301s0.1995-5.1306-3.2813-5.1946c-3.4826-0.064-22.881-5e-3 -26.722 0.12273-3.842 0.12789-5.052 5.2663-4.1109 6.2074z"/>
 </g>
 <g fill-rule="evenodd" stroke="#917b01" stroke-width=".45082">
  <path d="m89.413 148.05s1.0871-2.2381 2.4938-2.366 29.798-0.44762 30.821-0.0639c1.0231 0.38367 2.366 2.6217 2.366 2.6217" fill="none" fill-opacity=".75"/>
  <path d="m94.996 132.7s-0.34222-0.51333-1.1978-2.2244-1.1978-4.7911-1.1978-4.7911 3.7644-0.85555 5.3044 0.17111c1.54 1.0266 9.2399 9.7533 9.2399 9.7533s6.5022-7.871 8.3844-9.411c1.8822-1.54 5.4755-0.17112 5.4755-0.17112s-0.85554 5.3044-2.3955 6.8444c-1.54 1.54-12.491 12.833-12.491 12.833z" fill="#fed501"/>
  <path d="m105.26 133.55s0-10.438-0.17111-12.491c-0.17111-2.0533 2.0533-3.08 2.0533-3.08s1.7111 1.54 1.54 3.4222c-0.1711 1.8822 0 13.518 0 13.518z" fill="#fed501"/>
  <path d="m87.174 141.91c0.31972-0.0639 3.1972-1.6626 4.9237-1.4068 1.7265 0.25578 29.351-0.0639 30.566 0.0639 1.2149 0.12789 3.9646 1.151 3.9646 1.151m-36.896 12.022c1.151-1.4068 1.9183-2.8136 3.7727-3.3251 1.8544-0.51156 26.665-0.83129 27.496-0.5755 0.83128 0.25578 3.0054 2.366 3.0054 2.366" fill="none" fill-opacity=".75"/>
  <path d="m93.262 139.55c-1.8822-1.3689-6.1366-4.2855-6.1366-4.2855s2.9089-1.3689 5.3044-0.85555c2.3955 0.51333 14.373 9.0922 14.373 9.0922s11.293-8.4078 13.86-9.0922c2.5666-0.68443 5.4755 1.3689 5.4755 1.3689s-4.6666 2.6832-6.2066 4.5655c-1.54 1.8822-13.175 11.737-13.175 11.737s-11.612-11.161-13.494-12.53z" fill="#fed501"/>
  <path d="m103.89 141.77s-3.2511-15.571-3.4222-17.795c-0.17111-2.2244 0.51333-4.9622 0.51333-4.9622s2.9089 1.54 3.5933 3.4222c0.68443 1.8822 2.9089 13.518 2.9089 13.518s1.0267-12.149 1.8822-13.689c0.85555-1.54 3.7644-3.08 3.7644-3.08s0.85555 3.2511 0.34221 5.1333c-0.51333 1.8822-4.7911 17.967-4.7911 17.967z" fill="#fed501"/>
  <path d="m88.965 134.75s2.5578 1.0231 3.9006 2.2381c1.3428 1.215 13.62 11.958 13.62 11.958s12.086-11.51 13.364-12.022c1.2789-0.51155 5.9468-1.151 5.9468-1.151" fill="none" fill-opacity=".75"/>
  <path d="m92.259 133.21 14.202 14.373s11.635-11.293 13.347-13.347c1.7111-2.0533 3.5933-4.2778 3.5933-4.2778s-5.8177 0.68444-7.6999 2.3955c-1.8822 1.7111-8.7266 9.7532-8.7266 9.7532s-8.3844-8.5555-10.095-10.609-6.8444-1.3689-6.8444-1.3689 1.3689 1.8822 2.2244 3.08z" fill="#fed501"/>
  <path d="m90.724 129.98 15.908 14.862 14.864-14.458" fill="none"/>
  <path d="m107.49 138.34s-9.2399-10.609-10.438-12.833c-1.1978-2.2244-0.85554-3.7644-0.85554-3.7644s2.3955-0.51333 3.7644 1.0267c1.3689 1.54 7.3577 10.267 7.3577 10.267s5.1333-8.5555 6.3311-9.7532c1.1978-1.1978 3.9355-1.54 3.9355-1.54s-0.17111 2.2244-1.54 4.62c-1.3689 2.3955-8.5555 11.978-8.5555 11.978z" fill="#fed501"/>
 </g>
 <g fill="none" fill-rule="evenodd" stroke="#917b01" stroke-width=".45082">
  <path d="m96.536 122.09 10.609 13.175 10.095-13.347"/>
  <path d="m107.06 118.18 0.19184 16.753m-6.0747-15.602 6.2026 16.945 5.5632-16.562" fill-opacity=".75"/>
  <path d="m93.249 125.98 13.556 15.539 13.62-15.411" fill-opacity=".75"/>
 </g>
 <g fill-rule="evenodd" stroke="#917b01" stroke-width=".45082">
  <path d="m96.365 173.59h21.389l-0.68444-8.7266h-19.849z" fill="#fed501"/>
  <path d="m106.45 173.82 10.93-4.8142m-20.558 0.65057 8.9778-4.6841" fill="none" fill-opacity=".75"/>
  <path d="m135.26 203.36s4.7911-46.2 3.7644-46.542-2.5666 0.68444-3.5933 0.17111-0.0294-3.1752-0.0294-3.1752c1.4214-0.44307 2.8386-0.46946 4.2643-1.3292 1.4256-0.85977 2.8596-2.5529 4.2894-3.8294l-4.3399-24.854c5.2382 5.8714 8.3494 19.974 9.2477 21.023 0.81797-1.4421 3.721-14.511 9.361-21.498l-4.2121 24.901c1.3805 1.5315 2.2824 3.1871 3.5022 3.9551 1.2198 0.76802 3.0134 1.5437 4.0724 1.5483 1.4466-0.7233 1.0508 1.8893 0.0242 2.7448s-3.5933 0.34222-3.5933 0.34222l4.2777 46.542s-7.3577-2.0533-13.004-2.3955c-5.6466-0.34222-14.031 2.3955-14.031 2.3955z" fill="#fed501"/>
  <path d="m139.54 172.05c0.78318-2.4731 1.3426-19.343 1.902-20.668m0.33564 19.608c0.22377-2.4731 0.6713-19.432 0.6713-19.432m-4.7746 50.753c0.91079-3.6432 1.5614-28.495 2.2119-30.447m3.6816-20.13-0.1119 19.255m-3.1794 29.76c0.26023-3.6432 0.78068-28.625 0.78068-28.625m3.965-1.3115c0.22376-0.44163 0.11188-18.99 0.11188-18.99m-2.7758 20.562-0.13011 28.365m4.2485-30.025c0-1.3249 0.22376-17.753 0.11187-18.902m-2.5388 48.666c0.26022-0.65057 0.13012-27.974 0.13012-27.974m1.5614 27.844c0-1.9517 0.26022-26.153 0.1301-27.844m1.6915 0.52045 0.13012 27.064m1.9517-27.454-0.13011 27.194m1.8216-27.324-0.1301 27.324m1.9517-25.893-0.13011 26.413m1.5614-26.673 0.65057 27.064m-7.1965-48.573 0.1119 18.372m7.7351 3.1379 1.5614 27.064m-7.6182-48.838-0.11188 18.46m7.9904 3.3145 1.9517 27.974m-8.3757-49.837-0.11187 18.548m1.6783-17.577-0.1119 17.93m1.3426-18.107 0.55942 18.372m0.55941-18.372 1.3426 18.372m0.22377-18.372 1.6782 18.99" fill="none" fill-opacity=".75"/>
 </g>
 <g fill="#fed501" fill-rule="evenodd" stroke="#917b01" stroke-width=".45082">
  <path d="m147.44 144.03s-13.549-0.38153-15.602-1.066c-2.0533-0.68444-3.2511-0.68444-3.2511-0.68444s1.7111-3.4222 3.2511-3.7644c1.54-0.34222 5.6466 1.7111 5.6466 1.7111l10.601 3.648s12.67-5.5302 16.434-5.1879c3.7644 0.34222 3.9355 3.08 3.9355 3.08s-2.0533 0.85555-2.9089 1.3689c-0.85555 0.51333-18.106 0.89486-18.106 0.89486z"/>
  <path d="m132.06 149.93s-2.9977-3.3849-0.80878-5.7449c2.1889-2.36 33.337-1.6039 34.877-0.23506s0.598 4.7254 0.598 4.7254-1.7111-0.68443-3.7644-0.85555c-2.0533-0.1711-5.8177 3.4222-5.8177 3.4222s-13.004 1.54-13.689 1.1978c-0.68445-0.34222-2.2244-4.62-4.9622-4.62-2.7378 0-6.4329 2.1102-6.4329 2.1102z"/>
  <path d="m131.34 153.78c0.9411 0.9411 7.1349-0.75549 8.3066-0.65318l17.725 1.5477c4.0832 0.35653 6.713-1.859 8.0818-2.0301s0.1995-5.1306-3.2813-5.1946c-3.4826-0.064-22.881-5e-3 -26.722 0.12273-3.842 0.12789-5.052 5.2663-4.1109 6.2074z"/>
 </g>
 <g fill-rule="evenodd" stroke="#917b01" stroke-width=".45082">
  <path d="m131.05 148.05s1.0871-2.2381 2.4938-2.366 29.798-0.44762 30.821-0.0639c1.0231 0.38367 2.366 2.6217 2.366 2.6217" fill="none" fill-opacity=".75"/>
  <path d="m136.63 132.7s-0.34221-0.51333-1.1978-2.2244-1.1978-4.7911-1.1978-4.7911 3.7644-0.85555 5.3044 0.17111c1.54 1.0266 9.2399 9.7533 9.2399 9.7533s6.5022-7.871 8.3844-9.411c1.8822-1.54 5.4755-0.17112 5.4755-0.17112s-0.85554 5.3044-2.3955 6.8444c-1.54 1.54-12.491 12.833-12.491 12.833z" fill="#fed501"/>
  <path d="m146.9 133.55s0-10.438-0.17111-12.491c-0.17111-2.0533 2.0533-3.08 2.0533-3.08s1.7111 1.54 1.54 3.4222c-0.1711 1.8822 0 13.518 0 13.518z" fill="#fed501"/>
  <path d="m128.81 141.91c0.31973-0.0639 3.1972-1.6626 4.9237-1.4068 1.7265 0.25578 29.351-0.0639 30.566 0.0639 1.2149 0.12789 3.9646 1.151 3.9646 1.151m-36.896 12.022c1.151-1.4068 1.9183-2.8136 3.7727-3.3251 1.8544-0.51156 26.665-0.83129 27.496-0.5755 0.83128 0.25578 3.0054 2.366 3.0054 2.366" fill="none" fill-opacity=".75"/>
  <path d="m134.9 139.55c-1.8822-1.3689-6.1366-4.2855-6.1366-4.2855s2.9089-1.3689 5.3044-0.85555c2.3955 0.51333 14.373 9.0922 14.373 9.0922s11.293-8.4078 13.86-9.0922c2.5666-0.68443 5.4755 1.3689 5.4755 1.3689s-4.6666 2.6832-6.2066 4.5655c-1.54 1.8822-13.175 11.737-13.175 11.737s-11.612-11.161-13.494-12.53z" fill="#fed501"/>
  <path d="m145.53 141.77s-3.2511-15.571-3.4222-17.795c-0.17111-2.2244 0.51333-4.9622 0.51333-4.9622s2.9089 1.54 3.5933 3.4222c0.68443 1.8822 2.9089 13.518 2.9089 13.518s1.0267-12.149 1.8822-13.689c0.85555-1.54 3.7644-3.08 3.7644-3.08s0.85555 3.2511 0.34221 5.1333c-0.51333 1.8822-4.7911 17.967-4.7911 17.967z" fill="#fed501"/>
  <path d="m130.6 134.75s2.5578 1.0231 3.9006 2.2381c1.3428 1.215 13.62 11.958 13.62 11.958s12.086-11.51 13.364-12.022c1.2789-0.51155 5.9468-1.151 5.9468-1.151" fill="none" fill-opacity=".75"/>
  <path d="m133.89 133.21 14.202 14.373s11.635-11.293 13.347-13.347c1.7111-2.0533 3.5933-4.2778 3.5933-4.2778s-5.8177 0.68444-7.6999 2.3955c-1.8822 1.7111-8.7266 9.7532-8.7266 9.7532s-8.3844-8.5555-10.095-10.609c-1.7111-2.0533-6.8444-1.3689-6.8444-1.3689s1.3689 1.8822 2.2244 3.08z" fill="#fed501"/>
  <path d="m132.36 129.98 15.908 14.862 14.864-14.458" fill="none"/>
  <path d="m149.12 138.34s-9.2399-10.609-10.438-12.833c-1.1978-2.2244-0.85554-3.7644-0.85554-3.7644s2.3955-0.51333 3.7644 1.0267c1.3689 1.54 7.3577 10.267 7.3577 10.267s5.1333-8.5555 6.3311-9.7532c1.1978-1.1978 3.9355-1.54 3.9355-1.54s-0.17111 2.2244-1.54 4.62c-1.3689 2.3955-8.5555 11.978-8.5555 11.978z" fill="#fed501"/>
 </g>
 <g fill="none" fill-rule="evenodd" stroke="#917b01" stroke-width=".45082">
  <path d="m138.17 122.09 10.609 13.175 10.095-13.347"/>
  <path d="m148.7 118.18 0.19184 16.753m-6.0747-15.602 6.2026 16.945 5.5632-16.562" fill-opacity=".75"/>
  <path d="m134.89 125.98 13.556 15.539 13.62-15.411" fill-opacity=".75"/>
 </g>
 <g fill-rule="evenodd" stroke="#917b01" stroke-width=".45082">
  <path d="m138 173.59h21.389l-0.68444-8.7266h-19.849z" fill="#fed501"/>
  <path d="m148.08 173.82 10.93-4.8142m-20.558 0.65057 8.9778-4.6841" fill="none" fill-opacity=".75"/>
  <path d="m176.38 203.1s4.7911-46.2 3.7644-46.542c-1.0267-0.34222-2.5666 0.68444-3.5933 0.17111s-0.0294-3.1752-0.0294-3.1752c1.4214-0.44308 2.8386-0.46947 4.2642-1.3292 1.4256-0.85977 2.8596-2.5529 4.2894-3.8294l-4.34-24.854c5.2382 5.8714 8.3494 19.974 9.2477 21.023 0.81796-1.4421 3.721-14.511 9.361-21.498l-4.2121 24.901c1.3805 1.5315 2.2824 3.1871 3.5022 3.9551 1.2198 0.76802 3.0134 1.5437 4.0724 1.5483 1.4466-0.72331 1.0508 1.8893 0.0242 2.7448s-3.5933 0.34222-3.5933 0.34222l4.2777 46.542s-7.3577-2.0533-13.004-2.3955c-5.6466-0.34221-14.031 2.3955-14.031 2.3955z" fill="#fed501"/>
  <path d="m180.65 171.79c0.78318-2.4731 1.3426-19.343 1.902-20.668m0.33565 19.608c0.22377-2.4731 0.6713-19.432 0.6713-19.432m-4.7747 50.753c0.91079-3.6432 1.5614-28.495 2.2119-30.447m3.6816-20.13-0.11189 19.255m-3.1794 29.76c0.26023-3.6432 0.78069-28.625 0.78069-28.625m3.965-1.3115c0.22376-0.44163 0.11189-18.99 0.11189-18.99m-2.7758 20.562-0.13012 28.365m4.2485-30.025c0-1.3249 0.22376-17.753 0.11188-18.902m-2.5388 48.666c0.26023-0.65057 0.13012-27.974 0.13012-27.974m1.5614 27.844c0-1.9517 0.26022-26.153 0.13011-27.844m1.6915 0.52045 0.13012 27.064m1.9517-27.454-0.13012 27.194m1.8216-27.324-0.13011 27.324m1.9517-25.893-0.13012 26.413m1.5614-26.673 0.65057 27.064m-7.1965-48.573 0.11189 18.372m7.7351 3.1379 1.5614 27.064m-7.6182-48.838-0.11189 18.46m7.9904 3.3145 1.9517 27.974m-8.3757-49.837-0.11188 18.548m1.6783-17.577-0.11189 17.93m1.3426-18.107 0.55943 18.372m0.5594-18.372 1.3426 18.372m0.22377-18.372 1.6782 18.99" fill="none" fill-opacity=".75"/>
 </g>
 <g fill="#fed501" fill-rule="evenodd" stroke="#917b01" stroke-width=".45082">
  <path d="m188.56 143.77s-13.549-0.38153-15.602-1.066c-2.0533-0.68445-3.2511-0.68445-3.2511-0.68445s1.7111-3.4222 3.2511-3.7644 5.6466 1.7111 5.6466 1.7111l10.601 3.648s12.67-5.5302 16.434-5.1879c3.7644 0.34221 3.9355 3.08 3.9355 3.08s-2.0533 0.85555-2.9089 1.3689c-0.85555 0.51333-18.106 0.89486-18.106 0.89486z"/>
  <path d="m173.17 149.67s-2.9977-3.3849-0.80878-5.7449c2.1889-2.36 33.337-1.6039 34.877-0.23506 1.54 1.3689 0.598 4.7254 0.598 4.7254s-1.7111-0.68443-3.7644-0.85554-5.8177 3.4222-5.8177 3.4222-13.004 1.54-13.689 1.1978c-0.68444-0.34221-2.2244-4.62-4.9622-4.62s-6.4329 2.1102-6.4329 2.1102z"/>
  <path d="m172.45 153.52c0.9411 0.9411 7.1349-0.75548 8.3066-0.65317l17.725 1.5477c4.0832 0.35654 6.713-1.859 8.0818-2.0301 1.3689-0.17111 0.1995-5.1306-3.2813-5.1946-3.4826-0.064-22.881-5e-3 -26.722 0.12273-3.842 0.12789-5.052 5.2663-4.1109 6.2074z"/>
 </g>
 <g fill-rule="evenodd" stroke="#917b01" stroke-width=".45082">
  <path d="m172.16 147.79s1.087-2.2381 2.4938-2.366c1.4068-0.12789 29.798-0.44762 30.821-0.0639 1.0231 0.38366 2.366 2.6217 2.366 2.6217" fill="none" fill-opacity=".75"/>
  <path d="m177.75 132.44s-0.34222-0.51333-1.1978-2.2244c-0.85555-1.7111-1.1978-4.7911-1.1978-4.7911s3.7644-0.85555 5.3044 0.17111c1.54 1.0267 9.2399 9.7533 9.2399 9.7533s6.5022-7.871 8.3844-9.411c1.8822-1.54 5.4755-0.17111 5.4755-0.17111s-0.85555 5.3044-2.3955 6.8444c-1.54 1.54-12.491 12.833-12.491 12.833z" fill="#fed501"/>
  <path d="m188.02 133.29s0-10.438-0.17111-12.491c-0.1711-2.0533 2.0533-3.08 2.0533-3.08s1.7111 1.54 1.54 3.4222 0 13.518 0 13.518z" fill="#fed501"/>
  <path d="m169.93 141.65c0.31972-0.0639 3.1972-1.6626 4.9237-1.4068 1.7265 0.25577 29.351-0.0639 30.566 0.0639 1.2149 0.12789 3.9646 1.151 3.9646 1.151m-36.896 12.022c1.151-1.4068 1.9183-2.8136 3.7727-3.3251 1.8544-0.51155 26.665-0.83128 27.496-0.5755 0.83129 0.25578 3.0054 2.366 3.0054 2.366" fill="none" fill-opacity=".75"/>
  <path d="m176.01 139.29c-1.8822-1.3689-6.1366-4.2855-6.1366-4.2855s2.9089-1.3689 5.3044-0.85554c2.3955 0.51333 14.373 9.0922 14.373 9.0922s11.293-8.4078 13.86-9.0922 5.4755 1.3689 5.4755 1.3689-4.6666 2.6833-6.2066 4.5655c-1.54 1.8822-13.175 11.737-13.175 11.737s-11.612-11.161-13.494-12.53z" fill="#fed501"/>
  <path d="m186.65 141.5s-3.2511-15.571-3.4222-17.795c-0.17111-2.2244 0.51333-4.9622 0.51333-4.9622s2.9089 1.54 3.5933 3.4222c0.68443 1.8822 2.9089 13.518 2.9089 13.518s1.0267-12.149 1.8822-13.689c0.85555-1.54 3.7644-3.08 3.7644-3.08s0.85555 3.2511 0.34222 5.1333c-0.51333 1.8822-4.7911 17.967-4.7911 17.967z" fill="#fed501"/>
  <path d="m171.72 134.49s2.5578 1.0231 3.9006 2.2381c1.3428 1.215 13.62 11.958 13.62 11.958s12.086-11.51 13.364-12.022 5.9468-1.151 5.9468-1.151" fill="none" fill-opacity=".75"/>
  <path d="m175.01 132.95 14.202 14.373s11.635-11.293 13.347-13.347c1.7111-2.0533 3.5933-4.2778 3.5933-4.2778s-5.8177 0.68445-7.6999 2.3955c-1.8822 1.7111-8.7266 9.7533-8.7266 9.7533s-8.3844-8.5555-10.095-10.609c-1.7111-2.0533-6.8444-1.3689-6.8444-1.3689s1.3689 1.8822 2.2244 3.08z" fill="#fed501"/>
  <path d="m173.48 129.72 15.908 14.862 14.864-14.458" fill="none"/>
  <path d="m190.24 138.08s-9.2399-10.609-10.438-12.833c-1.1978-2.2244-0.85554-3.7644-0.85554-3.7644s2.3955-0.51333 3.7644 1.0267c1.3689 1.54 7.3577 10.267 7.3577 10.267s5.1333-8.5555 6.3311-9.7532c1.1978-1.1978 3.9355-1.54 3.9355-1.54s-0.17112 2.2244-1.54 4.62c-1.3689 2.3955-8.5555 11.978-8.5555 11.978z" fill="#fed501"/>
 </g>
 <g fill="none" fill-rule="evenodd" stroke="#917b01" stroke-width=".45082">
  <path d="m179.29 121.83 10.609 13.175 10.095-13.347"/>
  <path d="m189.81 117.92 0.19184 16.753m-6.0747-15.602 6.2026 16.945 5.5632-16.562" fill-opacity=".75"/>
  <path d="m176 125.72 13.556 15.539 13.62-15.411" fill-opacity=".75"/>
 </g>
 <g fill-rule="evenodd">
  <path d="m179.12 173.33h21.389l-0.68445-8.7266h-19.849z" fill="#fed501" stroke="#917b01" stroke-width=".45082"/>
  <path d="m189.2 173.56 10.93-4.8142m-20.558 0.65056 8.9778-4.6841" fill="none" fill-opacity=".75" stroke="#917b01" stroke-width=".45082"/>
  <path d="m71.662 46.757h150.16v63.896h-150.16z" fill="#fdd401" stroke-width=".90164"/>
  <path d="m192.88 102.36a1.1118 2.3445 73.114 1 0-0.64589-2.1277 1.1118 2.3445 73.114 1 0 0.64589 2.1277zm6.5382 2.1074a1.1118 2.3444 14.511 1 0-2.1526-0.55716 1.1118 2.3444 14.511 1 0 2.1526 0.55716zm7.3089-0.62837a2.3444 1.1118 25.888 1 0 0.97087-2.0004 2.3444 1.1118 25.888 1 0-0.97087 2.0004zm-14.386-6.8331a1.1118 2.3444 86.195 1 0-0.14757-2.2187 1.1118 2.3444 86.195 1 0 0.14757 2.2187zm-47.924-4.0689a2.3444 1.1118 11.392 1 0 0.43922-2.1798 2.3444 1.1118 11.392 1 0-0.43922 2.1798zm-2.6038 4.4257a1.1118 2.3444 76.376 1 0-0.52377-2.161 1.1118 2.3444 76.376 1 0 0.52377 2.161zm10.781 7.7015a1.1103 2.3477 3.4327 1 0-2.2229-0.0155 1.1103 2.3477 3.4327 1 0 2.2229 0.0155zm-7.9192-2.7165a1.1118 2.3445 43.294 1 0-1.6184-1.5248 1.1118 2.3445 43.294 1 0 1.6184 1.5248zm-49.41-46.791a1.1118 2.3444 18.301 1 0-2.1111-0.69823 1.1118 2.3444 18.301 1 0 2.1111 0.69823zm-6.309-3.409a2.3445 1.1118 65.758 1 0-2.0275 0.913 2.3445 1.1118 65.758 1 0 2.0275-0.913zm-8.9312 11.783a1.1118 2.3444 89.431 1 0 0.02209 2.2235 1.1118 2.3444 89.431 1 0-0.02209-2.2235zm1.3709-10.437a2.3444 1.1118 20.847 1 0-0.79131 2.078 2.3444 1.1118 20.847 1 0 0.79131-2.078zm1.4034 37.531a1.1118 2.3444 88.31 1 0 0.06555 2.2226 1.1118 2.3444 88.31 1 0-0.06555-2.2226zm-2.4273 6.9432a1.1118 2.3444 55.598 1 0 1.2563 1.8347 1.1118 2.3444 55.598 1 0-1.2563-1.8347zm6.0121 6.0212a1.1118 2.3445 19.947 1 0-2.0902-0.75857 1.1118 2.3445 19.947 1 0 2.0902 0.75857zm6.4304 1.6456a1.1118 2.3444 0 1 0-2.2236 0 1.1118 2.3444 0 1 0 2.2236 0z" fill="#0139ab" stroke-width=".90164"/>
 </g>
 <g fill="#d4170f" fill-rule="evenodd">
  <path d="m165.91 51.639s-12.231-0.78068-14.052 0c-1.8216 0.78068-2.0818 3.3829-3.9034 3.3829-1.8216 0-8.067-0.52045-9.6284-0.26023-1.5614 0.26023-4.9443 2.0818-4.9443 4.6841 0 2.6023 0.65021 7.0396 10.149 7.2863 10.019 0.26023 27.064-6.2454 27.064-6.2454l0.26024 2.6023s3.9034-4.4239 5.9852-4.6841c2.0818-0.26023 4.1636 1.0409 3.3829 2.0818-0.78068 1.0409-1.5614 1.8216-1.5614 1.8216s4.6841-1.3011 4.6841-2.8625c0-1.5614-1.0409-1.8216-1.0409-1.8216s2.8625 0.26023 3.9034 0c1.0409-0.26023 2.0818 1.3011 1.5614 2.342-0.52046 1.0409-1.5614 2.6023-1.5614 2.6023s4.6841-1.3011 4.1636-2.6023c-0.52045-1.3011-0.52045-2.0818-0.52045-2.0818s4.1636-0.78068 4.9443 0.52045c0.78067 1.3011-1.8216 7.8068-1.8216 7.8068s1.5614-4.1636 4.9443-4.9443c3.3829-0.78068 5.2045-1.5614 7.2863-0.26023 2.0818 1.3011 9.1079 4.1636 8.8477 7.8068 0 1.8216-3.1227 3.3829-8.067 3.6432s-21.078-3.6432-32.528-3.6432c-11.45 0-16.654 2.0818-23.941 2.6023-7.2863 0.52045-46.06 0-46.06 0s-9.6284-3.3829-11.45-6.7659c-1.8216-3.3829 2.342-7.0261 2.342-7.0261l-1.5614-1.3011-1.8216 1.3011s1.5614-3.9034-1.5614-3.9034c-3.1227 0-2.8625 3.9034-2.8625 3.9034s-2.0818-3.9034-3.383-4.1636c-1.3011-0.26023-2.0818 4.1636-2.0818 4.1636s3.6432 1.3011 3.383 3.1227c-0.26023 1.8216-4.6841 1.8216-4.6841 1.8216s-0.26022 3.3829 0.78068 4.1636c1.0409 0.78068 3.1227-2.0818 4.1636-1.8216 1.0409 0.26023 0.78068 8.5875 0.78068 8.5875l1.5614-1.8216 0.26023 7.2863 1.5614-3.6432 0.26022 8.067 5.725-3.9034-2.6023 8.5875 3.6432-3.6432v5.2045l19.777-4.1636-2.0818 3.6432s-5.2045 4.4239-10.669 4.9443c-5.4648 0.52045-9.6284 1.0409-12.231 0.78068-2.6023-0.26023-5.2045-4.9443-6.2454-4.6841-1.0409 0.26023 0.78068 2.8625-0.26023 4.1636-1.0409 1.3011-5.2045 2.342-3.9034 3.1227 1.3011 0.78068 5.725 0.52045 5.725 1.8216 0 1.3011-2.8625 3.1227-0.78068 4.1636 2.0818 1.0409 4.6841-3.1227 5.2045-2.0818 0.52045 1.0409-0.52045 3.383 1.5614 3.383 2.0818 0 2.0818-2.8625 2.0818-2.8625l10.149 3.1227-2.342-3.9034s3.3829 2.0818 4.9443 2.6023 3.9034 0.52045 3.9034 0.52045l-3.1227-4.1636 6.7659 3.6432-1.5614-4.1636 5.725 3.3829-1.0409-3.6432s2.342 2.0818 4.1636 2.0818c1.8216 0 2.8625-1.5614 2.8625-1.5614l-1.8216-2.342s2.0818 1.3011 4.6841 1.5614c2.6023 0.26023 6.7659-1.5614 6.7659-1.5614l-4.9443-1.5614 4.6841-1.5614-2.342-1.5614 3.3829-5.725s1.3011 0.26023 5.9852 0c4.6841-0.26023 19.517-10.149 25.762-9.8886 6.2454 0.26023 17.695 12.231 22.9 11.97 5.2045-0.26023 14.833-1.0409 14.833-1.0409l-2.342 4.6841c-0.78068 1.5614-0.78068 3.6432-0.78068 3.6432l-4.9443-0.78068s0.26022-1.0409-1.8216-1.0409c-2.0818 0-1.0409 3.9034-1.0409 3.9034s-1.5614 2.6023-0.26023 2.8625 3.1227-1.8216 4.1636-0.78068c1.0409 1.0409-0.52045 3.1227 1.0409 3.383 1.5614 0.26022 0.78068-3.9034 2.8625-3.6432 2.0818 0.26023 3.1227 2.8625 4.4238 2.6023s1.8216-2.6023 1.8216-2.6023-1.8216-0.78068-1.8216-2.0818 2.0818-4.6841 3.383-4.6841c1.3011 0 1.0409 2.6023 1.0409 2.6023l1.3011-2.8625 1.5614 0.52045-2.0818-3.9034 4.4238 0.52045-2.6023-2.8625 2.8625-0.26023s-2.0818-1.0409-2.0818-2.6023c0-1.5614 0.78068-3.9034 0.78068-3.9034s-5.725 2.0818-11.71 0.52045-13.532-8.8477-13.532-8.8477 13.792 2.342 17.695 2.0818 8.8477-0.52045 9.6284-3.6432c0.78067-3.1227-4.6841-11.71-4.6841-11.71v3.3829s-5.2045-5.4648-22.64-6.7659c-17.435-1.3011-30.447 10.409-45.54 9.1079-13.532-1.5614-7.5466-9.6284-0.78068-8.8477 4.1636 0.52045 10.669 2.8625 13.792 2.8625 3.1227 0 8.3272-3.3829 9.3682-7.2863z" stroke-width=".90164"/>
  <path d="m176.58 77.402c-1.8216 0.26023-21.859 0.78068-22.64 8.3273-0.78069 7.5466 8.067 6.5057 8.067 6.5057l-0.26022 2.6023s-5.725 1.0409-9.1079 1.0409c-3.383 0-3.1227-3.9034-4.9443-4.4239-1.8216-0.52045-2.342 2.8625-2.342 2.8625l-2.8625 0.26023 0.26024 2.8625 1.8216 1.0409 0.26022 2.0818 1.5614 2.342 2.342-1.3011 0.78067 3.3829s0.78068-0.78068 1.8216-1.0409c1.0409-0.26023 1.8216 1.3011 1.8216 1.3011s-0.26023-3.383 2.8625-3.6432c3.1227-0.26023 5.2045 3.3829 5.2045 3.3829v-3.6432l2.8625 2.8625 0.52045-3.9034 3.383 3.383 0.78068-3.383 1.8216 1.5614v-3.3829l5.725 2.8625 0.78068-3.3829 4.6841 1.3011-1.5614-1.5614h4.9443s-1.8216-4.1636-3.383-5.725c-1.5614-1.5614-9.8886-4.1636-10.149-6.5057-0.26023-2.342 4.9443-8.067 4.9443-8.067z" stroke-width=".90164"/>
  <path d="m108.4 64.911c-1.0409 0-11.19 9.6284-12.491 11.45-1.3011 1.8216-0.52045 4.6841-0.52045 4.6841l4.4239-4.4239s-1.3011 2.6023-1.3011 4.6841 0.78068 4.4239 0.78068 4.4239l2.342-5.725v10.149l3.383-4.9443-2.0818 9.8886 4.4239-7.2863s-2.342 3.3829-1.3011 5.725c1.0409 2.342 1.8216 2.8625 1.8216 2.8625l2.0818-8.5875s-0.26023 5.2045 0.78068 7.0261c1.0409 1.8216 2.8625 2.8625 2.8625 2.8625s0.26022-3.3829 0.52045-5.9852c0.26022-2.6023-0.52045-4.6841-0.52045-4.6841s2.342 3.1227 2.0818 4.9443c-0.26022 1.8216-1.0409 4.1636-1.0409 4.1636s2.8625-2.8625 3.3829-5.2045c0.52045-2.342-0.52045-4.4239-0.52045-4.4239s0.52045 4.9443 1.5614 6.2454c1.0409 1.3011 2.8625 2.8625 2.8625 2.8625v-8.8477s0.26022 4.9443 1.5614 6.2454c1.3011 1.3011 3.9034 1.3011 3.9034 1.3011s-2.0818-3.6432-2.342-6.7659c-0.26023-3.1227 0.52045-4.4239 0.52045-4.4239s0.78068 4.1636 1.0409 5.725c0.26022 1.5614 0.78068 3.3829 0.78068 3.3829s0.52045-4.4239 0.78068-6.2454c0.26022-1.8216-0.26023-3.1227-0.26023-3.1227s2.342 3.6432 1.8216 4.6841c-0.52045 1.0409 0 2.0818 0 2.0818s1.3011-4.6841 1.3011-6.7659c0-2.0818-1.3011-3.9034-1.3011-3.9034l3.383 4.6841s1.0409-4.4239-0.52046-8.5875c-1.5614-4.1636-9.6284-8.8477-9.6284-8.8477z" stroke="#fed501" stroke-width=".78894"/>
  <path d="m104.75 59.186s-2.8625 2.342-2.8625 5.2045 1.8216 3.6432 1.8216 3.6432l-1.0409 5.2045 1.8216-1.0409 0.26023 5.2045 1.8216-2.6023 0.78068 4.9443 1.8216-1.8216v4.9443l1.8216-2.342 1.0409 2.6023 1.5614-2.8625 1.5614 2.6023 1.3011-2.6023 3.1227 0.78068-0.52045-1.5614 2.0818 0.26023-0.78068-4.1636 2.0818 2.8625 0.26022-3.3829 2.342 1.5614s1.5614-6.7659 1.5614-10.93c0-4.1636-1.3011-6.5057-1.3011-6.5057l2.6023-3.9034-4.4238 1.3011-1.3011-3.6432-2.6023 2.0818-0.78068-1.5614-1.0409 1.3011-1.3011-3.1227-1.8216 3.1227-2.8625-2.0818-0.52046 2.8625-2.342-1.0409-0.26024 2.6023s-3.9034-2.8625-5.2045-2.8625c-1.3011 0 1.3011 4.9443 1.3011 4.9443z" stroke="#fed501" stroke-width=".78894"/>
 </g>
 <path d="m106.58 66.992c1.8216-0.52045 0.78068 4.6841 2.8625 5.2045 2.0818 0.52045 4.9443-1.8216 4.9443-1.8216s0.78068 2.6023 3.1227 2.342c2.342-0.26023 3.6432-5.4648 3.6432-5.4648" fill="none" stroke="#fed501" stroke-width=".67623"/>
 <g fill-rule="evenodd" stroke-width=".90164">
  <path d="m110.74 76.361s2.6431-3.3544 2.7504-5.5749c0.10448-2.1619-1.3923-2.3911-1.379-3.307 0.0133-0.91586 0.6064-1.2389 1.8805-1.284 1.3348-0.04728 2.2522 0.54544 2.3174 1.4569 0.0608 0.85096-1.9261 0.90224-1.9261 3.2443 0 2.342 2.8625 5.4648 2.8625 5.4648s-1.6392-0.26023-2.1597 0c-0.52046 0.26023-0.96303 2.0818-0.96303 2.0818s0.12157-1.6221-1.1796-1.8824c-1.3011-0.26023-2.2034-0.19944-2.2034-0.19944z" fill="#fed501"/>
  <path d="m115.07 74.556a1.1118 2.3444 0 1 0-2.2236 0 1.1118 2.3444 0 1 0 2.2236 0z" fill="#0139ab"/>
  <path d="m113.57 60.264c-1.2954 1.0909-2.3228 0.74659-4.1295-0.03746-0.10226 0.88632 0.78068 3.9034 2.342 3.6432 1.5614-0.26023 1.7875-3.6057 1.7875-3.6057zm-1.1636 1.8443c0 0.47984-0.38943 0.86928-0.86928 0.86928-0.47984 0-0.86928-0.38944-0.86928-0.86928 0-0.47984 0.38944-0.86928 0.86928-0.86928 0.47985 0 0.86928 0.38944 0.86928 0.86928zm4.0503-1.6403c1.2954 1.0909 2.2546 0.13298 4.0614-0.65107 0.10226 0.88632-0.74659 4.3466-2.308 4.0863-1.5614-0.26023-1.7534-3.0262-1.7534-3.4353zm1.1295 1.6738c0 0.47984 0.38944 0.86928 0.86928 0.86928 0.47985 0 0.86928-0.38944 0.86928-0.86928 0-0.47984-0.38943-0.86928-0.86928-0.86928-0.47984 0-0.86928 0.38944-0.86928 0.86928z" fill="#fed501"/>
 </g>
 <path d="m130.46 90.599c0.19284-0.38568 2.2176-5.0138 2.2176-5.0138s0.0964 2.7962 0.48208 2.3141c0.38568-0.4821 1.3499-3.4711 1.3499-3.4711s1.3499 1.9284 1.7356 1.2534c0.38567-0.67494 0.96418-1.5427 0.96418-1.5427s0.86778 2.5069 1.0606 1.832c0.19284-0.67493 0.9642-2.2176 0.9642-2.2176s1.2534 2.5069 1.2534 1.9284 0.38567-2.4105 0.38567-2.4105l0.9642 1.3499 1.6391-2.2176s-0.19284 2.6033 0.19284 1.9284 1.0606-2.1212 1.0606-2.1212 1.0606 1.6391 1.5427 0.96419c0.48209-0.67493 0.77135-1.2534 0.77135-1.2534h1.2534l0.86777-1.4463 1.0606 1.157 0.77135-1.0606m16.681 8.4849c4.0496-0.09642 4.2425-1.5427 4.2425-1.5427m-0.86778 2.989s1.832-0.28926 2.5069-1.2534m0 2.3141c2.5069-0.09642 2.4105-1.3499 2.4105-1.3499m0.38568 2.1212c2.4105 0.57852 2.0248-1.3499 2.0248-1.3499m-0.28926 3.3747c1.2534-0.09642 1.4463-1.6391 1.4463-1.6391m10.799-14.656c3.1818-0.57852 2.5069-0.09642 2.5069-0.09642m-0.77136 1.7355c1.5427 0.09642 2.5069-1.157 2.5069-1.157m-0.67494 2.3141c1.6391-0.19284 1.832-1.157 1.832-1.157m0.38567 2.1212c1.5427-0.19284 1.7355-1.0606 1.7355-1.0606m0.0964 1.9284c1.6391-0.67493 1.3499-1.157 1.3499-1.157" fill="none" stroke="#fed501" stroke-width=".67623"/>
 <path d="m164.72 52.312c-5.7225-0.72772-6.6156 2.6793-6.6156 2.6793s3.407-1.3562 3.7047-1.0254c0.29771 0.33078-0.66156 2.2493-0.26462 2.0508 0.39694-0.19847 2.7124-1.8193 3.1755-3.7047z" fill="#fed501" fill-rule="evenodd" stroke-width=".90164"/>
 <path d="m68.467 43.563h156.54v159.74c0 15.974-19.169 15.974-76.675 35.143-57.506-19.169-79.563-20.154-79.87-35.143zm6.3896 6.3896h143.77v153.35c0 6.3896-12.779 9.5844-70.285 28.753-57.506-19.169-73.48-22.364-73.48-28.753z" fill="#feffff" fill-rule="evenodd" stroke-width=".90164"/>
</svg>
